<svg width="18" height="18" viewBox="0 0 18 18" fill="none" xmlns="http://www.w3.org/2000/svg">
<rect x="0.00683594" width="18" height="18" rx="9" fill="#262626"/>
<path d="M7.13214 9C7.13214 7.9645 7.97134 7.12485 9.00684 7.12485C10.0423 7.12485 10.882 7.9645 10.882 9C10.882 10.0355 10.0423 10.8751 9.00684 10.8751C7.97134 10.8751 7.13214 10.0355 7.13214 9ZM6.11847 9C6.11847 10.5952 7.41159 11.8884 9.00684 11.8884C10.6021 11.8884 11.8952 10.5952 11.8952 9C11.8952 7.40475 10.6021 6.11163 9.00684 6.11163C7.41159 6.11163 6.11847 7.40475 6.11847 9ZM11.3346 5.9971C11.3345 6.13061 11.374 6.26113 11.4482 6.37216C11.5223 6.48319 11.6277 6.56975 11.751 6.62089C11.8743 6.67203 12.01 6.68545 12.141 6.65946C12.2719 6.63346 12.3922 6.56923 12.4867 6.47486C12.5811 6.3805 12.6454 6.26025 12.6715 6.12933C12.6976 5.9984 12.6843 5.86267 12.6333 5.73931C12.5822 5.61595 12.4958 5.5105 12.3848 5.43628C12.2738 5.36207 12.1433 5.32243 12.0098 5.32237H12.0096C11.8306 5.32246 11.659 5.39356 11.5324 5.52007C11.4059 5.64659 11.3347 5.81816 11.3346 5.9971ZM6.73434 13.5786C6.18592 13.5536 5.88784 13.4623 5.68975 13.3851C5.42713 13.2829 5.23975 13.1611 5.04274 12.9644C4.84573 12.7676 4.72378 12.5804 4.62199 12.3178C4.54477 12.1198 4.45342 11.8216 4.42849 11.2732C4.40122 10.6803 4.39578 10.5022 4.39578 9.00004C4.39578 7.4979 4.40167 7.32028 4.42849 6.72687C4.45347 6.17845 4.54549 5.88087 4.62199 5.68228C4.72423 5.41966 4.846 5.23229 5.04274 5.03527C5.23948 4.83826 5.42668 4.71632 5.68975 4.61452C5.88775 4.5373 6.18592 4.44595 6.73434 4.42102C7.32726 4.39375 7.50537 4.38831 9.00684 4.38831C10.5083 4.38831 10.6866 4.3942 11.28 4.42102C11.8284 4.446 12.126 4.53803 12.3246 4.61452C12.5872 4.71632 12.7746 4.83853 12.9716 5.03527C13.1686 5.23202 13.2901 5.41966 13.3924 5.68228C13.4696 5.88028 13.5609 6.17845 13.5859 6.72687C13.6131 7.32028 13.6186 7.4979 13.6186 9.00004C13.6186 10.5022 13.6131 10.6798 13.5859 11.2732C13.5609 11.8216 13.4691 12.1197 13.3924 12.3178C13.2901 12.5804 13.1683 12.7678 12.9716 12.9644C12.7749 13.1609 12.5872 13.2829 12.3246 13.3851C12.1266 13.4623 11.8284 13.5537 11.28 13.5786C10.6871 13.6059 10.509 13.6113 9.00684 13.6113C7.50469 13.6113 7.32708 13.6059 6.73434 13.5786ZM6.68776 3.40907C6.08895 3.43633 5.67976 3.53128 5.32242 3.67033C4.95234 3.81393 4.63905 4.00657 4.32598 4.31914C4.01292 4.63171 3.82077 4.9455 3.67717 5.31558C3.53812 5.67315 3.44317 6.08211 3.4159 6.68092C3.38818 7.28068 3.38184 7.47243 3.38184 9C3.38184 10.5276 3.38818 10.7193 3.4159 11.3191C3.44317 11.9179 3.53812 12.3268 3.67717 12.6844C3.82077 13.0543 4.01296 13.3684 4.32598 13.6809C4.639 13.9933 4.95234 14.1857 5.32242 14.3297C5.68044 14.4687 6.08895 14.5637 6.68776 14.5909C7.28784 14.6182 7.47927 14.625 9.00684 14.625C10.5344 14.625 10.7262 14.6187 11.3259 14.5909C11.9248 14.5637 12.3337 14.4687 12.6913 14.3297C13.0611 14.1857 13.3746 13.9934 13.6877 13.6809C14.0008 13.3683 14.1925 13.0543 14.3365 12.6844C14.4756 12.3268 14.571 11.9179 14.5978 11.3191C14.625 10.7189 14.6314 10.5276 14.6314 9C14.6314 7.47243 14.625 7.28068 14.5978 6.68092C14.5705 6.08206 14.4756 5.67292 14.3365 5.31558C14.1925 4.94572 14.0003 4.63221 13.6877 4.31914C13.3751 4.00608 13.0611 3.81393 12.6917 3.67033C12.3337 3.53128 11.9247 3.43588 11.3264 3.40907C10.7266 3.3818 10.5349 3.375 9.00729 3.375C7.47972 3.375 7.28784 3.38135 6.68776 3.40907Z" fill="white"/>
</svg>
