<svg width="18" height="18" viewBox="0 0 18 18" fill="none" xmlns="http://www.w3.org/2000/svg">
<rect x="0.00683594" width="18" height="18" rx="9" fill="#419FD9"/>
<rect x="0.00683594" width="18" height="18" rx="9" fill="url(#paint0_linear_1263_8947)"/>
<path d="M4.0521 8.8016C6.66934 7.63735 8.41457 6.8698 9.28781 6.49896C11.7811 5.44013 12.2991 5.2562 12.6368 5.25006C12.7111 5.24879 12.8771 5.26758 12.9847 5.3567C13.0755 5.43195 13.1005 5.5336 13.1125 5.60494C13.1244 5.67628 13.1393 5.83881 13.1275 5.9658C12.9924 7.41526 12.4078 10.9327 12.1103 12.5561C11.9845 13.243 11.7367 13.4734 11.4968 13.4959C10.9754 13.5449 10.5795 13.1441 10.0746 12.8061C9.28439 12.2773 8.83799 11.9481 8.07099 11.432C7.18459 10.8356 7.75921 10.5078 8.26437 9.97212C8.39657 9.83192 10.6937 7.69858 10.7382 7.50505C10.7437 7.48085 10.7489 7.39062 10.6964 7.34298C10.6439 7.29535 10.5664 7.31164 10.5105 7.32459C10.4313 7.34296 9.16895 8.19483 6.72358 9.88022C6.36528 10.1314 6.04074 10.2538 5.74996 10.2474C5.42941 10.2403 4.81278 10.0624 4.35439 9.91022C3.79215 9.72362 3.34529 9.62496 3.3842 9.30805C3.40447 9.14298 3.6271 8.97416 4.0521 8.8016Z" fill="white"/>
<defs>
<linearGradient id="paint0_linear_1263_8947" x1="9.00683" y1="0" x2="9.00683" y2="17.8664" gradientUnits="userSpaceOnUse">
<stop stop-color="#2AABEE"/>
<stop offset="1" stop-color="#229ED9"/>
</linearGradient>
</defs>
</svg>
