<svg width="18" height="18" viewBox="0 0 18 18" fill="none" xmlns="http://www.w3.org/2000/svg">
<rect x="0.00683594" width="18" height="18" rx="9" fill="#5181B8"/>
<path fill-rule="evenodd" clip-rule="evenodd" d="M14.7315 6.20057C14.815 5.92244 14.7315 5.71802 14.3345 5.71802H13.0217C12.6878 5.71802 12.5341 5.89459 12.4506 6.08935C12.4506 6.08935 11.7829 7.71658 10.8372 8.77357C10.5312 9.07955 10.3921 9.17679 10.2252 9.17679C10.1418 9.17679 10.021 9.07955 10.021 8.80142V6.20057C10.021 5.86674 9.92411 5.71802 9.64589 5.71802H7.5829C7.37436 5.71802 7.24889 5.87293 7.24889 6.01978C7.24889 6.33626 7.72169 6.40921 7.77045 7.29929V9.23259C7.77045 9.65644 7.69393 9.73333 7.52702 9.73333C7.08197 9.73333 5.99947 8.0987 5.35732 6.22842C5.23148 5.86486 5.10526 5.71802 4.76975 5.71802H3.45694C3.08185 5.71802 3.00684 5.89459 3.00684 6.08935C3.00684 6.43706 3.45197 8.16171 5.07919 10.4426C6.16414 12.0002 7.69243 12.8447 9.08325 12.8447C9.91782 12.8447 10.021 12.6571 10.021 12.3341V11.1568C10.021 10.7817 10.1 10.7069 10.3642 10.7069C10.559 10.7069 10.8928 10.8042 11.6717 11.5552C12.5618 12.4452 12.7085 12.8447 13.2092 12.8447H14.522C14.8971 12.8447 15.0847 12.6571 14.9764 12.287C14.8581 11.9181 14.4331 11.3831 13.8692 10.7486C13.5632 10.3869 13.1042 9.99748 12.9652 9.80281C12.7705 9.55244 12.8261 9.44123 12.9652 9.2188C12.9652 9.2188 14.5646 6.96565 14.7315 6.20066V6.20057Z" fill="white"/>
</svg>
