<svg width="18" height="18" viewBox="0 0 18 18" fill="none" xmlns="http://www.w3.org/2000/svg">
<rect x="0.00683594" width="18" height="18" rx="9" fill="#0DC143"/>
<path d="M13.0383 4.95431C12.0734 3.96106 10.7396 3.42188 9.37744 3.42188C6.48285 3.42188 4.15582 5.77728 4.1842 8.6435C4.1842 9.5516 4.4396 10.4313 4.86528 11.2259L4.12744 13.9219L6.88014 13.2124C7.64636 13.6381 8.49771 13.8367 9.34906 13.8367C12.2153 13.8367 14.5423 11.4813 14.5423 8.61512C14.5423 7.22458 14.0031 5.91917 13.0383 4.95431ZM9.37744 12.957C8.61123 12.957 7.84501 12.7584 7.19231 12.3611L7.02204 12.2759L5.37609 12.7016L5.80177 11.084L5.68825 10.9138C4.4396 8.8989 5.03555 6.23133 7.07879 4.98269C9.12204 3.73404 11.7612 4.32998 13.0099 6.37323C14.2585 8.41647 13.6626 11.0557 11.6193 12.3043C10.9666 12.73 10.172 12.957 9.37744 12.957ZM11.8747 9.80701L11.5626 9.66512C11.5626 9.66512 11.1085 9.46647 10.8247 9.32458C10.7964 9.32458 10.768 9.2962 10.7396 9.2962C10.6545 9.2962 10.5977 9.32458 10.541 9.35296C10.541 9.35296 10.5126 9.38133 10.1153 9.83539C10.0869 9.89215 10.0301 9.92052 9.97339 9.92052H9.94501C9.91663 9.92052 9.85987 9.89215 9.8315 9.86377L9.6896 9.80701C9.37744 9.66512 9.09366 9.49485 8.86663 9.26782C8.80987 9.21106 8.72474 9.15431 8.66798 9.09755C8.46933 8.8989 8.27068 8.67188 8.12879 8.41647L8.10041 8.35971C8.07204 8.33133 8.07204 8.30296 8.04366 8.2462C8.04366 8.18944 8.04366 8.13269 8.07204 8.10431C8.07204 8.10431 8.18555 7.96242 8.27068 7.87728C8.32744 7.82052 8.35582 7.73539 8.41258 7.67863C8.46933 7.5935 8.49771 7.47998 8.46933 7.39485C8.44095 7.25296 8.10041 6.48674 8.01528 6.31647C7.95852 6.23133 7.90177 6.20296 7.81663 6.17458H7.7315C7.67474 6.17458 7.5896 6.17458 7.50447 6.17458C7.44771 6.17458 7.39095 6.20296 7.3342 6.20296L7.30582 6.23133C7.24906 6.25971 7.19231 6.31647 7.13555 6.34485C7.07879 6.4016 7.05041 6.45836 6.99366 6.51512C6.79501 6.77052 6.6815 7.08269 6.6815 7.39485C6.6815 7.62188 6.73825 7.8489 6.82339 8.04755L6.85177 8.13269C7.10717 8.67188 7.44771 9.15431 7.90177 9.57998L8.01528 9.6935C8.10041 9.77863 8.18555 9.83539 8.24231 9.92052C8.83825 10.4313 9.51933 10.8003 10.2856 10.9989C10.3707 11.0273 10.4842 11.0273 10.5693 11.0557C10.6545 11.0557 10.768 11.0557 10.8531 11.0557C10.995 11.0557 11.1653 10.9989 11.2788 10.9421C11.3639 10.8854 11.4207 10.8854 11.4774 10.8286L11.5342 10.7719C11.591 10.7151 11.6477 10.6867 11.7045 10.63C11.7612 10.5732 11.818 10.5165 11.8464 10.4597C11.9031 10.3462 11.9315 10.2043 11.9599 10.0624C11.9599 10.0057 11.9599 9.92052 11.9599 9.86377C11.9599 9.86377 11.9315 9.83539 11.8747 9.80701Z" fill="white"/>
</svg>
