<svg width="24" height="25" viewBox="0 0 24 25" fill="none" xmlns="http://www.w3.org/2000/svg">
<g clip-path="url(#clip0_258_7927)">
<path d="M16.6992 5.60156C14.9531 5.60156 13.5234 6.66797 12.6094 6.66797C11.6367 6.66797 10.3711 5.60156 8.84766 5.60156C5.95312 5.60156 3.02344 8.0625 3.02344 12.5625C3.02344 15.375 4.10156 18.3398 5.44922 20.25C6.59766 21.8672 7.60547 23.168 9.05859 23.168C10.4883 23.168 11.1211 22.2422 12.9023 22.2422C14.707 22.2422 15.1172 23.168 16.6992 23.168C18.2695 23.168 19.3125 21.7266 20.3086 20.3086C21.4102 18.6797 21.8789 17.0977 21.8906 17.0156C21.7969 16.9922 18.7969 15.7617 18.7969 12.3281C18.7969 9.35156 21.1523 8.01562 21.293 7.91016C19.7344 5.67188 17.3555 5.60156 16.6992 5.60156ZM15.8789 3.70312C16.5938 2.83594 17.0977 1.65234 17.0977 0.457031C17.0977 0.292969 17.0859 0.128906 17.0625 0C15.8906 0.046875 14.4844 0.773438 13.6523 1.75781C12.9844 2.50781 12.375 3.70312 12.375 4.89844C12.375 5.08594 12.4102 5.26172 12.4219 5.32031C12.4922 5.33203 12.6094 5.35547 12.7383 5.35547C13.7812 5.35547 15.0938 4.65234 15.8789 3.70312Z" fill="black"/>
</g>
<defs>
<clipPath id="clip0_258_7927">
<rect width="18.8906" height="24.4805" fill="white" transform="translate(3)"/>
</clipPath>
</defs>
</svg>
