<svg width="45" height="46" viewBox="0 0 45 46" fill="none" xmlns="http://www.w3.org/2000/svg">
<path d="M25.5302 27.1828C25.5302 31.1005 28.8147 33.2775 28.8147 36.7964C28.8147 37.6896 28.6243 38.3993 28.1409 39.2669C27.8876 39.7305 28.0572 40.1367 28.3523 40.3433C28.7119 40.5714 29.2518 40.5511 29.5587 40.0053C30.1462 39.0025 30.4225 37.9451 30.4225 36.7964C30.4225 32.719 27.1225 30.5864 27.1225 27.1828C27.1225 26.2896 27.3284 25.5702 27.8226 24.6909C28.0555 24.2632 27.9111 23.8462 27.5741 23.63C27.2157 23.4136 26.6806 23.4437 26.3892 23.9525C25.7658 24.9407 25.5302 26.0293 25.5302 27.1828ZM21.1395 27.1935C21.1395 31.1005 24.4287 33.2883 24.4287 36.7964C24.4287 37.7003 24.2335 38.4101 23.7393 39.2776C23.4968 39.7305 23.6664 40.1475 23.9663 40.3541C24.3211 40.5714 24.8609 40.5618 25.1679 40.0268C25.7553 39.0133 26.0317 37.9451 26.0317 36.7964C26.0317 32.7297 22.7317 30.5972 22.7317 27.1935C22.7317 26.2896 22.9377 25.5702 23.4211 24.6967C23.6695 24.2739 23.5203 23.8462 23.1881 23.63C22.8249 23.4136 22.2791 23.4437 21.9984 23.9632C21.375 24.9514 21.1395 26.0401 21.1395 27.1935ZM16.7486 27.1828C16.7486 31.1005 20.0379 33.2775 20.0379 36.7964C20.0379 37.6896 19.8426 38.3993 19.3486 39.2669C19.0953 39.7305 19.2756 40.1367 19.5756 40.3433C19.9351 40.5714 20.4749 40.5511 20.7771 40.0053C21.3646 39.0025 21.6409 37.9451 21.6409 36.7964C21.6409 32.719 18.3457 30.5864 18.3457 27.1828C18.3457 26.2896 18.5469 25.5702 19.0302 24.6909C19.2787 24.2632 19.1188 23.8462 18.7973 23.63C18.434 23.4136 17.8931 23.4437 17.5969 23.9525C16.9842 24.9407 16.7486 26.0293 16.7486 27.1828ZM30.1518 27.7103C30.1518 28.0237 30.4233 28.2292 30.7473 28.2077L32.1592 28.1396L31.3846 29.3289C31.2279 29.5837 31.2661 29.9351 31.5424 30.1026C31.8138 30.2759 32.146 30.1455 32.286 29.837L32.9389 28.5737L33.5976 29.8585C33.7387 30.1299 34.059 30.27 34.3461 30.1085C34.6068 29.9625 34.6664 29.5944 34.4883 29.3181L33.7088 28.1396L35.1255 28.2185C35.4388 28.2351 35.7211 28.0344 35.7211 27.7103C35.7211 27.3756 35.4604 27.17 35.1363 27.1915L33.6981 27.2548L34.4883 26.0548C34.6556 25.7785 34.6331 25.4486 34.3461 25.2919C34.059 25.14 33.7483 25.2538 33.5976 25.5359L32.9389 26.7944L32.3064 25.5467C32.1664 25.2538 31.8353 25.1137 31.5424 25.2811C31.2757 25.4318 31.222 25.7785 31.3942 26.0548L32.164 27.2548L30.7473 27.2022C30.4125 27.1915 30.1518 27.3862 30.1518 27.7103ZM11.6758 36.2678C11.6758 36.587 11.9317 36.8033 12.2558 36.7818L13.6881 36.7185L12.8979 37.9185C12.7256 38.184 12.7686 38.5199 13.0352 38.6659C13.333 38.8333 13.6534 38.704 13.7885 38.4266L14.4473 37.1633L15.106 38.4158C15.2353 38.7243 15.5615 38.844 15.8497 38.6922C16.126 38.5414 16.1797 38.184 16.0075 37.9185L15.2377 36.7185L16.6496 36.7759C16.9736 36.7818 17.2295 36.5811 17.2295 36.2678C17.2295 35.9496 16.9629 35.7489 16.6496 35.7656L15.2173 35.8337L15.9919 34.6444C16.1534 34.3896 16.1104 34.043 15.8497 33.8707C15.5831 33.6877 15.2305 33.8278 15.0905 34.1363L14.4473 35.3841L13.7885 34.1148C13.6378 33.8385 13.333 33.7081 13.0352 33.86C12.7697 34.0059 12.7149 34.3789 12.8979 34.6552L13.6773 35.8337L12.2665 35.7596C11.9532 35.7382 11.6758 35.9437 11.6758 36.2678Z" fill="black" fill-opacity="0.85"/>
<path d="M5.7002 8.79053V17.9784C5.7002 20.0096 6.94873 21.2689 8.94778 21.2689H38.1988C40.2027 21.2689 41.4512 20.0096 41.4512 17.9784V8.79053C41.4512 6.75927 40.2027 5.5 38.1988 5.5H8.94778C6.94873 5.5 5.7002 6.75927 5.7002 8.79053ZM7.62629 8.83239C7.62629 7.94153 8.15246 7.42609 9.05405 7.42609H38.0974C38.999 7.42609 39.5252 7.94153 39.5252 8.83239V17.9365C39.5252 18.8273 38.999 19.3428 38.0974 19.3428H9.05405C8.15246 19.3428 7.62629 18.8273 7.62629 17.9365V8.83239ZM29.7889 16.8489C29.7889 17.2507 30.113 17.564 30.5148 17.564H36.5976C36.9994 17.564 37.3235 17.2507 37.3235 16.8489C37.3235 16.4362 36.9994 16.1229 36.5976 16.1229H30.5148C30.113 16.1229 29.7889 16.4362 29.7889 16.8489ZM29.7889 13.7211C29.7889 14.1122 30.113 14.4363 30.5148 14.4363H36.5976C36.9994 14.4363 37.3235 14.1122 37.3235 13.7211C37.3235 13.3085 36.9994 12.9844 36.5976 12.9844H30.5148C30.113 12.9844 29.7889 13.3085 29.7889 13.7211ZM19.9188 16.8489C19.9188 17.2507 20.2322 17.564 20.6448 17.564H26.7227C27.1187 17.564 27.4427 17.2507 27.4427 16.8489C27.4427 16.4362 27.1187 16.1229 26.7227 16.1229H20.6448C20.2322 16.1229 19.9188 16.4362 19.9188 16.8489ZM19.9188 13.7211C19.9188 14.1122 20.2322 14.4363 20.6448 14.4363H26.7227C27.1187 14.4363 27.4427 14.1122 27.4427 13.7211C27.4427 13.3085 27.1187 12.9844 26.7227 12.9844H20.6448C20.2322 12.9844 19.9188 13.3085 19.9188 13.7211ZM10.0225 16.8489C10.0225 17.2507 10.3466 17.564 10.7377 17.564H16.8205C17.2331 17.564 17.5464 17.2507 17.5464 16.8489C17.5464 16.4362 17.2331 16.1229 16.8205 16.1229H10.7377C10.3466 16.1229 10.0225 16.4362 10.0225 16.8489ZM10.0225 13.7211C10.0225 14.1122 10.3466 14.4363 10.7377 14.4363H16.8205C17.2331 14.4363 17.5464 14.1122 17.5464 13.7211C17.5464 13.3085 17.2331 12.9844 16.8205 12.9844H10.7377C10.3466 12.9844 10.0225 13.3085 10.0225 13.7211Z" fill="black" fill-opacity="0.85"/>
</svg>
