<svg width="30" height="38" viewBox="0 0 30 38" fill="none" xmlns="http://www.w3.org/2000/svg">
<path d="M3 20.5H27V35.5C27 36.052 26.552 36.5 26 36.5H4C3.448 36.5 3 36.052 3 35.5V20.5Z" stroke="#3C3C3C" stroke-width="2"/>
<path d="M30 20.5H27" stroke="#3C3C3C" stroke-width="2"/>
<path d="M3 20.5H0" stroke="#3C3C3C" stroke-width="2"/>
<path d="M8.5 8.5C6.019 8.5 4 10.519 4 13C4 15.137 5.5 16.923 7.5 17.38V15.289C6.619 14.902 6 14.023 6 13C6 11.622 7.122 10.5 8.5 10.5C9.878 10.5 11 11.622 11 13C11 14.023 10.381 14.902 9.5 15.289V17.38C11.5 16.923 13 15.137 13 13C13 10.519 10.981 8.5 8.5 8.5Z" fill="#3C3C3C"/>
<path d="M3 20.5C3 18.291 4.791 16.5 7 16.5H6.737H7.434" stroke="#3C3C3C" stroke-width="2"/>
<path d="M9.60156 16.5H10.3416C11.4026 16.5 12.4206 16.921 13.1706 17.671L20.9996 25.5" stroke="#3C3C3C" stroke-width="2"/>
<path d="M26.869 -14.375C26.874 -9.54204 22.875 -8.29204 22.875 -3.37504C22.875 1.54196 26.874 2.79196 26.869 7.62496C26.864 12.458 22.875 13.792 22.875 18.625M26.869 -36.441C26.874 -31.608 22.875 -30.358 22.875 -25.441C22.875 -20.524 26.874 -19.274 26.869 -14.441V-14.375C26.874 -9.54204 22.875 -8.29204 22.875 -3.37504C22.875 1.54196 26.874 2.79196 26.869 7.62496C26.864 12.458 22.875 13.792 22.875 18.625" stroke="#3C3C3C" stroke-width="2" stroke-linejoin="round"/>
<path d="M22.6698 -15.575C22.6748 -10.742 18.6758 -9.49199 18.6758 -4.57499C18.6758 0.34201 22.6748 1.59201 22.6698 6.42501C22.6648 11.258 18.6758 12.592 18.6758 17.425M22.6698 -37.641C22.6748 -32.808 18.6758 -31.558 18.6758 -26.641C18.6758 -21.724 22.6748 -20.474 22.6698 -15.641V-15.575C22.6748 -10.742 18.6758 -9.49199 18.6758 -4.57499C18.6758 0.34201 22.6748 1.59201 22.6698 6.42501C22.6648 11.258 18.6758 12.592 18.6758 17.425" stroke="#3C3C3C" stroke-width="2" stroke-linejoin="round"/>
</svg>
