<svg width="45.000000" height="45.000000" viewBox="0 0 45 45" fill="none" xmlns="http://www.w3.org/2000/svg" xmlns:xlink="http://www.w3.org/1999/xlink">
	<desc>
			Created with Pixso.
	</desc>
	<defs>
		<clipPath id="clip442_5489">
			<rect id="Hot tub" rx="0.000000" width="44.000000" height="44.000000" transform="translate(0.500000 0.500000)" fill="white" fill-opacity="0"/>
		</clipPath>
	</defs>
	<g clip-path="url(#clip442_5489)">
		<path id="Vector" d="M35 20.5L35 35.5C35 36.05 34.55 36.5 34 36.5L12 36.5C11.44 36.5 11 36.05 11 35.5L11 20.5L35 20.5Z" stroke="#3C3C3C" stroke-opacity="1.000000" stroke-width="2.000000"/>
		<path id="Vector" d="M38 20.5L35 20.5" stroke="#3C3C3C" stroke-opacity="1.000000" stroke-width="2.000000"/>
		<path id="Vector" d="M11 20.5L8 20.5" stroke="#3C3C3C" stroke-opacity="1.000000" stroke-width="2.000000"/>
		<path id="Vector" d="M16.5 8.5C14.01 8.5 12 10.51 12 13C12 15.13 13.5 16.92 15.5 17.37L15.5 15.28C14.61 14.9 14 14.02 14 13C14 11.62 15.12 10.5 16.5 10.5C17.87 10.5 19 11.62 19 13C19 14.02 18.38 14.9 17.5 15.28L17.5 17.37C19.5 16.92 21 15.13 21 13C21 10.51 18.98 8.5 16.5 8.5Z" fill="#3C3C3C" fill-opacity="1.000000" fill-rule="nonzero"/>
		<path id="Vector" d="M11 20.5C11 18.29 12.79 16.5 15 16.5L14.73 16.5L15.43 16.5" stroke="#3C3C3C" stroke-opacity="1.000000" stroke-width="2.000000"/>
		<path id="Vector" d="M17.6 16.5L18.34 16.5C19.4 16.5 20.42 16.92 21.17 17.67L28.99 25.5" stroke="#3C3C3C" stroke-opacity="1.000000" stroke-width="2.000000"/>
		<path id="Vector" d="M34.86 -36.45C34.87 -31.61 30.87 -30.36 30.87 -25.45C30.87 -20.53 34.87 -19.28 34.86 -14.45L34.86 -14.38C34.87 -9.55 30.87 -8.3 30.87 -3.38C30.87 1.54 34.87 2.79 34.86 7.62C34.86 12.45 30.87 13.79 30.87 18.62" stroke="#3C3C3C" stroke-opacity="1.000000" stroke-width="2.000000" stroke-linejoin="round"/>
		<path id="Vector" d="M30.66 -37.65C30.67 -32.81 26.67 -31.56 26.67 -26.65C26.67 -21.73 30.67 -20.48 30.66 -15.65L30.66 -15.58C30.67 -10.75 26.67 -9.5 26.67 -4.58C26.67 0.34 30.67 1.59 30.66 6.42C30.66 11.25 26.67 12.59 26.67 17.42" stroke="#3C3C3C" stroke-opacity="1.000000" stroke-width="2.000000" stroke-linejoin="round"/>
	</g>
</svg>
