<svg width="26" height="24" viewBox="0 0 26 24" fill="none" xmlns="http://www.w3.org/2000/svg">
<g clip-path="url(#clip0_258_7931)">
<path d="M4.05642 20.9999H21.9434C23.7075 20.9999 24.7422 19.975 24.7422 17.9448V7.06484C24.7422 5.0347 23.6977 4.00977 21.6478 4.00977H3.76076C1.9967 4.00977 0.961914 5.0347 0.961914 7.06484V17.9448C0.961914 19.975 2.00656 20.9999 4.05642 20.9999ZM3.99729 19.4921C3.02163 19.4921 2.46974 18.9501 2.46974 17.935V7.05499C2.46974 6.04977 3.02163 5.5176 3.99729 5.5176H21.697C22.6727 5.5176 23.2344 6.04977 23.2344 7.06484V17.9448C23.2344 18.9501 22.6727 19.4921 21.697 19.4921H3.99729ZM12.8471 15.0967C13.4779 15.0967 14.0889 14.8603 14.6506 14.3478L23.9243 6.0005L22.8993 4.96571L13.7932 13.175C13.4877 13.451 13.1724 13.579 12.8471 13.579C12.5219 13.579 12.2066 13.451 11.9011 13.175L2.79496 4.96571L1.77003 6.0005L11.0437 14.3478C11.6054 14.8603 12.2164 15.0967 12.8471 15.0967ZM2.94279 19.7385L9.93992 12.7315L8.91498 11.7066L1.91786 18.7037L2.94279 19.7385ZM22.7712 19.7484L23.7961 18.7136L16.7892 11.7066L15.7544 12.7315L22.7712 19.7484Z" fill="black"/>
</g>
<defs>
<clipPath id="clip0_258_7931">
<rect width="24.076" height="17" fill="white" transform="translate(0.961914 4)"/>
</clipPath>
</defs>
</svg>
