<svg width="27" height="33" viewBox="0 0 27 33" fill="none" xmlns="http://www.w3.org/2000/svg">
<path d="M13.6914 1.75C20.3184 1.75 25.6914 7.612 25.6914 13.474C25.6914 18.27 24.0634 23.029 20.8064 27.75H6.57641C3.31941 23.029 1.69141 18.27 1.69141 13.474C1.69141 6.999 7.06441 1.75 13.6914 1.75Z" stroke="#3C3C3C" stroke-width="2"/>
<path d="M13.6914 18.375C15.0034 18.375 16.0664 19.438 16.0664 20.75C16.0664 22.062 15.0034 23.125 13.6914 23.125C12.3794 23.125 11.3164 22.062 11.3164 20.75C11.3164 19.438 12.3794 18.375 13.6914 18.375Z" stroke="#3C3C3C" stroke-width="2"/>
<path d="M21.6914 13.75C21.6914 9.332 18.1094 5.75 13.6914 5.75C9.27341 5.75 5.69141 9.332 5.69141 13.75C16.3584 13.75 21.6914 13.75 21.6914 13.75Z" stroke="#3C3C3C" stroke-width="2"/>
<path d="M13.6914 13.75L16.6914 9.75" stroke="#3C3C3C" stroke-width="2" stroke-linejoin="round"/>
<path d="M13.6914 28.75V32.75" stroke="#3C3C3C" stroke-width="2"/>
</svg>
