<svg width="30" height="26" viewBox="0 0 30 26" fill="none" xmlns="http://www.w3.org/2000/svg">
<path d="M11.8616 22.0214H17.7926V23.9984H11.8616V22.0214ZM7.90757 23.9984V25.9754H21.7466V23.9984H19.7696V22.0214L20.8398 22.0175L21.0546 22.0122C23.6854 21.9002 23.5417 20.8181 20.8833 20.8181L8.47827 20.8273C5.84754 20.9394 5.98988 22.0214 8.64829 22.0214H9.88457V23.9984H7.90757Z" fill="#3C3C3C"/>
<path d="M4.9425 2.25154H24.7125L24.8865 2.25681C26.443 2.34643 27.678 3.63807 27.678 5.21704V17.079L27.6727 17.253C27.5831 18.8096 26.2915 20.0445 24.7125 20.0445H4.9425L4.76852 20.0393C3.21197 19.9496 1.977 18.658 1.977 17.079V5.21704L1.98227 5.04306C2.0719 3.4865 3.36354 2.25154 4.9425 2.25154ZM19.77 22.0215H24.7125L24.9273 22.0176C27.5581 21.9056 29.655 19.7374 29.655 17.079V5.21704L29.651 5.0022C29.539 2.37147 27.3709 0.274536 24.7125 0.274536H4.9425L4.72767 0.27849C2.09694 0.390521 0 2.55863 0 5.21704V17.079L0.00395434 17.2939C0.115984 19.9246 2.28409 22.0215 4.9425 22.0215H9.885H19.77Z" fill="#3C3C3C"/>
</svg>
