<svg width="21" height="20" viewBox="0 0 21 20" fill="none" xmlns="http://www.w3.org/2000/svg">
<g clip-path="url(#clip0_503_288)">
<path d="M9.96094 19.4092C12.6758 19.4092 14.8926 15.3955 14.8926 10.0147C14.8926 4.60451 12.6855 0.59084 9.96094 0.59084C7.23633 0.59084 5.0293 4.60451 5.0293 10.0147C5.0293 15.3955 7.24609 19.4092 9.96094 19.4092ZM9.96094 1.77248C11.875 1.77248 13.584 5.58108 13.584 10.0147C13.584 14.3701 11.875 18.2178 9.96094 18.2178C8.04688 18.2178 6.33789 14.3701 6.33789 10.0147C6.33789 5.58108 8.04688 1.77248 9.96094 1.77248ZM9.32617 0.727558V19.2237H10.6055V0.727558H9.32617ZM9.96094 13.667C6.95312 13.667 4.28711 14.458 2.91992 15.7178L3.90625 16.5283C5.19531 15.503 7.29492 14.9463 9.96094 14.9463C12.627 14.9463 14.7266 15.503 16.0156 16.5283L17.002 15.7178C15.6348 14.458 12.9688 13.667 9.96094 13.667ZM18.9746 9.35061H0.947266V10.6299H18.9746V9.35061ZM9.96094 6.37209C12.9688 6.37209 15.6348 5.58108 17.002 4.32131L16.0156 3.51076C14.7266 4.52639 12.627 5.09279 9.96094 5.09279C7.29492 5.09279 5.19531 4.52639 3.90625 3.51076L2.91992 4.32131C4.28711 5.58108 6.95312 6.37209 9.96094 6.37209ZM9.96094 19.9561C15.459 19.9561 19.9219 15.4932 19.9219 9.99514C19.9219 4.49709 15.459 0.0341988 9.96094 0.0341988C4.46289 0.0341988 0 4.49709 0 9.99514C0 15.4932 4.46289 19.9561 9.96094 19.9561ZM9.96094 18.628C5.19531 18.628 1.32812 14.7608 1.32812 9.99514C1.32812 5.22951 5.19531 1.36232 9.96094 1.36232C14.7266 1.36232 18.5938 5.22951 18.5938 9.99514C18.5938 14.7608 14.7266 18.628 9.96094 18.628Z" fill="#5C5C5C"/>
</g>
<defs>
<clipPath id="clip0_503_288">
<rect width="20.2832" height="19.9316" fill="white" transform="translate(0 0.0341988)"/>
</clipPath>
</defs>
</svg>
