<svg width="93" height="44" viewBox="0 0 93 44" fill="none" xmlns="http://www.w3.org/2000/svg">
<path d="M26.1348 43.0824C25.9269 43.4494 25.4903 43.7553 24.8249 44C24.5339 43.8777 24.2636 43.7247 24.0141 43.5412C23.8062 43.3883 23.5359 43.2659 23.2032 43.1741C22.9537 42.8071 22.7666 42.593 22.6419 42.5318C22.5171 42.44 22.3716 42.3789 22.2052 42.3483C21.9557 42.1953 21.7478 42.0118 21.5815 41.7977C21.4152 41.5836 21.228 41.4001 21.0201 41.2471C20.937 41.2165 20.7706 41.1248 20.5211 40.9718C20.3132 40.7883 20.0845 40.6048 19.835 40.4213C19.5855 40.2377 19.3568 40.0695 19.1489 39.9166C18.941 39.7331 18.8162 39.6413 18.7746 39.6413C18.4004 39.4578 18.0677 39.2589 17.7767 39.0448C17.6935 38.9531 17.5895 38.8613 17.4648 38.7696C17.3816 38.6472 17.2985 38.5554 17.2153 38.4943C16.8826 38.4025 16.6123 38.2802 16.4044 38.1272C16.1965 37.9437 15.9886 37.7449 15.7807 37.5308C15.6144 37.3167 15.4064 37.1331 15.1569 36.9802C14.949 36.7967 14.6995 36.659 14.4085 36.5673C14.1174 36.2614 13.7639 36.0167 13.3481 35.8332C12.9323 35.619 12.5788 35.3743 12.2877 35.0991C12.0382 34.8849 11.7679 34.6861 11.4769 34.5026C11.1858 34.2885 10.8739 34.0897 10.5412 33.9062C10.3749 33.7226 10.1046 33.4626 9.73038 33.1262C9.35614 32.7591 9.02347 32.5603 8.73239 32.5297C8.69081 33.2332 8.64923 33.9367 8.60765 34.6403C8.60765 35.3438 8.58685 36.0473 8.54527 36.7508C8.54527 37.1178 8.54527 37.5002 8.54527 37.8978C8.58685 38.2954 8.58685 38.6931 8.54527 39.0907C8.50369 39.2437 8.44131 39.4119 8.35815 39.5954C8.31657 39.7483 8.29577 39.9166 8.29577 40.1001C8.29577 40.4672 8.25419 40.7119 8.17103 40.8342C8.12944 40.926 8.08786 41.0177 8.04628 41.1095C7.92153 41.4154 7.79678 41.7977 7.67203 42.2565C7.58887 42.6847 7.38095 43.0212 7.04829 43.2659C6.59088 43.2965 6.23742 43.2659 5.98793 43.1741C5.90476 43.2353 5.8216 43.2965 5.73843 43.3577C5.65526 43.4188 5.53052 43.4494 5.36419 43.4494C5.28102 43.3883 5.13548 43.3271 4.92757 43.2659C4.76123 43.2353 4.63649 43.22 4.55332 43.22C4.34541 43.22 4.1167 43.2506 3.8672 43.3118C3.65929 43.373 3.45138 43.4035 3.24346 43.4035C3.03555 43.4035 2.84842 43.3577 2.68209 43.2659C2.55734 43.2047 2.39101 43.1741 2.1831 43.1741C2.05835 43.1741 1.91281 43.22 1.74648 43.3118C1.58015 43.4035 1.41382 43.4494 1.24748 43.4494C1.03957 43.4494 0.852448 43.4188 0.686117 43.3577C0.561368 43.3271 0.415828 43.2965 0.249497 43.2659C0.249497 43.1741 0.249497 43.0824 0.249497 42.9906C0.29108 42.8989 0.29108 42.8071 0.249497 42.7153L0 41.5683C0.0415828 41.3542 0.0831657 41.1401 0.124748 40.926C0.207914 40.7119 0.270288 40.513 0.311871 40.3295C0.353454 39.8401 0.374245 39.3813 0.374245 38.9531C0.415828 38.4943 0.43662 38.0355 0.43662 37.5766C0.43662 36.7814 0.415828 36.0014 0.374245 35.2367C0.374245 34.472 0.395037 33.692 0.43662 32.8968C0.478203 32.6215 0.519785 32.3462 0.561368 32.0709C0.644534 31.765 0.686117 31.4745 0.686117 31.1992C0.686117 30.4039 0.748491 29.6239 0.873239 28.8592C0.997988 28.0945 1.10195 27.3146 1.18511 26.5193C1.26828 25.9075 1.30986 25.3111 1.30986 24.7299C1.30986 24.1488 1.30986 23.5676 1.30986 22.9864C1.30986 21.8547 1.28907 20.7383 1.24748 19.6371C1.2059 18.5054 1.18511 17.3889 1.18511 16.2878C1.18511 15.9208 1.2059 15.4314 1.24748 14.8196C1.28907 14.1773 1.24748 13.6879 1.12274 13.3514C1.16432 12.4644 1.16432 11.5926 1.12274 10.7362C1.28907 10.675 1.37223 10.5832 1.37223 10.4609C1.41382 10.3385 1.43461 10.2162 1.43461 10.0938V9.45151C1.80885 9.14564 2.12072 8.9927 2.37022 8.9927C2.57814 8.9927 2.78605 9.00799 2.99396 9.03858C3.20188 9.06917 3.40979 9.13034 3.61771 9.22211C4.15828 9.13034 4.51174 9.11505 4.67807 9.17623C4.8444 9.2374 5.03152 9.29858 5.23944 9.35975C5.5721 9.32916 5.80081 9.22211 5.92555 9.03858C6.38296 9.09976 6.61167 9.17623 6.61167 9.26799C6.61167 9.35975 6.65325 9.45151 6.73642 9.54327C7.15225 9.57386 7.42254 9.55857 7.54728 9.49739C7.71361 9.40563 7.90074 9.34446 8.10865 9.31387C8.4829 9.37504 8.73239 9.45151 8.85714 9.54327C8.85714 9.7268 8.91952 9.94091 9.04427 10.1856C9.16901 10.3997 9.23139 10.6903 9.23139 11.0574C9.23139 11.3326 9.2106 11.6079 9.16901 11.8832C9.12743 12.1279 9.10664 12.3726 9.10664 12.6173C9.10664 13.0455 9.12743 13.4585 9.16901 13.8561C9.2106 14.2537 9.23139 14.6667 9.23139 15.0949C9.23139 15.2172 9.2106 15.3396 9.16901 15.4619C9.16901 15.5537 9.16901 15.6608 9.16901 15.7831C9.16901 16.9454 9.2106 18.123 9.29376 19.316C9.37693 20.5089 9.41851 21.7018 9.41851 22.8947C9.41851 22.9559 9.39772 23.0476 9.35614 23.17C9.31455 23.2617 9.33535 23.3382 9.41851 23.3994C10.1254 22.8488 10.7284 22.2676 11.2274 21.6559C11.7264 21.0136 12.2669 20.3865 12.8491 19.7748C13.3481 19.316 13.8471 18.7654 14.3461 18.123C14.8867 17.4807 15.3441 16.8995 15.7183 16.3796C15.8846 16.196 16.0302 16.0125 16.1549 15.829C16.2797 15.6455 16.4252 15.4619 16.5915 15.2784C16.6747 15.1255 16.7787 14.9878 16.9034 14.8655C17.0698 14.7125 17.1945 14.5443 17.2777 14.3608C17.4856 14.1161 17.6727 13.8867 17.839 13.6726C18.0054 13.4279 18.1925 13.1832 18.4004 12.9385C18.6083 12.6938 18.8162 12.4797 19.0241 12.2961C19.2736 12.082 19.5023 11.8679 19.7103 11.6538C20.0429 11.2562 20.3964 10.8585 20.7706 10.4609C21.1449 10.0327 21.4775 9.60445 21.7686 9.17623C22.1844 9.02329 22.5587 8.85506 22.8913 8.67153C23.224 8.45742 23.5775 8.2739 23.9517 8.12096C24.3675 8.5186 24.6586 8.79388 24.8249 8.94682C25.0329 9.09976 25.3032 9.19152 25.6358 9.22211C25.719 9.31387 25.7606 9.42092 25.7606 9.54327C25.8021 9.66562 25.8853 9.75739 26.0101 9.81856C26.5091 9.84915 26.8001 9.84915 26.8833 9.81856C27.008 9.9715 27.1744 10.0938 27.3823 10.1856C27.6318 10.2468 27.8605 10.308 28.0684 10.3691C28.0684 10.4609 28.0684 10.568 28.0684 10.6903C28.0684 10.7821 28.0892 10.8585 28.1308 10.9197C28.6298 11.0726 28.8793 11.3632 28.8793 11.7914C28.0892 12.8314 27.216 13.8255 26.2596 14.7737C25.3447 15.6913 24.5339 16.6854 23.827 17.756C23.619 18.0925 23.3696 18.4136 23.0785 18.7195C22.829 19.0254 22.6211 19.3465 22.4547 19.683C22.1636 19.8971 21.9349 20.1265 21.7686 20.3712C21.6023 20.5853 21.3944 20.7994 21.1449 21.0136C20.9785 21.1665 20.8122 21.3347 20.6459 21.5182C20.4795 21.6712 20.3132 21.8241 20.1469 21.9771C19.8142 22.3135 19.5023 22.6653 19.2113 23.0323C18.9618 23.3688 18.6499 23.7052 18.2757 24.0417C18.0262 24.3476 17.7351 24.6535 17.4024 24.9593C17.0698 25.2958 16.7787 25.6781 16.5292 26.1064C16.3213 26.504 16.051 26.871 15.7183 27.2075C15.3856 27.5746 15.1985 27.8498 15.1569 28.0334C15.1569 28.1863 15.053 28.4616 14.8451 28.8592C15.1362 29.1957 15.4688 29.5016 15.8431 29.7769C16.2173 30.0521 16.6123 30.3121 17.0282 30.5568C17.3608 30.8933 17.7351 31.1992 18.1509 31.4745C18.6083 31.7192 19.0657 31.9944 19.5231 32.3003C19.6895 32.4227 19.835 32.545 19.9598 32.6674C20.0845 32.7591 20.23 32.8509 20.3964 32.9426C20.8538 33.3097 21.3944 33.6615 22.0181 33.9979C22.6834 34.3344 23.3072 34.6555 23.8893 34.9614C24.3467 35.2673 24.9081 35.6496 25.5734 36.1084C26.2803 36.5367 27.008 37.0108 27.7565 37.5308C28.505 38.0202 29.1704 38.4943 29.7525 38.9531C30.3347 39.3813 30.6258 39.6566 30.6258 39.7789C30.4178 40.2377 30.1683 40.5283 29.8773 40.6507C29.6278 40.7424 29.4406 40.8954 29.3159 41.1095C29.0664 41.1707 28.9417 41.2318 28.9417 41.293C28.9417 41.3542 28.8793 41.4612 28.7545 41.6142C28.4634 41.7671 28.214 41.9506 28.006 42.1648C27.7981 42.3483 27.5902 42.5318 27.3823 42.7153C27.216 42.7765 27.0496 42.8377 26.8833 42.8989C26.7586 42.9294 26.6546 43.0059 26.5714 43.1283L26.1348 43.0824Z" fill="#00B2A9"/>
<path d="M64.1207 24.7758C64.0376 24.8982 63.9544 25.0205 63.8712 25.1429C63.7881 25.2346 63.7257 25.3417 63.6841 25.464C63.8504 25.5864 63.996 25.724 64.1207 25.877C64.2871 25.9993 64.3702 26.1369 64.3702 26.2899C64.3702 26.4122 64.3286 26.5346 64.2455 26.6569C64.2039 26.7487 64.2039 26.8405 64.2455 26.9322C64.0791 27.1463 63.892 27.3452 63.6841 27.5287C63.5178 27.7122 63.393 27.911 63.3099 28.1251C63.1435 28.2475 62.998 28.3698 62.8732 28.4922C62.7901 28.6145 62.7069 28.7369 62.6237 28.8592C62.4158 28.9204 62.2703 29.0275 62.1871 29.1804C62.1455 29.3027 62.0416 29.4098 61.8753 29.5016C61.8337 29.6239 61.6258 29.9145 61.2515 30.3733C60.8773 30.8321 60.4614 31.3215 60.004 31.8415C59.5466 32.3615 59.11 32.8662 58.6942 33.3556C58.2783 33.845 57.9873 34.1661 57.8209 34.3191C57.7378 34.472 57.6338 34.5944 57.5091 34.6861C57.4259 34.7779 57.3219 34.8849 57.1972 35.0073C57.114 35.0991 57.0516 35.2061 57.0101 35.3285C56.9685 35.4202 56.9061 35.4967 56.8229 35.5579C56.7398 35.6802 56.6358 35.7873 56.5111 35.879C56.4279 35.9708 56.3447 36.0932 56.2616 36.2461C55.8457 36.6437 55.4299 37.1178 55.0141 37.6684C54.5983 38.219 54.2032 38.7084 53.829 39.1366C53.6211 39.3813 53.4131 39.626 53.2052 39.8707C53.0389 40.1154 52.8518 40.3601 52.6439 40.6048C52.436 40.8495 52.228 41.0789 52.0201 41.293C51.8122 41.5071 51.6043 41.7365 51.3964 41.9812C51.0637 42.1648 50.7726 42.3942 50.5231 42.6694C50.2736 42.9141 49.9826 43.1283 49.6499 43.3118C49.1093 43.3118 48.7767 43.1283 48.6519 42.7612C48.1113 42.6694 47.841 42.6694 47.841 42.7612C47.841 42.853 47.841 42.9294 47.841 42.9906C47.6747 43.0518 47.55 43.1436 47.4668 43.2659C47.4252 43.3883 47.3213 43.48 47.1549 43.5412C46.8223 43.48 46.5312 43.373 46.2817 43.22C46.0738 43.0977 45.7619 43.0518 45.3461 43.0824C45.1797 42.8989 44.9926 42.7459 44.7847 42.6236C44.5768 42.4706 44.3897 42.3177 44.2233 42.1648C44.1402 41.9812 44.0154 41.8283 43.8491 41.7059C43.7243 41.5836 43.5996 41.4612 43.4748 41.3389C43.3501 41.186 43.2254 41.0483 43.1006 40.926C42.9759 40.8036 42.8511 40.6813 42.7264 40.5589C42.4353 40.2836 42.1442 40.0236 41.8531 39.7789C41.6036 39.5037 41.3749 39.2284 41.167 38.9531C40.8343 38.586 40.5017 38.219 40.169 37.8519C39.8779 37.4543 39.5661 37.0719 39.2334 36.7049C39.0671 36.5214 38.9007 36.3379 38.7344 36.1543C38.5681 35.9708 38.4225 35.7873 38.2978 35.6038C38.2146 35.4508 38.0899 35.2673 37.9235 35.0532C37.7988 34.8391 37.6325 34.7014 37.4245 34.6403C37.3414 34.3955 37.1958 34.212 36.9879 34.0897C36.78 33.9673 36.5721 33.8144 36.3642 33.6309C36.0731 33.3862 35.8028 33.1262 35.5533 32.8509C35.3038 32.545 35.0543 32.2391 34.8048 31.9333C33.9732 31.0768 33.1831 30.2357 32.4346 29.4098C31.7277 28.5839 31.0208 27.7275 30.3139 26.8405C30.5218 26.3511 30.6258 25.984 30.6258 25.7393C30.6258 25.4946 30.7297 25.2958 30.9376 25.1429C30.9376 25.0205 30.9792 24.837 31.0624 24.5923C31.603 23.9194 32.1227 23.3076 32.6217 22.757C33.0791 22.2371 33.391 21.8088 33.5573 21.4724C33.7653 21.1359 33.9732 20.7842 34.1811 20.4171C34.389 20.3253 34.5553 20.2183 34.6801 20.0959C34.8048 19.943 34.9712 19.8054 35.1791 19.683C35.2622 19.3465 35.4494 19.0713 35.7404 18.8571C36.0315 18.6124 36.2186 18.3219 36.3018 17.9854C36.6761 17.7713 36.884 17.5266 36.9256 17.2513C37.4661 16.976 37.7988 16.609 37.9235 16.1502C38.2562 15.9055 38.5265 15.6302 38.7344 15.3243C38.9839 15.0184 39.2126 14.6973 39.4205 14.3608C39.9195 14.0549 40.3146 13.6573 40.6056 13.1679C40.8551 13.0455 41.0423 12.8773 41.167 12.6632C41.2918 12.4491 41.4581 12.2656 41.666 12.1126C41.9987 11.715 42.2482 11.3938 42.4145 11.1491C42.6224 10.8738 42.8303 10.5985 43.0382 10.3233C43.3293 10.3233 43.5164 10.2468 43.5996 10.0938C43.6828 9.94091 43.8491 9.87974 44.0986 9.91032C44.0986 9.63504 44.2025 9.39034 44.4105 9.17623C44.4936 9.14564 44.6184 9.11505 44.7847 9.08446C44.951 9.02329 45.0342 8.96211 45.0342 8.90094C44.951 8.53389 44.9718 8.31978 45.0966 8.2586C45.2213 8.19743 45.3253 8.13625 45.4085 8.07508C45.8659 8.13625 46.1777 8.18213 46.3441 8.21272C46.5104 8.24331 46.7807 8.35036 47.1549 8.53389C47.5708 8.53389 47.8618 8.59506 48.0282 8.71741C48.1945 8.83976 48.3816 8.93153 48.5895 8.9927C48.7559 9.11505 48.8806 9.2374 48.9638 9.35975C49.0885 9.4821 49.2549 9.57386 49.4628 9.63504C49.7954 9.9715 50.1489 10.3385 50.5231 10.7362C50.8974 11.1338 51.2508 11.5009 51.5835 11.8373C52.0409 12.2961 52.4983 12.7397 52.9557 13.1679C53.4547 13.5655 53.9121 14.009 54.328 14.4984C54.4527 14.6514 54.6814 14.9267 55.0141 15.3243C55.3467 15.6913 55.721 16.089 56.1368 16.5172C56.5527 16.9454 56.9269 17.3431 57.2596 17.7101C57.5922 18.0466 57.8209 18.2454 57.9457 18.3066C58.0704 18.4595 58.3407 18.7501 58.7565 19.1783C59.1724 19.6065 59.609 20.0653 60.0664 20.5547C60.5654 21.0136 61.0436 21.4571 61.501 21.8853C61.9584 22.3135 62.2703 22.5888 62.4366 22.7112C62.894 23.17 63.2267 23.5523 63.4346 23.8582C63.6841 24.1335 63.9128 24.4393 64.1207 24.7758ZM49.837 33.4015C50.2944 32.9426 50.6479 32.5297 50.8974 32.1627C51.1469 31.7956 51.3964 31.4286 51.6459 31.0615C52.0617 30.6945 52.3112 30.4345 52.3944 30.2815C52.4775 30.1286 52.5815 29.9757 52.7062 29.8227C53.0389 29.4557 53.3716 29.0886 53.7042 28.7216C54.0785 28.3545 54.3696 27.9569 54.5775 27.5287C54.827 27.4063 55.0141 27.2534 55.1388 27.0699C55.2636 26.8863 55.4507 26.7181 55.7002 26.5652C55.4507 25.9228 55.1596 25.4334 54.827 25.097C54.4943 24.7299 54.1616 24.3782 53.829 24.0417C53.7042 23.8888 53.5795 23.7358 53.4547 23.5829C53.33 23.43 53.2052 23.277 53.0805 23.1241C52.9142 23.0323 52.7686 22.9406 52.6439 22.8488C52.5607 22.757 52.4567 22.6653 52.332 22.5735C52.2488 22.4206 52.1241 22.2218 51.9577 21.9771C51.7914 21.8241 51.6251 21.6865 51.4588 21.5641C51.2924 21.4418 51.1469 21.2888 51.0221 21.1053C50.8558 20.983 50.6479 20.8147 50.3984 20.6006C50.1489 20.3865 49.8786 20.1571 49.5875 19.9124C49.338 19.6371 49.1093 19.3924 48.9014 19.1783C48.6935 18.9336 48.5272 18.7348 48.4024 18.5819C48.3192 18.4289 48.2361 18.3066 48.1529 18.2148C48.1113 18.0925 48.049 17.9701 47.9658 17.8478C47.7579 17.6336 47.55 17.4501 47.3421 17.2972C47.1341 17.1137 46.9262 16.9148 46.7183 16.7007C46.5936 16.7619 46.4688 16.8078 46.3441 16.8384C46.2609 16.8384 46.1777 16.869 46.0946 16.9301C45.8035 17.3278 45.4708 17.6948 45.0966 18.0313C44.7639 18.3677 44.4313 18.7348 44.0986 19.1324C43.8075 19.4995 43.5164 19.8818 43.2254 20.2795C42.9343 20.6465 42.6432 21.0136 42.3521 21.3806C42.1442 21.5947 41.9363 21.8088 41.7284 22.0229C41.562 22.2065 41.3749 22.4206 41.167 22.6653C40.9591 22.8794 40.772 23.1088 40.6056 23.3535C40.4809 23.5676 40.3146 23.7817 40.1066 23.9958C39.774 24.3017 39.5037 24.577 39.2958 24.8217C39.0879 25.0664 38.8799 25.357 38.672 25.6934C38.7968 25.877 38.9839 26.1369 39.2334 26.4734C39.5245 26.7793 39.8156 27.1005 40.1066 27.4369C40.3977 27.7428 40.6472 28.0334 40.8551 28.3087C41.1046 28.5839 41.2502 28.7675 41.2918 28.8592C41.6244 29.0733 41.8947 29.318 42.1026 29.5933C42.3105 29.838 42.5808 30.0827 42.9135 30.3274C43.0798 30.5721 43.2669 30.7862 43.4748 30.9698C43.6828 31.1533 43.8907 31.3521 44.0986 31.5662C44.3065 31.7803 44.5768 32.1015 44.9095 32.5297C45.2421 32.9274 45.5748 33.3403 45.9074 33.7685C46.2401 34.1967 46.5728 34.5944 46.9054 34.9614C47.2381 35.3285 47.5084 35.5579 47.7163 35.6496C48.1321 35.3132 48.4648 34.9461 48.7143 34.5485C49.0054 34.1203 49.3796 33.7379 49.837 33.4015ZM41.8531 0C42.1026 0.305874 42.2689 0.489399 42.3521 0.550574C42.4769 0.581161 42.5808 0.627042 42.664 0.688217C42.9551 0.779979 43.2254 0.887035 43.4748 1.00938C43.7243 1.2235 43.8283 1.36114 43.7867 1.42231C43.7867 1.4529 43.7867 1.49878 43.7867 1.55996C44.2441 1.7129 44.452 1.80466 44.4105 1.83525C44.4105 1.86583 44.4313 1.89642 44.4728 1.92701C44.6392 2.20229 44.6808 2.44699 44.5976 2.66111C44.556 2.87522 44.4936 3.01286 44.4105 3.07404C44.3689 3.10462 44.161 3.25756 43.7867 3.53285C43.4125 3.77755 42.9759 4.05283 42.4769 4.35871C42.0195 4.63399 41.6036 4.89399 41.2294 5.13869C40.8551 5.38339 40.6472 5.50574 40.6056 5.50574C40.3146 5.53632 40.0443 5.52103 39.7948 5.45985C39.7116 5.36809 39.6492 5.24574 39.6076 5.0928C39.6076 4.93987 39.5037 4.8634 39.2958 4.8634C39.2126 4.77164 39.1502 4.67987 39.1087 4.58811C39.0671 4.46576 39.0047 4.374 38.9215 4.31283C38.672 4.19048 38.4849 4.08342 38.3602 3.99166C38.1107 3.62461 37.9651 3.4105 37.9235 3.34932C37.882 3.28815 37.8196 3.22697 37.7364 3.1658C38.3602 2.61522 38.8592 2.20229 39.2334 1.92701C39.6492 1.65172 40.1066 1.39173 40.6056 1.14703C40.6888 1.02468 40.772 0.932916 40.8551 0.871741C40.9799 0.779979 41.063 0.657629 41.1046 0.504692C41.271 0.443518 41.3749 0.367049 41.4165 0.275287C41.4997 0.152937 41.6452 0.0611748 41.8531 0ZM52.0825 0C52.332 0.305874 52.4983 0.489399 52.5815 0.550574C52.6647 0.581161 52.7478 0.627042 52.831 0.688217C53.1637 0.779979 53.4547 0.887035 53.7042 1.00938C53.9537 1.2235 54.0577 1.36114 54.0161 1.42231C54.0161 1.4529 54.0161 1.49878 54.0161 1.55996C54.4735 1.7129 54.6814 1.80466 54.6398 1.83525C54.6398 1.86583 54.6606 1.89642 54.7022 1.92701C54.8685 2.20229 54.9101 2.44699 54.827 2.66111C54.7854 2.87522 54.723 3.01286 54.6398 3.07404C54.5983 3.10462 54.3903 3.25756 54.0161 3.53285C53.6419 3.77755 53.2052 4.05283 52.7062 4.35871C52.2488 4.63399 51.833 4.89399 51.4588 5.13869C51.0845 5.38339 50.8766 5.50574 50.835 5.50574C50.4608 5.53632 50.1905 5.52103 50.0241 5.45985C49.941 5.36809 49.8786 5.24574 49.837 5.0928C49.837 4.93987 49.7331 4.8634 49.5252 4.8634C49.442 4.77164 49.3796 4.67987 49.338 4.58811C49.2964 4.46576 49.2341 4.374 49.1509 4.31283C48.9014 4.19048 48.7143 4.08342 48.5895 3.99166C48.34 3.62461 48.1945 3.4105 48.1529 3.34932C48.1113 3.28815 48.049 3.22697 47.9658 3.1658C48.5895 2.61522 49.0885 2.20229 49.4628 1.92701C49.8786 1.65172 50.336 1.39173 50.835 1.14703C50.9182 1.02468 51.0013 0.932916 51.0845 0.871741C51.2093 0.779979 51.2924 0.657629 51.334 0.504692C51.5003 0.443518 51.6043 0.367049 51.6459 0.275287C51.729 0.152937 51.8746 0.0611748 52.0825 0Z" fill="#00B2A9"/>
<path d="M91.9396 35.1449C92.2307 35.4202 92.397 35.6496 92.4386 35.8332C92.5218 35.9861 92.605 36.1543 92.6881 36.3379C92.7713 36.4908 92.8337 36.6437 92.8753 36.7967C92.9584 36.9496 93 37.0414 93 37.0719C93 37.2861 92.9376 37.4696 92.8129 37.6225C92.7297 37.7449 92.5842 37.9131 92.3763 38.1272C90.7129 38.586 89.0704 39.0448 87.4487 39.5037C85.827 39.9319 84.1637 40.3601 82.4588 40.7883C82.0013 40.8801 81.5855 40.9871 81.2113 41.1095C80.837 41.2013 80.4212 41.2777 79.9638 41.3389C79.8806 41.4001 79.7351 41.4612 79.5272 41.5224C79.3608 41.553 79.1529 41.5989 78.9034 41.6601C78.6539 41.7212 78.4044 41.7824 78.1549 41.8436C77.947 41.8742 77.8015 41.8895 77.7183 41.8895C77.3857 41.9506 77.0114 41.9812 76.5956 41.9812C76.2213 41.9506 75.8471 41.9506 75.4728 41.9812C75.2649 42.0118 75.1194 42.0883 75.0362 42.2106C74.9531 42.333 74.8491 42.4706 74.7243 42.6236C74.6412 42.7459 74.4956 42.8683 74.2877 42.9906C74.0798 43.0824 73.7887 43.1283 73.4145 43.1283C73.0402 43.1283 72.666 43.113 72.2918 43.0824C71.9175 43.0518 71.5225 42.9753 71.1066 42.853C71.0235 42.7612 70.9819 42.6542 70.9819 42.5318C71.0235 42.3789 71.0027 42.2565 70.9195 42.1648C70.5453 42.1342 70.2542 42.1648 70.0463 42.2565C69.8384 42.3177 69.6304 42.3636 69.4225 42.3942C69.2978 42.2718 69.1938 42.1342 69.1107 41.9812C69.0691 41.7977 68.9651 41.6448 68.7988 41.5224C68.7572 41.3695 68.7364 41.2165 68.7364 41.0636C68.7364 40.9107 68.7364 40.7577 68.7364 40.6048C68.7364 40.3907 68.7364 40.146 68.7364 39.8707C68.778 39.5648 68.8612 39.3354 68.9859 39.1825C69.1107 37.439 69.173 35.6955 69.173 33.952C69.173 32.178 69.173 30.4192 69.173 28.6757C69.173 28.5228 69.173 28.3087 69.173 28.0334C69.173 27.7275 69.1522 27.4216 69.1107 27.1157C69.1107 26.8099 69.0899 26.5346 69.0483 26.2899C69.0483 26.0146 69.0275 25.8158 68.9859 25.6934C69.0275 25.4793 69.0483 25.2805 69.0483 25.097C69.0483 24.8829 69.0483 24.6688 69.0483 24.4546C69.0483 24.2711 69.0483 24.1029 69.0483 23.9499C69.0483 23.797 69.0067 23.6441 68.9235 23.4911C68.9651 23.3688 68.9859 23.2006 68.9859 22.9864C68.9859 22.8335 68.9651 22.6806 68.9235 22.5276C68.882 22.3747 68.8612 22.2218 68.8612 22.0688C68.8612 21.8241 68.8612 21.5947 68.8612 21.3806C68.9027 21.1359 68.9235 20.8912 68.9235 20.6465C68.9235 19.8512 68.8612 19.0713 68.7364 18.3066C68.6533 17.5113 68.6117 16.716 68.6117 15.9208C68.6117 14.8808 68.5909 13.8408 68.5493 12.8008C68.5493 11.7609 68.5285 10.7209 68.4869 9.68092C68.6533 9.37504 68.7364 9.11505 68.7364 8.90094C69.3186 8.68683 69.776 8.61036 70.1087 8.67153C70.4413 8.73271 70.774 8.7633 71.1066 8.7633C71.3146 8.7633 71.5017 8.748 71.668 8.71741C71.8343 8.68683 72.0007 8.64095 72.167 8.57977C72.3749 8.61036 72.5413 8.65624 72.666 8.71741C72.8323 8.748 73.0195 8.7633 73.2274 8.7633C73.8511 8.67153 74.1838 8.65624 74.2254 8.71741C74.3085 8.77859 74.4125 8.83976 74.5372 8.90094C74.7036 8.87035 74.8283 8.82447 74.9115 8.7633C75.0362 8.67153 75.1818 8.62565 75.3481 8.62565C75.5976 8.62565 75.7847 8.748 75.9095 8.9927C76.0342 9.20681 76.1797 9.39034 76.3461 9.54327C76.3461 9.87974 76.4292 10.1856 76.5956 10.4609C76.6787 11.715 76.6995 12.9538 76.658 14.1773C76.658 15.4008 76.7203 16.6243 76.8451 17.8478C76.8867 18.3983 76.9282 18.9795 76.9698 19.5912C77.053 20.1724 77.0946 20.7383 77.0946 21.2888C77.0946 22.2065 77.0946 23.1394 77.0946 24.0876C77.1362 25.0052 77.1569 25.9381 77.1569 26.8863C77.1569 27.0393 77.1569 27.1769 77.1569 27.2993C77.1985 27.4216 77.2193 27.5593 77.2193 27.7122C77.2193 28.0792 77.1985 28.431 77.1569 28.7675C77.1154 29.1039 77.0946 29.4404 77.0946 29.7769V33.3556C77.0946 33.6615 77.0738 33.9826 77.0322 34.3191C77.0322 34.625 77.053 34.9308 77.0946 35.2367L77.3441 35.7873C77.8015 35.6649 78.2589 35.5426 78.7163 35.4202C79.2153 35.2673 79.7351 35.1602 80.2757 35.0991C80.6083 35.0379 80.9202 34.9767 81.2113 34.9155C81.5023 34.8544 81.8142 34.7932 82.1469 34.732C82.729 34.4873 83.1865 34.3191 83.5191 34.2273C83.8518 34.1356 84.1844 34.0438 84.5171 33.952C85.224 33.7685 85.9101 33.585 86.5755 33.4015C87.2408 33.1873 87.9269 32.9885 88.6338 32.805C88.9665 32.8662 89.2368 32.8356 89.4447 32.7132C89.8605 32.7744 90.2347 32.805 90.5674 32.805C91.0248 33.1415 91.2951 33.4015 91.3783 33.585C91.503 33.7685 91.6693 33.9367 91.8773 34.0897C91.7941 34.2426 91.7941 34.3344 91.8773 34.365C92.002 34.3955 92.0852 34.472 92.1268 34.5944C92.2931 34.6555 92.3139 34.7473 92.1891 34.8697C92.0644 34.9614 91.9812 35.0532 91.9396 35.1449Z" fill="#00B2A9"/>
<path d="M42.3521 0.550574C42.2689 0.489399 42.1026 0.305874 41.8531 0C41.6452 0.0611748 41.4997 0.152937 41.4165 0.275287C41.3749 0.367049 41.271 0.443518 41.1046 0.504692C41.063 0.657629 40.9799 0.779979 40.8551 0.871741C40.772 0.932916 40.6888 1.02468 40.6056 1.14703C40.1066 1.39173 39.6492 1.65172 39.2334 1.92701C38.8592 2.20229 38.3602 2.61522 37.7364 3.1658C37.8196 3.22697 37.882 3.28815 37.9235 3.34932L38.3602 3.99166C38.4849 4.08342 38.672 4.19048 38.9215 4.31283C39.0047 4.374 39.0671 4.46576 39.1087 4.58811C39.1502 4.67987 39.2126 4.77164 39.2958 4.8634C39.5037 4.8634 39.6076 4.93987 39.6076 5.0928C39.6492 5.24574 39.7116 5.36809 39.7948 5.45985C40.0443 5.52103 40.3146 5.53632 40.6056 5.50574C40.6472 5.50574 40.8551 5.38339 41.2294 5.13869C41.6036 4.89399 42.0195 4.63399 42.4769 4.35871C42.9759 4.05283 43.4125 3.77755 43.7867 3.53285L44.4105 3.07404C44.4936 3.01286 44.556 2.87522 44.5976 2.66111C44.6808 2.44699 44.6392 2.20229 44.4728 1.92701C44.4313 1.89642 44.4105 1.86583 44.4105 1.83525C44.452 1.80466 44.2441 1.7129 43.7867 1.55996V1.42231C43.8283 1.36114 43.7243 1.2235 43.4748 1.00938C43.2254 0.887035 42.9551 0.779979 42.664 0.688217C42.5808 0.627042 42.4769 0.581161 42.3521 0.550574Z" fill="#FF6B35"/>
<path d="M52.5815 0.550574C52.4983 0.489399 52.332 0.305874 52.0825 0C51.8746 0.0611748 51.729 0.152937 51.6459 0.275287C51.6043 0.367049 51.5003 0.443518 51.334 0.504692C51.2924 0.657629 51.2093 0.779979 51.0845 0.871741C51.0013 0.932916 50.9182 1.02468 50.835 1.14703C50.336 1.39173 49.8786 1.65172 49.4628 1.92701C49.0885 2.20229 48.5895 2.61522 47.9658 3.1658C48.049 3.22697 48.1113 3.28815 48.1529 3.34932L48.5895 3.99166C48.7143 4.08342 48.9014 4.19048 49.1509 4.31283C49.2341 4.374 49.2964 4.46576 49.338 4.58811C49.3796 4.67987 49.442 4.77164 49.5252 4.8634C49.7331 4.8634 49.837 4.93987 49.837 5.0928C49.8786 5.24574 49.941 5.36809 50.0241 5.45985C50.1905 5.52103 50.4608 5.53632 50.835 5.50574C50.8766 5.50574 51.0845 5.38339 51.4588 5.13869C51.833 4.89399 52.2488 4.63399 52.7062 4.35871C53.2052 4.05283 53.6419 3.77755 54.0161 3.53285L54.6398 3.07404C54.723 3.01286 54.7854 2.87522 54.827 2.66111C54.9101 2.44699 54.8685 2.20229 54.7022 1.92701C54.6606 1.89642 54.6398 1.86583 54.6398 1.83525C54.6814 1.80466 54.4735 1.7129 54.0161 1.55996V1.42231C54.0577 1.36114 53.9537 1.2235 53.7042 1.00938C53.4547 0.887035 53.1637 0.779979 52.831 0.688217C52.7478 0.627042 52.6647 0.581161 52.5815 0.550574Z" fill="#FF6B35"/>
</svg>
