<svg width="20" height="20" viewBox="0 0 20 20" fill="none" xmlns="http://www.w3.org/2000/svg">
<g clip-path="url(#clip0_521_321)">
<path d="M0 8.22704C0 12.7711 3.62795 16.4573 8.09333 16.4573C9.67613 16.4573 11.1338 15.9818 12.3608 15.1753L16.6161 19.5094C16.9409 19.8399 17.375 19.9969 17.8286 19.9969C18.7905 19.9969 19.4907 19.2546 19.4907 18.2863C19.4907 17.8346 19.3295 17.4063 19.0117 17.0831L14.7952 12.7717C15.6733 11.4846 16.1867 9.91945 16.1867 8.22704C16.1867 3.68614 12.5587 0 8.09333 0C3.62795 0 0 3.68614 0 8.22704ZM2.31338 8.22704C2.31338 4.98982 4.90372 2.3525 8.09022 2.3525C11.2829 2.3525 13.8702 4.98982 13.8702 8.22704C13.8702 11.4674 11.2829 14.1048 8.09022 14.1048C4.90372 14.1048 2.31338 11.4674 2.31338 8.22704Z" fill="white"/>
</g>
<defs>
<clipPath id="clip0_521_321">
<rect width="20" height="20" fill="white"/>
</clipPath>
</defs>
</svg>
