<svg width="34" height="21" viewBox="0 0 34 21" fill="none" xmlns="http://www.w3.org/2000/svg">
<g filter="url(#filter0_d_615_6110)">
<rect width="34" height="21" rx="10.5" fill="white" shape-rendering="crispEdges"/>
<g clip-path="url(#clip0_615_6110)">
<path d="M21.0155 9.328C21.3952 9.328 21.7062 9.01995 21.7062 8.64371C21.7062 8.26294 21.3952 7.95942 21.0155 7.95942C20.6312 7.95942 20.3249 8.26294 20.3249 8.64371C20.3249 9.01995 20.6312 9.328 21.0155 9.328ZM11.827 15.6557H21.938C23.1366 15.6557 23.7661 15.0411 23.7661 13.8636V8.07289C23.7661 6.89536 23.1366 6.28525 21.938 6.28525H20.4113C19.9743 6.28525 19.8326 6.20688 19.565 5.92798L19.1244 5.45516C18.8339 5.15363 18.5428 5 17.9752 5H15.7579C15.1913 5 14.8992 5.15363 14.6097 5.45516L14.1682 5.92798C13.9005 6.20236 13.7552 6.28525 13.3218 6.28525H11.827C10.6249 6.28525 10 6.89536 10 8.07289V13.8636C10 15.0411 10.6249 15.6557 11.827 15.6557ZM11.8903 14.5746C11.3816 14.5746 11.0912 14.3089 11.0912 13.7727V8.16824C11.0912 7.63207 11.3816 7.36641 11.8903 7.36641H13.6378C14.1391 7.36641 14.4 7.27756 14.6804 6.9725L15.1038 6.50774C15.4153 6.16747 15.5884 6.08116 16.0735 6.08116H17.6596C18.1457 6.08116 18.3178 6.16846 18.6253 6.50476L19.0536 6.9725C19.3342 7.27657 19.595 7.36641 20.0953 7.36641H21.8702C22.3845 7.36641 22.6749 7.63207 22.6749 8.16824V13.7727C22.6749 14.3089 22.3845 14.5746 21.8702 14.5746H11.8903ZM16.8825 13.8395C18.5485 13.8395 19.8879 12.517 19.8879 10.8517C19.8879 9.19202 18.5531 7.86947 16.8825 7.86947C15.214 7.86947 13.8736 9.19202 13.8736 10.8517C13.8736 12.517 15.214 13.8395 16.8825 13.8395ZM16.8825 12.8537C15.7732 12.8537 14.864 11.9655 14.864 10.8517C14.864 9.74155 15.7686 8.85075 16.8825 8.85075C17.9985 8.85075 18.8975 9.74155 18.8975 10.8517C18.8975 11.9655 17.9985 12.8537 16.8825 12.8537Z" fill="black" fill-opacity="0.85"/>
</g>
</g>
<defs>
<filter id="filter0_d_615_6110" x="0" y="0" width="34" height="21" filterUnits="userSpaceOnUse" color-interpolation-filters="sRGB">
<feFlood flood-opacity="0" result="BackgroundImageFix"/>
<feColorMatrix in="SourceAlpha" type="matrix" values="0 0 0 0 0 0 0 0 0 0 0 0 0 0 0 0 0 0 127 0" result="hardAlpha"/>
<feMorphology radius="363" operator="erode" in="SourceAlpha" result="effect1_dropShadow_615_6110"/>
<feOffset dy="1"/>
<feGaussianBlur stdDeviation="2.5"/>
<feComposite in2="hardAlpha" operator="out"/>
<feColorMatrix type="matrix" values="0 0 0 0 0 0 0 0 0 0 0 0 0 0 0 0 0 0 0.19 0"/>
<feBlend mode="normal" in2="BackgroundImageFix" result="effect1_dropShadow_615_6110"/>
<feBlend mode="normal" in="SourceGraphic" in2="effect1_dropShadow_615_6110" result="shape"/>
</filter>
<clipPath id="clip0_615_6110">
<rect width="14" height="11" fill="white" transform="translate(10 5)"/>
</clipPath>
</defs>
</svg>
