<svg width="17" height="16" viewBox="0 0 17 16" fill="none" xmlns="http://www.w3.org/2000/svg">
<path d="M16.125 1.87502C16.0924 1.72765 16.031 1.58817 15.9444 1.4646C15.8577 1.34104 15.7475 1.23583 15.62 1.15502C15.4925 1.07284 15.3499 1.01682 15.2006 0.990208C15.0512 0.9636 14.898 0.966935 14.75 1.00002L11 1.83502L6 0.835022L1.75 1.78002C1.49468 1.83595 1.26618 1.97754 1.10246 2.18129C0.938737 2.38503 0.84965 2.63865 0.849997 2.90002V13.875C0.848823 14.0684 0.896853 14.2589 0.989569 14.4286C1.08229 14.5982 1.21664 14.7416 1.38 14.845C1.50751 14.9272 1.65009 14.9832 1.79944 15.0098C1.94879 15.0364 2.10194 15.0331 2.25 15L6 14.165L11 15.165L15.245 14.22C15.5003 14.1641 15.7288 14.0225 15.8925 13.8188C16.0563 13.615 16.1453 13.3614 16.145 13.1V2.12502C16.1442 2.04084 16.1341 1.95701 16.115 1.87502H16.125ZM6.75 12.99L5.995 12.84L5.25 13V2.33002L6.005 2.16502L6.75 2.31502V12.985V12.99ZM11.75 13.67L10.995 13.835L10.25 13.685V3.01002L11.005 3.16002L11.75 3.00002H11.755V13.67H11.75Z" fill="white"/>
</svg>
