<svg width="33" height="32" viewBox="0 0 33 32" fill="none" xmlns="http://www.w3.org/2000/svg">
<path d="M31.875 15.9375C31.875 24.7188 24.7344 31.875 15.9375 31.875C7.15625 31.875 0 24.7188 0 15.9375C0 7.14062 7.15625 0 15.9375 0C24.7344 0 31.875 7.14062 31.875 15.9375ZM6.32812 25.4844C8.71875 28.0312 12.3438 29.5 15.9219 29.5C19.5156 29.5 23.125 28.0312 25.5312 25.4844C23.8281 22.7969 20.125 21.2656 15.9219 21.2656C11.6875 21.2656 8.01562 22.8281 6.32812 25.4844ZM10.5625 12.7188C10.5625 16.0781 12.9219 18.5781 15.9219 18.6094C18.9375 18.6406 21.2812 16.0781 21.2812 12.7188C21.2812 9.5625 18.9219 6.9375 15.9219 6.9375C12.9375 6.9375 10.5469 9.5625 10.5625 12.7188Z" fill="#5C5C5C"/>
</svg>
