<svg width="31" height="24" viewBox="0 0 31 24" fill="none" xmlns="http://www.w3.org/2000/svg">
<path d="M13.3877 19.6472C13.3877 18.534 14.2906 17.6311 15.4038 17.6311C16.517 17.6311 17.4199 18.534 17.4199 19.6472C17.4199 20.7604 16.517 21.6619 15.4038 21.6619C14.2906 21.6619 13.3877 20.7604 13.3877 19.6472ZM19.4345 19.6472C19.4345 17.4208 17.6302 15.6165 15.4038 15.6165C13.1774 15.6165 11.373 17.4208 11.373 19.6472C11.373 21.8736 13.1774 23.678 15.4038 23.678C17.6302 23.678 19.4345 21.8736 19.4345 19.6472Z" fill="#3C3C3C"/>
<path d="M23.5088 15.573C22.017 12.6091 18.948 10.5776 15.4038 10.5776C11.8595 10.5776 8.79056 12.6105 7.29883 15.573L8.8242 17.0983C9.84626 14.4626 12.4063 12.5923 15.4038 12.5923C18.4013 12.5923 20.9613 14.4626 21.9834 17.0983L23.5088 15.573Z" fill="#3C3C3C"/>
<path d="M27.1904 11.8914C24.6668 8.06394 20.3304 5.53894 15.4038 5.53894C10.4772 5.53894 6.14079 8.06534 3.61719 11.8914L5.07807 13.3509C7.2021 9.87533 11.0324 7.55502 15.4038 7.55502C19.7766 7.55502 23.6069 9.87533 25.7309 13.3523L27.1904 11.8914Z" fill="#3C3C3C"/>
<path d="M30.8075 8.27421C27.3208 3.55929 21.7184 0.500122 15.4038 0.500122C9.08917 0.500122 3.48677 3.55929 0 8.27421L1.44406 9.71547C4.54949 5.35805 9.64436 2.5162 15.4038 2.5162C21.1632 2.5162 26.2595 5.35805 29.3649 9.71687L30.8075 8.27421Z" fill="#3C3C3C"/>
</svg>
