<svg width="28" height="25" viewBox="0 0 28 25" fill="none" xmlns="http://www.w3.org/2000/svg">
<path d="M23 19.1256H27V22.1256C27 22.6776 26.552 23.1256 26 23.1256H24C23.448 23.1256 23 22.6776 23 22.1256V19.1256Z" stroke="#3C3C3C" stroke-width="2"/>
<path d="M1 19.1256H5V22.1256C5 22.6776 4.552 23.1256 4 23.1256H2C1.448 23.1256 1 22.6776 1 22.1256V19.1256Z" stroke="#3C3C3C" stroke-width="2"/>
<path d="M5 9.12561H23C25.209 9.12561 27 10.9166 27 13.1256V18.1256C27 18.6776 26.552 19.1256 26 19.1256H2C1.448 19.1256 1 18.6776 1 18.1256V13.1256C1 10.9166 2.791 9.12561 5 9.12561Z" stroke="#3C3C3C" stroke-width="2"/>
<path d="M23 13.1256C23.552 13.1256 24 13.5736 24 14.1256C24 14.6776 23.552 15.1256 23 15.1256C22.448 15.1256 22 14.6776 22 14.1256C22 13.5736 22.448 13.1256 23 13.1256Z" fill="#3C3C3C"/>
<path d="M5 13.1256C5.552 13.1256 6 13.5736 6 14.1256C6 14.6776 5.552 15.1256 5 15.1256C4.448 15.1256 4 14.6776 4 14.1256C4 13.5736 4.448 13.1256 5 13.1256Z" fill="#3C3C3C"/>
<path d="M6.693 1.12561H21.307C21.724 1.12561 22.097 1.38461 22.243 1.77461L25 9.12561H3L5.757 1.77461C5.903 1.38461 6.276 1.12561 6.693 1.12561Z" stroke="#3C3C3C" stroke-width="2"/>
<path d="M0 6.12561H3V8.12561H0V6.12561Z" fill="#3C3C3C"/>
<path d="M25 6.12561H28V8.12561H25V6.12561Z" fill="#3C3C3C"/>
<path d="M8 14.1256H20" stroke="#3C3C3C" stroke-width="2"/>
</svg>
