<svg width="28" height="29" viewBox="0 0 28 29" fill="none" xmlns="http://www.w3.org/2000/svg">
<path d="M2 1.5H26C26.552 1.5 27 1.948 27 2.5V26.5C27 27.052 26.552 27.5 26 27.5H2C1.448 27.5 1 27.052 1 26.5V2.5C1 1.948 1.448 1.5 2 1.5Z" stroke="#3C3C3C" stroke-width="2"/>
<path d="M27 9.5H1" stroke="#3C3C3C" stroke-width="2"/>
<path d="M23 4.5C23.552 4.5 24 4.948 24 5.5C24 6.052 23.552 6.5 23 6.5C22.448 6.5 22 6.052 22 5.5C22 4.948 22.448 4.5 23 4.5Z" fill="#3C3C3C"/>
<path d="M17 4.5C17.552 4.5 18 4.948 18 5.5C18 6.052 17.552 6.5 17 6.5C16.448 6.5 16 6.052 16 5.5C16 4.948 16.448 4.5 17 4.5Z" fill="#3C3C3C"/>
<path d="M11 4.5C11.552 4.5 12 4.948 12 5.5C12 6.052 11.552 6.5 11 6.5C10.448 6.5 10 6.052 10 5.5C10 4.948 10.448 4.5 11 4.5Z" fill="#3C3C3C"/>
<path d="M5 4.5C5.552 4.5 6 4.948 6 5.5C6 6.052 5.552 6.5 5 6.5C4.448 6.5 4 6.052 4 5.5C4 4.948 4.448 4.5 5 4.5Z" fill="#3C3C3C"/>
<path d="M5 13.5H23V23.5H5V13.5Z" stroke="#3C3C3C" stroke-width="2"/>
<path d="M27 9.5H1" stroke="#3C3C3C" stroke-width="2"/>
</svg>
