<svg width="11.855957" height="11.295410" viewBox="0 0 11.856 11.2954" fill="none" xmlns="http://www.w3.org/2000/svg" xmlns:xlink="http://www.w3.org/1999/xlink">
	<desc>
			Created with Pixso.
	</desc>
	<defs/>
	<path id="Star 2" d="M5.74 0.11L4.14 3.59C4.11 3.66 4.05 3.71 3.98 3.71L0.17 4.16C0 4.18 -0.07 4.39 0.06 4.5L2.87 7.11C2.92 7.15 2.95 7.22 2.93 7.29L2.19 11.05C2.15 11.22 2.33 11.35 2.48 11.26L5.83 9.39C5.89 9.36 5.96 9.36 6.02 9.39L9.37 11.26C9.51 11.35 9.69 11.22 9.66 11.05L8.91 7.29C8.9 7.22 8.92 7.15 8.97 7.11L11.79 4.5C11.91 4.39 11.84 4.18 11.67 4.16L7.87 3.71C7.8 3.71 7.74 3.66 7.71 3.59L6.1 0.11C6.03 -0.04 5.81 -0.04 5.74 0.11Z" fill="#1A1A1A" fill-opacity="1.000000" fill-rule="evenodd"/>
</svg>
