<svg width="29" height="31" viewBox="0 0 29 31" fill="none" xmlns="http://www.w3.org/2000/svg">
<path d="M15.026 0.547974V4.57797L19.052 2.25297L20.052 3.98598L15.026 6.88697V13.815L21.026 10.351V4.54797H23.026V9.19597L26.517 7.18197L27.517 8.91397L24.026 10.929L28.052 13.253L27.052 14.986L22.026 12.083L16.026 15.547L22.027 19.012L27.052 16.11L28.052 17.842L24.026 20.166L27.517 22.182L26.517 23.914L23.026 21.899V26.548H21.026V20.744L15.026 17.279V24.208L20.052 27.11L19.052 28.842L15.026 26.517V30.548H13.026V26.517L9 28.842L8 27.11L13.026 24.208V17.279L7.026 20.743V26.548H5.026V21.898L1.536 23.914L0.535999 22.182L4.025 20.166L0 17.842L1 16.11L6.025 19.011L12.025 15.547L6.026 12.083L1 14.986L0 13.253L4.026 10.929L0.535999 8.91397L1.536 7.18197L5.026 9.19597V4.54797H7.026V10.351L13.026 13.815V6.88697L8 3.98598L9 2.25297L13.026 4.57797V0.547974H15.026Z" fill="#3C3C3C"/>
</svg>
