<svg width="41" height="30" viewBox="0 0 41 30" fill="none" xmlns="http://www.w3.org/2000/svg">
<path d="M21.125 11.875H27.125" stroke="#3C3C3C" stroke-width="2"/>
<path d="M8.125 7.875H32.125" stroke="#3C3C3C" stroke-width="2"/>
<path d="M27.125 14.875V4.875C27.125 3.218 25.782 1.875 24.125 1.875C22.468 1.875 21.125 3.218 21.125 4.875M21.125 14.875V4.875C21.125 3.218 19.782 1.875 18.125 1.875C16.468 1.875 15.125 3.218 15.125 4.875" stroke="#3C3C3C" stroke-width="2"/>
<mask id="mask0_739_1569" style="mask-type:alpha" maskUnits="userSpaceOnUse" x="0" y="9" width="41" height="21">
<path d="M40.018 9.75049V29.8975H0V9.75049H40.018Z" fill="black"/>
</mask>
<g mask="url(#mask0_739_1569)">
<path d="M8.13672 26.3521C7.41272 26.3521 6.68872 26.1021 6.13672 25.6021C5.58472 25.1021 4.86072 24.8521 4.13672 24.8521C3.41272 24.8521 2.68872 25.1021 2.13672 25.6021C1.58472 26.1021 0.860718 26.3521 0.136717 26.3521C-0.587282 26.3521 -1.31128 26.1021 -1.86328 25.6021C-2.41528 25.1021 -3.13928 24.8521 -3.86328 24.8521C-4.58728 24.8521 -5.31128 25.1021 -5.86328 25.6021C-6.41528 26.1021 -7.13928 26.3521 -7.86328 26.3521C-8.58728 26.3521 -9.31128 26.1021 -9.86328 25.6021C-10.4153 25.1021 -11.1393 24.8521 -11.8633 24.8521C-12.5873 24.8521 -13.3113 25.1021 -13.8633 25.6021C-14.4153 26.1021 -15.1393 26.3521 -15.8633 26.3521M56.1247 26.3661C55.4007 26.3661 54.6767 26.1161 54.1247 25.6161C53.5727 25.1161 52.8487 24.8661 52.1247 24.8661C51.4007 24.8661 50.6767 25.1161 50.1247 25.6161C49.5727 26.1161 48.8487 26.3661 48.1247 26.3661C47.4007 26.3661 46.6767 26.1161 46.1247 25.6161C45.5727 25.1161 44.8487 24.8661 44.1247 24.8661C43.4007 24.8661 42.6767 25.1161 42.1247 25.6161C41.5727 26.1161 40.8487 26.3661 40.1247 26.3661C39.4007 26.3661 38.6767 26.1161 38.1247 25.6161C37.5727 25.1161 36.8487 24.8661 36.1247 24.8661C35.4007 24.8661 34.6767 25.1161 34.1247 25.6161C33.5727 26.1161 32.8487 26.3661 32.1247 26.3661M32.1257 26.3751C31.4017 26.3751 30.6777 26.1251 30.1257 25.6251C29.5737 25.1251 28.8497 24.8751 28.1257 24.8751C27.4017 24.8751 26.6777 25.1251 26.1257 25.6251C25.5737 26.1251 24.8497 26.3751 24.1257 26.3751C23.4017 26.3751 22.6777 26.1251 22.1257 25.6251C21.5737 25.1251 20.8497 24.8751 20.1257 24.8751C19.4017 24.8751 18.6777 25.1251 18.1257 25.6251C17.5737 26.1251 16.8497 26.3751 16.1257 26.3751C15.4017 26.3751 14.6777 26.1251 14.1257 25.6251C13.5737 25.1251 12.8497 24.8751 12.1257 24.8751C11.4017 24.8751 10.6777 25.1251 10.1257 25.6251C9.57372 26.1251 8.84972 26.3751 8.12572 26.3751" stroke="#3C3C3C" stroke-width="2"/>
<path d="M8.13672 21.3521C7.41272 21.3521 6.68872 21.1021 6.13672 20.6021C5.58472 20.1021 4.86072 19.8521 4.13672 19.8521C3.41272 19.8521 2.68872 20.1021 2.13672 20.6021C1.58472 21.1021 0.860718 21.3521 0.136717 21.3521C-0.587282 21.3521 -1.31128 21.1021 -1.86328 20.6021C-2.41528 20.1021 -3.13928 19.8521 -3.86328 19.8521C-4.58728 19.8521 -5.31128 20.1021 -5.86328 20.6021C-6.41528 21.1021 -7.13928 21.3521 -7.86328 21.3521C-8.58728 21.3521 -9.31128 21.1021 -9.86328 20.6021C-10.4153 20.1021 -11.1393 19.8521 -11.8633 19.8521C-12.5873 19.8521 -13.3113 20.1021 -13.8633 20.6021C-14.4153 21.1021 -15.1393 21.3521 -15.8633 21.3521M56.1247 21.3661C55.4007 21.3661 54.6767 21.1161 54.1247 20.6161C53.5727 20.1161 52.8487 19.8661 52.1247 19.8661C51.4007 19.8661 50.6767 20.1161 50.1247 20.6161C49.5727 21.1161 48.8487 21.3661 48.1247 21.3661C47.4007 21.3661 46.6767 21.1161 46.1247 20.6161C45.5727 20.1161 44.8487 19.8661 44.1247 19.8661C43.4007 19.8661 42.6767 20.1161 42.1247 20.6161C41.5727 21.1161 40.8487 21.3661 40.1247 21.3661C39.4007 21.3661 38.6767 21.1161 38.1247 20.6161C37.5727 20.1161 36.8487 19.8661 36.1247 19.8661C35.4007 19.8661 34.6767 20.1161 34.1247 20.6161C33.5727 21.1161 32.8487 21.3661 32.1247 21.3661M32.1257 21.3751C31.4017 21.3751 30.6777 21.1251 30.1257 20.6251C29.5737 20.1251 28.8497 19.8751 28.1257 19.8751C27.4017 19.8751 26.6777 20.1251 26.1257 20.6251C25.5737 21.1251 24.8497 21.3751 24.1257 21.3751C23.4017 21.3751 22.6777 21.1251 22.1257 20.6251C21.5737 20.1251 20.8497 19.8751 20.1257 19.8751C19.4017 19.8751 18.6777 20.1251 18.1257 20.6251C17.5737 21.1251 16.8497 21.3751 16.1257 21.3751C15.4017 21.3751 14.6777 21.1251 14.1257 20.6251C13.5737 20.1251 12.8497 19.8751 12.1257 19.8751C11.4017 19.8751 10.6777 20.1251 10.1257 20.6251C9.57372 21.1251 8.84972 21.3751 8.12572 21.3751" stroke="#3C3C3C" stroke-width="2"/>
<path d="M8.13672 16.3521C7.41272 16.3521 6.68872 16.1021 6.13672 15.6021C5.58472 15.1021 4.86072 14.8521 4.13672 14.8521C3.41272 14.8521 2.68872 15.1021 2.13672 15.6021C1.58472 16.1021 0.860718 16.3521 0.136717 16.3521C-0.587282 16.3521 -1.31128 16.1021 -1.86328 15.6021C-2.41528 15.1021 -3.13928 14.8521 -3.86328 14.8521C-4.58728 14.8521 -5.31128 15.1021 -5.86328 15.6021C-6.41528 16.1021 -7.13928 16.3521 -7.86328 16.3521C-8.58728 16.3521 -9.31128 16.1021 -9.86328 15.6021C-10.4153 15.1021 -11.1393 14.8521 -11.8633 14.8521C-12.5873 14.8521 -13.3113 15.1021 -13.8633 15.6021C-14.4153 16.1021 -15.1393 16.3521 -15.8633 16.3521M56.1247 16.3661C55.4007 16.3661 54.6767 16.1161 54.1247 15.6161C53.5727 15.1161 52.8487 14.8661 52.1247 14.8661C51.4007 14.8661 50.6767 15.1161 50.1247 15.6161C49.5727 16.1161 48.8487 16.3661 48.1247 16.3661C47.4007 16.3661 46.6767 16.1161 46.1247 15.6161C45.5727 15.1161 44.8487 14.8661 44.1247 14.8661C43.4007 14.8661 42.6767 15.1161 42.1247 15.6161C41.5727 16.1161 40.8487 16.3661 40.1247 16.3661C39.4007 16.3661 38.6767 16.1161 38.1247 15.6161C37.5727 15.1161 36.8487 14.8661 36.1247 14.8661C35.4007 14.8661 34.6767 15.1161 34.1247 15.6161C33.5727 16.1161 32.8487 16.3661 32.1247 16.3661M32.1257 16.3751C31.4017 16.3751 30.6777 16.1251 30.1257 15.6251C29.5737 15.1251 28.8497 14.8751 28.1257 14.8751C27.4017 14.8751 26.6777 15.1251 26.1257 15.6251C25.5737 16.1251 24.8497 16.3751 24.1257 16.3751C23.4017 16.3751 22.6777 16.1251 22.1257 15.6251C21.5737 15.1251 20.8497 14.8751 20.1257 14.8751C19.4017 14.8751 18.6777 15.1251 18.1257 15.6251C17.5737 16.1251 16.8497 16.3751 16.1257 16.3751C15.4017 16.3751 14.6777 16.1251 14.1257 15.6251C13.5737 15.1251 12.8497 14.8751 12.1257 14.8751C11.4017 14.8751 10.6777 15.1251 10.1257 15.6251C9.57372 16.1251 8.84972 16.3751 8.12572 16.3751" stroke="#3C3C3C" stroke-width="2"/>
</g>
</svg>
