<svg width="35" height="41" viewBox="0 0 35 41" fill="none" xmlns="http://www.w3.org/2000/svg">
<path d="M1.728 8V3.76H2.496V8H1.728ZM2.112 2.944C1.96267 2.944 1.83733 2.896 1.736 2.8C1.64 2.704 1.592 2.58667 1.592 2.448C1.592 2.304 1.64 2.184 1.736 2.088C1.83733 1.992 1.96267 1.944 2.112 1.944C2.26133 1.944 2.384 1.992 2.48 2.088C2.58133 2.17867 2.632 2.29333 2.632 2.432C2.632 2.576 2.584 2.69867 2.488 2.8C2.392 2.896 2.26667 2.944 2.112 2.944ZM10.8664 3.72C11.2077 3.72 11.509 3.78667 11.7704 3.92C12.0317 4.05333 12.2344 4.256 12.3784 4.528C12.5277 4.8 12.6024 5.144 12.6024 5.56V8H11.8344V5.648C11.8344 5.23733 11.7384 4.928 11.5464 4.72C11.3544 4.512 11.085 4.408 10.7384 4.408C10.4824 4.408 10.2584 4.46133 10.0664 4.568C9.87438 4.67467 9.72504 4.832 9.61838 5.04C9.51704 5.248 9.46638 5.50667 9.46638 5.816V8H8.69837V5.648C8.69837 5.23733 8.60238 4.928 8.41038 4.72C8.22371 4.512 7.95438 4.408 7.60238 4.408C7.35171 4.408 7.13038 4.46133 6.93837 4.568C6.74638 4.67467 6.59704 4.832 6.49038 5.04C6.38371 5.248 6.33037 5.50667 6.33037 5.816V8H5.56237V3.76H6.29838V4.888L6.17838 4.6C6.31171 4.32267 6.51704 4.10667 6.79437 3.952C7.07171 3.79733 7.39438 3.72 7.76238 3.72C8.16771 3.72 8.51704 3.82133 8.81037 4.024C9.10371 4.22133 9.29571 4.52267 9.38637 4.928L9.07438 4.8C9.20238 4.47467 9.42638 4.21333 9.74638 4.016C10.0664 3.81867 10.4397 3.72 10.8664 3.72ZM18.2475 8V7.104L18.2075 6.936V5.408C18.2075 5.08267 18.1115 4.832 17.9195 4.656C17.7328 4.47467 17.4502 4.384 17.0715 4.384C16.8208 4.384 16.5755 4.42667 16.3355 4.512C16.0955 4.592 15.8928 4.70133 15.7275 4.84L15.4075 4.264C15.6262 4.088 15.8875 3.95467 16.1915 3.864C16.5008 3.768 16.8235 3.72 17.1595 3.72C17.7408 3.72 18.1888 3.86133 18.5035 4.144C18.8182 4.42667 18.9755 4.85867 18.9755 5.44V8H18.2475ZM16.8555 8.048C16.5408 8.048 16.2635 7.99467 16.0235 7.888C15.7888 7.78133 15.6075 7.63467 15.4795 7.448C15.3515 7.256 15.2875 7.04 15.2875 6.8C15.2875 6.57067 15.3408 6.36267 15.4475 6.176C15.5595 5.98933 15.7382 5.84 15.9835 5.728C16.2342 5.616 16.5702 5.56 16.9915 5.56H18.3355V6.112H17.0235C16.6395 6.112 16.3808 6.176 16.2475 6.304C16.1142 6.432 16.0475 6.58667 16.0475 6.768C16.0475 6.976 16.1302 7.144 16.2955 7.272C16.4608 7.39467 16.6902 7.456 16.9835 7.456C17.2715 7.456 17.5222 7.392 17.7355 7.264C17.9542 7.136 18.1115 6.94933 18.2075 6.704L18.3595 7.232C18.2582 7.48267 18.0795 7.68267 17.8235 7.832C17.5675 7.976 17.2448 8.048 16.8555 8.048ZM23.8527 9.6C23.4634 9.6 23.0847 9.544 22.7167 9.432C22.3541 9.32533 22.0581 9.17067 21.8287 8.968L22.1967 8.376C22.3941 8.54667 22.6367 8.68 22.9247 8.776C23.2127 8.87733 23.5141 8.928 23.8287 8.928C24.3301 8.928 24.6981 8.81067 24.9327 8.576C25.1674 8.34133 25.2847 7.984 25.2847 7.504V6.608L25.3647 5.768L25.3247 4.92V3.76H26.0527V7.424C26.0527 8.17067 25.8661 8.72 25.4927 9.072C25.1194 9.424 24.5727 9.6 23.8527 9.6ZM23.7567 7.824C23.3461 7.824 22.9781 7.73867 22.6527 7.568C22.3327 7.392 22.0767 7.14933 21.8847 6.84C21.6981 6.53067 21.6047 6.17333 21.6047 5.768C21.6047 5.35733 21.6981 5 21.8847 4.696C22.0767 4.38667 22.3327 4.14667 22.6527 3.976C22.9781 3.80533 23.3461 3.72 23.7567 3.72C24.1194 3.72 24.4501 3.79467 24.7487 3.944C25.0474 4.088 25.2847 4.312 25.4607 4.616C25.6421 4.92 25.7327 5.304 25.7327 5.768C25.7327 6.22667 25.6421 6.608 25.4607 6.912C25.2847 7.216 25.0474 7.44533 24.7487 7.6C24.4501 7.74933 24.1194 7.824 23.7567 7.824ZM23.8447 7.152C24.1274 7.152 24.3781 7.09333 24.5967 6.976C24.8154 6.85867 24.9861 6.696 25.1087 6.488C25.2367 6.28 25.3007 6.04 25.3007 5.768C25.3007 5.496 25.2367 5.256 25.1087 5.048C24.9861 4.84 24.8154 4.68 24.5967 4.568C24.3781 4.45067 24.1274 4.392 23.8447 4.392C23.5621 4.392 23.3087 4.45067 23.0847 4.568C22.8661 4.68 22.6927 4.84 22.5647 5.048C22.4421 5.256 22.3807 5.496 22.3807 5.768C22.3807 6.04 22.4421 6.28 22.5647 6.488C22.6927 6.696 22.8661 6.85867 23.0847 6.976C23.3087 7.09333 23.5621 7.152 23.8447 7.152ZM31.0082 8.048C30.5549 8.048 30.1549 7.95467 29.8082 7.768C29.4669 7.58133 29.2002 7.32533 29.0082 7C28.8215 6.67467 28.7282 6.30133 28.7282 5.88C28.7282 5.45867 28.8189 5.08533 29.0002 4.76C29.1869 4.43467 29.4402 4.18133 29.7602 4C30.0855 3.81333 30.4509 3.72 30.8562 3.72C31.2669 3.72 31.6295 3.81067 31.9442 3.992C32.2589 4.17333 32.5042 4.42933 32.6802 4.76C32.8615 5.08533 32.9522 5.46667 32.9522 5.904C32.9522 5.936 32.9495 5.97333 32.9442 6.016C32.9442 6.05867 32.9415 6.09867 32.9362 6.136H29.3282V5.584H32.5362L32.2242 5.776C32.2295 5.504 32.1735 5.26133 32.0562 5.048C31.9389 4.83467 31.7762 4.66933 31.5682 4.552C31.3655 4.42933 31.1282 4.368 30.8562 4.368C30.5895 4.368 30.3522 4.42933 30.1442 4.552C29.9362 4.66933 29.7735 4.83733 29.6562 5.056C29.5389 5.26933 29.4802 5.51467 29.4802 5.792V5.92C29.4802 6.20267 29.5442 6.456 29.6722 6.68C29.8055 6.89867 29.9895 7.06933 30.2242 7.192C30.4589 7.31467 30.7282 7.376 31.0322 7.376C31.2829 7.376 31.5095 7.33333 31.7122 7.248C31.9202 7.16267 32.1015 7.03467 32.2562 6.864L32.6802 7.36C32.4882 7.584 32.2482 7.75467 31.9602 7.872C31.6775 7.98933 31.3602 8.048 31.0082 8.048Z" fill="black"/>
<g clip-path="url(#clip0_442_5293)">
<path d="M33.5061 35.5724L24.5206 25.916C23.8333 25.1823 23.0725 24.807 22.219 24.807C21.3735 24.807 20.6673 25.1535 19.9596 25.8817L13.2345 32.8388L10.4529 29.8903C9.83184 29.2293 9.17454 28.8882 8.44745 28.8882C7.74534 28.8882 7.13699 29.2122 6.53529 29.8731L0.951718 35.798C1.14588 38.6836 2.07512 40.0142 4.19135 40.0142H29.7864C32.3437 40.0142 33.5014 38.3439 33.5061 35.5724ZM4.35903 40.9895H30.2667C33.1658 40.9895 34.6303 39.2903 34.6303 35.9979V15.0033C34.6303 11.711 33.1658 10 30.2667 10H4.35903C1.47475 10 0 11.6951 0 15.0033V35.9979C0 39.3062 1.47475 40.9895 4.35903 40.9895ZM4.39319 38.8758C2.7265 38.8758 1.83068 37.8573 1.83068 35.881V15.1202C1.83068 13.1439 2.7265 12.1189 4.39319 12.1189H30.2371C31.8707 12.1189 32.7996 13.1439 32.7996 15.1202V35.881C32.7996 37.8573 31.8707 38.8758 30.2371 38.8758H4.39319Z" fill="black" fill-opacity="0.85"/>
<path d="M10.8697 25.7528C12.7773 25.7528 14.3448 23.9385 14.3448 21.7135C14.3448 19.5057 12.7773 17.6743 10.8697 17.6743C8.94735 17.6743 7.37988 19.5057 7.37988 21.7135C7.37988 23.9385 8.94735 25.7528 10.8697 25.7528Z" fill="black" fill-opacity="0.85"/>
</g>
<defs>
<clipPath id="clip0_442_5293">
<rect width="35" height="31" fill="white" transform="translate(0 10)"/>
</clipPath>
</defs>
</svg>
