<svg width="35" height="53" viewBox="0 0 35 53" fill="none" xmlns="http://www.w3.org/2000/svg">
<path d="M34.5045 21.2401V41.0038C34.5045 44.8164 32.5279 46.7978 28.662 46.7978H5.84252C1.97664 46.7978 0 44.8485 0 41.0038V21.2401C0 17.3955 1.97664 15.4463 5.84252 15.4463H12.7184V17.8999H5.8883C3.6544 17.8999 2.45371 19.0732 2.45371 21.3619V40.8821C2.45371 43.1707 3.6544 44.3441 5.8883 44.3441H28.6026C30.792 44.3441 32.0569 43.1707 32.0569 40.8821V21.3619C32.0569 19.0732 30.792 17.8999 28.6026 17.8999H21.7724V15.4463H28.662C32.5279 15.4463 34.5045 17.4277 34.5045 21.2401Z" fill="black"/>
<path d="M17.2483 31.5427C17.9039 31.5427 18.4652 31.0088 18.4652 30.3668V9.49108L18.377 6.62394L19.6405 7.92848L23.1351 11.5736C23.3512 11.8169 23.6813 11.9509 23.972 11.9509C24.6017 11.9509 25.0809 11.4792 25.0809 10.8707C25.0809 10.5391 24.9591 10.2958 24.7295 10.066L18.1275 3.60972C17.8293 3.31162 17.5661 3.21729 17.2483 3.21729C16.944 3.21729 16.6746 3.31162 16.3629 3.60972L9.76841 10.066C9.53255 10.2958 9.40332 10.5391 9.40332 10.8707C9.40332 11.4792 9.86274 11.9509 10.4986 11.9509C10.7891 11.9509 11.1269 11.8169 11.349 11.5736L14.8513 7.92848L16.127 6.61778L16.0388 9.49108V30.3668C16.0388 31.0088 16.5864 31.5427 17.2483 31.5427Z" fill="black"/>
</svg>
