<svg width="49" height="16" viewBox="0 0 49 16" fill="none" xmlns="http://www.w3.org/2000/svg">
<g clip-path="url(#clip0_1061_3684)">
<path d="M21.2609 15.6405H17.2853L19.77 0.370509H23.746L21.2609 15.6405ZM13.9408 0.370509L10.1507 10.8733L9.70218 8.61166L9.70259 8.61248L8.36487 1.7454C8.36487 1.7454 8.20312 0.370509 6.479 0.370509H0.213172L0.139648 0.629066C0.139648 0.629066 2.05575 1.02773 4.29821 2.37443L7.75218 15.6409H11.8944L18.2195 0.370509H13.9408ZM45.2107 15.6405H48.8611L45.6784 0.370101H42.4826C41.0068 0.370101 40.6474 1.50808 40.6474 1.50808L34.7181 15.6405H38.8624L39.6911 13.3723H44.7451L45.2107 15.6405ZM40.8361 10.239L42.9249 4.52458L44.1001 10.239H40.8361ZM35.0289 4.04259L35.5963 0.76345C35.5963 0.76345 33.8456 0.0976562 32.0206 0.0976562C30.0477 0.0976562 25.3627 0.959922 25.3627 5.1528C25.3627 9.09774 30.8614 9.14675 30.8614 11.2189C30.8614 13.291 25.9292 12.9197 24.3015 11.6131L23.7104 15.0417C23.7104 15.0417 25.4856 15.904 28.1978 15.904C30.9108 15.904 35.0036 14.4993 35.0036 10.676C35.0036 6.70577 29.4555 6.33612 29.4555 4.60995C29.4559 2.88338 33.3277 3.10517 35.0289 4.04259Z" fill="#2566AF"/>
<path d="M9.70259 8.61209L8.36487 1.745C8.36487 1.745 8.20312 0.370117 6.479 0.370117H0.213172L0.139648 0.628674C0.139648 0.628674 3.15125 1.25281 6.0399 3.59126C8.80193 5.82637 9.70259 8.61209 9.70259 8.61209Z" fill="#E6A540"/>
</g>
<defs>
<clipPath id="clip0_1061_3684">
<rect width="48.7215" height="15.8063" fill="white" transform="translate(0.139648 0.0976562)"/>
</clipPath>
</defs>
</svg>
