<svg width="45" height="45" viewBox="0 0 45 45" fill="none" xmlns="http://www.w3.org/2000/svg">
<path d="M5.55923 21.3099L11.2039 26.9612C11.9782 27.7355 13.2379 27.7581 13.9896 26.8162L17.5429 22.4367C17.769 22.1653 18.1496 22.321 18.1496 22.6508V30.1101L11.7879 29.3997C9.59814 29.1456 8.89307 32.3637 10.9963 33.0568L18.2134 35.4434C17.8662 36.9401 19.1607 38.2278 20.64 37.7369L22.8589 37.0093L25.0833 37.7369C26.5573 38.2278 27.857 36.9401 27.5045 35.4434L34.7442 33.0568C36.8475 32.3637 36.1198 29.1456 33.93 29.3997L27.5737 30.1101V22.6508C27.5737 22.321 27.9661 22.1653 28.1803 22.4367L31.7283 26.8162C32.4853 27.7581 33.7558 27.7462 34.5247 26.9612L40.1587 21.3099C40.9036 20.5583 40.9156 19.3916 40.1587 18.6519C39.4363 17.9296 38.2349 17.9188 37.5007 18.6519L33.346 22.8238L29.0995 17.6235C28.3945 16.7628 27.3369 16.2254 26.2047 16.2254H19.5251C18.381 16.2254 17.3353 16.7628 16.6183 17.6235L12.3772 22.8238L8.2226 18.6519C7.4883 17.9188 6.28696 17.9296 5.55923 18.6519C4.80763 19.3916 4.81957 20.5583 5.55923 21.3099ZM22.8589 14.3501C24.8757 14.3501 26.5161 12.6978 26.5161 10.6518C26.5161 8.64037 24.8757 7 22.8589 7C20.8129 7 19.1607 8.64037 19.1607 10.6518C19.1607 12.6978 20.8129 14.3501 22.8589 14.3501Z" fill="black" fill-opacity="0.85"/>
</svg>
