<svg width="78" height="76" viewBox="0 0 78 76" fill="none" xmlns="http://www.w3.org/2000/svg">
<g clip-path="url(#clip0_363_4519)">
<path d="M48.7928 66.2245L56.3673 53.1225C56.8023 52.3549 56.5721 51.4336 55.8043 51.0497C55.0623 50.6403 54.1666 50.8194 53.7316 51.6127L46.2082 64.6636C45.7474 65.4314 45.9778 66.3269 46.7198 66.7875C47.4365 67.2227 48.3834 66.9667 48.7928 66.2245Z" fill="#84D9FD"/>
<path d="M38.6847 66.1991L46.1824 53.174C46.6431 52.3551 46.4128 51.4849 45.645 51.0499C44.8519 50.5894 43.9817 50.8195 43.5211 51.6384L35.9977 64.7149C35.5883 65.4316 35.7674 66.3271 36.5607 66.7876C37.3285 67.2228 38.2495 66.9669 38.6847 66.1991Z" fill="#84D9FD"/>
<path d="M28.4991 66.1991L35.997 53.174C36.4575 52.3551 36.2274 51.4849 35.4596 51.0499C34.6663 50.5894 33.7963 50.8195 33.3355 51.6384L25.8122 64.7149C25.4027 65.4316 25.5819 66.3271 26.3751 66.7876C27.1428 67.2228 28.0641 66.9669 28.4991 66.1991Z" fill="#84D9FD"/>
<path d="M18.2891 66.1991L25.8125 53.174C26.2732 52.3551 26.0173 51.4849 25.2496 51.0499C24.4819 50.5894 23.6118 50.8195 23.1512 51.6384L15.6022 64.7149C15.1927 65.4316 15.3974 66.3271 16.1651 66.7876C16.9328 67.2228 17.8541 66.9669 18.2891 66.1991Z" fill="#84D9FD"/>
<g filter="url(#filter0_d_363_4519)">
<path d="M22.87 46.9555H54.6271C63.0207 46.9555 69.2646 40.5835 69.2646 32.702C69.2646 24.5387 62.6112 18.5763 53.9361 18.5763C50.7375 12.2556 44.8005 8.18677 37.4051 8.18677C27.7833 8.18677 19.8504 15.7358 19.006 25.2297C14.3742 26.5859 10.8428 30.6035 10.8428 36.003C10.8428 42.0677 15.2443 46.9555 22.87 46.9555Z" fill="white"/>
</g>
</g>
<defs>
<filter id="filter0_d_363_4519" x="3.26525" y="0.609249" width="75.4219" height="55.7688" filterUnits="userSpaceOnUse" color-interpolation-filters="sRGB">
<feFlood flood-opacity="0" result="BackgroundImageFix"/>
<feColorMatrix in="SourceAlpha" type="matrix" values="0 0 0 0 0 0 0 0 0 0 0 0 0 0 0 0 0 0 127 0" result="hardAlpha"/>
<feOffset dx="0.922481" dy="0.922481"/>
<feGaussianBlur stdDeviation="4.25"/>
<feComposite in2="hardAlpha" operator="out"/>
<feColorMatrix type="matrix" values="0 0 0 0 0 0 0 0 0 0 0 0 0 0 0 0 0 0 0.12 0"/>
<feBlend mode="normal" in2="BackgroundImageFix" result="effect1_dropShadow_363_4519"/>
<feBlend mode="normal" in="SourceGraphic" in2="effect1_dropShadow_363_4519" result="shape"/>
</filter>
<clipPath id="clip0_363_4519">
<rect width="78" height="76" fill="white"/>
</clipPath>
</defs>
</svg>
