<svg width="78" height="76" viewBox="0 0 78 76" fill="none" xmlns="http://www.w3.org/2000/svg">
<g clip-path="url(#clip0_363_4522)">
<path d="M49.6624 66.9438L57.2039 53.8992C57.6369 53.135 57.4076 52.2686 56.6688 51.8355C55.9555 51.377 55.0383 51.6062 54.5795 52.396L47.0891 65.3897C46.656 66.1539 46.8854 67.0457 47.6242 67.5042C48.3631 67.9373 49.2293 67.7082 49.6624 66.9438Z" fill="#71D4FF"/>
<path d="M43.7517 59.6827L47.0637 53.9246C47.5224 53.1604 47.2676 52.2686 46.5032 51.8101C45.7388 51.377 44.8726 51.6062 44.4141 52.396L41.0765 58.205C40.6434 58.9183 40.8471 59.8101 41.6369 60.2686C42.4013 60.7017 43.3186 60.4215 43.7517 59.6827Z" fill="#71D4FF"/>
<path d="M29.4076 66.9692L36.9236 53.9246C37.3567 53.1604 37.1528 52.294 36.414 51.8609C35.675 51.4024 34.7323 51.6316 34.2993 52.4214L26.8343 65.4151C26.4012 66.1795 26.605 67.0711 27.3694 67.5296C28.1082 67.9629 28.9745 67.7081 29.4076 66.9692Z" fill="#71D4FF"/>
<path d="M23.4713 59.7081L26.7834 53.9502C27.2675 53.1858 27.0127 52.294 26.2484 51.8355C25.4841 51.4024 24.6178 51.6316 24.1338 52.4214L20.7962 58.2304C20.3631 58.9437 20.5924 59.8355 21.3822 60.294C22.121 60.7271 23.0382 60.4469 23.4713 59.7081Z" fill="#71D4FF"/>
<g filter="url(#filter0_d_363_4522)">
<path d="M22.8085 47.7844H54.4262C62.783 47.7844 68.9996 41.4404 68.9996 33.5935C68.9996 25.466 62.3753 19.5297 53.7383 19.5297C50.5537 13.2367 44.6428 9.18579 37.2798 9.18579C27.7002 9.18579 19.8021 16.7017 18.9614 26.1539C14.3499 27.5042 10.834 31.5042 10.834 36.88C10.834 42.9181 15.2162 47.7844 22.8085 47.7844Z" fill="white"/>
</g>
</g>
<defs>
<filter id="filter0_d_363_4522" x="3.25647" y="1.60827" width="75.166" height="55.5986" filterUnits="userSpaceOnUse" color-interpolation-filters="sRGB">
<feFlood flood-opacity="0" result="BackgroundImageFix"/>
<feColorMatrix in="SourceAlpha" type="matrix" values="0 0 0 0 0 0 0 0 0 0 0 0 0 0 0 0 0 0 127 0" result="hardAlpha"/>
<feOffset dx="0.922481" dy="0.922481"/>
<feGaussianBlur stdDeviation="4.25"/>
<feComposite in2="hardAlpha" operator="out"/>
<feColorMatrix type="matrix" values="0 0 0 0 0 0 0 0 0 0 0 0 0 0 0 0 0 0 0.12 0"/>
<feBlend mode="normal" in2="BackgroundImageFix" result="effect1_dropShadow_363_4522"/>
<feBlend mode="normal" in="SourceGraphic" in2="effect1_dropShadow_363_4522" result="shape"/>
</filter>
<clipPath id="clip0_363_4522">
<rect width="78" height="76" fill="white"/>
</clipPath>
</defs>
</svg>
