<svg width="78" height="82" viewBox="0 0 78 82" fill="none" xmlns="http://www.w3.org/2000/svg">
<g clip-path="url(#clip0_363_4520)">
<path d="M46.7138 71.9997C47.1695 71.9997 47.4985 71.5439 47.4732 71.0884L47.2961 68.6838L49.321 70.0506C49.6752 70.2785 50.2576 70.1771 50.5107 69.7974C50.7383 69.4179 50.6118 68.8356 50.1055 68.608L47.9287 67.5702L50.131 66.4818C50.6118 66.2539 50.7131 65.6971 50.536 65.3174C50.3081 64.9124 49.6752 64.8366 49.321 65.0642L47.2961 66.4818L47.4985 64.0266C47.5493 63.5456 47.1695 63.1406 46.7138 63.1406C46.1823 63.1406 45.8786 63.5456 45.9038 64.0266L46.0557 66.4818L44.0055 65.0642C43.6513 64.8366 43.1197 64.8871 42.8666 65.3174C42.6387 65.6971 42.74 66.2286 43.221 66.4818L45.3978 67.5702L43.221 68.6333C42.74 68.8609 42.6134 69.3925 42.8413 69.7974C43.069 70.2279 43.6513 70.3037 44.0055 70.0506L46.0557 68.6838L45.9293 71.0884C45.9038 71.5439 46.1823 71.9997 46.7138 71.9997Z" fill="#ADE6E9"/>
<path d="M32.6916 71.9997C33.1471 71.9997 33.476 71.5439 33.4508 71.0884L33.2989 68.6838L35.2986 70.0506C35.6528 70.2785 36.2351 70.1771 36.4882 69.7974C36.7159 69.4179 36.5893 68.8356 36.0833 68.608L33.9063 67.5702L36.1085 66.4818C36.5893 66.2539 36.6906 65.6971 36.5135 65.3174C36.2856 64.9124 35.6528 64.8366 35.2986 65.0642L33.2989 66.4818L33.476 64.0266C33.5268 63.5456 33.1471 63.1406 32.6916 63.1406C32.16 63.1406 31.8561 63.5456 31.8816 64.0266L32.0334 66.4818L29.9831 65.0642C29.6288 64.8366 29.0972 64.8871 28.8441 65.3174C28.6163 65.6971 28.7176 66.2286 29.1985 66.4818L31.3753 67.5702L29.1985 68.6333C28.7176 68.8609 28.591 69.3925 28.8188 69.7974C29.0466 70.2279 29.6288 70.3037 29.9831 70.0506L32.0334 68.6838L31.9069 71.0884C31.8816 71.5439 32.16 71.9997 32.6916 71.9997Z" fill="#ADE6E9"/>
<path d="M18.669 71.9997C19.1246 71.9997 19.4536 71.5439 19.4283 71.0884L19.2765 68.6838L21.2761 70.0506C21.6557 70.2785 22.2126 70.1771 22.4657 69.7974C22.6935 69.4179 22.5669 68.8356 22.0607 68.608L19.9093 67.5702L22.086 66.4818C22.5669 66.2539 22.6682 65.6971 22.491 65.3174C22.2632 64.9124 21.6557 64.8366 21.2761 65.0642L19.2765 66.4818L19.4536 64.0266C19.5043 63.5456 19.1246 63.1406 18.669 63.1406C18.1375 63.1406 17.8337 63.5456 17.859 64.0266L18.0109 66.4818L15.986 65.0642C15.6063 64.8366 15.0748 64.8871 14.8217 65.3174C14.5939 65.6971 14.6951 66.2286 15.176 66.4818L17.3528 67.5702L15.176 68.6333C14.6951 68.8609 14.5686 69.3925 14.7964 69.7974C15.0242 70.2279 15.6063 70.3037 15.986 70.0506L18.0109 68.6838L17.8843 71.0884C17.859 71.5439 18.1375 71.9997 18.669 71.9997Z" fill="#ADE6E9"/>
<path d="M52.2061 62.4827C52.6616 62.4827 52.9908 62.0525 52.9655 61.597L52.7882 59.1671L54.8131 60.5339C55.1675 60.787 55.7496 60.6857 56.0027 60.306C56.2306 59.9263 56.104 59.3442 55.5978 59.1163L53.421 58.0532L55.623 56.9648C56.104 56.7372 56.2053 56.2056 56.028 55.8006C55.8004 55.3957 55.1675 55.3196 54.8131 55.5728L52.7882 56.9648L52.9908 54.5349C53.0413 54.0542 52.6616 53.6492 52.2061 53.6492C51.6745 53.6492 51.3708 54.0542 51.3961 54.5349L51.5479 56.9648L49.4978 55.5728C49.1433 55.3196 48.6118 55.3704 48.3589 55.8006C48.131 56.2056 48.2323 56.7372 48.7131 56.9648L50.8898 58.0532L48.7131 59.1163C48.2323 59.3442 48.1057 59.901 48.3334 60.306C48.5612 60.711 49.1433 60.787 49.4978 60.5591L51.5479 59.1923L51.4214 61.597C51.3961 62.0525 51.6745 62.4827 52.2061 62.4827Z" fill="#ADE6E9"/>
<path d="M38.1835 62.4827C38.6393 62.4827 38.9682 62.0525 38.943 61.597L38.7911 59.1671L40.7908 60.5339C41.145 60.787 41.7271 60.6857 41.9802 60.306C42.2081 59.9263 42.0815 59.3442 41.5752 59.1163L39.3985 58.0532L41.6007 56.9648C42.0815 56.7372 42.1828 56.2056 42.0055 55.8006C41.7778 55.3957 41.145 55.3196 40.7908 55.5728L38.7911 56.9648L38.9682 54.5349C39.0188 54.0542 38.6393 53.6492 38.1835 53.6492C37.652 53.6492 37.3483 54.0542 37.3736 54.5349L37.5254 56.9648L35.4752 55.5728C35.121 55.3196 34.5895 55.3704 34.3363 55.8006C34.1085 56.2056 34.2098 56.7372 34.6905 56.9648L36.8673 58.0532L34.6905 59.1163C34.2098 59.3442 34.0832 59.901 34.3111 60.306C34.5387 60.711 35.121 60.787 35.4752 60.5591L37.5254 59.1923L37.3988 61.597C37.3736 62.0525 37.652 62.4827 38.1835 62.4827Z" fill="#ADE6E9"/>
<path d="M24.1612 62.4827C24.6168 62.4827 24.9458 62.0525 24.9205 61.597L24.7687 59.1671L26.7682 60.5339C27.1226 60.787 27.7048 60.6857 27.9579 60.306C28.1857 59.9263 28.0591 59.3442 27.5529 59.1163L25.4014 58.0532L27.5782 56.9648C28.0591 56.7372 28.1604 56.2056 27.9832 55.8006C27.7554 55.3957 27.1226 55.3196 26.7682 55.5728L24.7687 56.9648L24.9458 54.5349C24.9965 54.0542 24.6168 53.6492 24.1612 53.6492C23.6297 53.6492 23.3259 54.0542 23.3512 54.5349L23.5031 56.9648L21.4782 55.5728C21.0985 55.3196 20.567 55.3704 20.3139 55.8006C20.0861 56.2056 20.1873 56.7372 20.6682 56.9648L22.845 58.0532L20.6682 59.1163C20.1873 59.3442 20.0607 59.901 20.2885 60.306C20.5163 60.711 21.0985 60.787 21.4782 60.5591L23.5031 59.1923L23.3765 61.597C23.3512 62.0525 23.6297 62.4827 24.1612 62.4827Z" fill="#ADE6E9"/>
<g filter="url(#filter0_d_363_4520)">
<path d="M22.7186 49.8526H54.1299C62.4321 49.8526 68.6082 43.55 68.6082 35.7541C68.6082 27.6798 62.0271 21.7823 53.4465 21.7823C50.2827 15.5304 44.4103 11.5059 37.0954 11.5059C27.5784 11.5059 19.7319 18.9727 18.8966 28.3632C14.3152 29.7047 10.8223 33.6786 10.8223 39.0192C10.8223 45.0181 15.1758 49.8526 22.7186 49.8526Z" fill="white"/>
</g>
</g>
<defs>
<filter id="filter0_d_363_4520" x="3.24475" y="3.92834" width="74.7861" height="55.3467" filterUnits="userSpaceOnUse" color-interpolation-filters="sRGB">
<feFlood flood-opacity="0" result="BackgroundImageFix"/>
<feColorMatrix in="SourceAlpha" type="matrix" values="0 0 0 0 0 0 0 0 0 0 0 0 0 0 0 0 0 0 127 0" result="hardAlpha"/>
<feOffset dx="0.922481" dy="0.922481"/>
<feGaussianBlur stdDeviation="4.25"/>
<feComposite in2="hardAlpha" operator="out"/>
<feColorMatrix type="matrix" values="0 0 0 0 0 0 0 0 0 0 0 0 0 0 0 0 0 0 0.12 0"/>
<feBlend mode="normal" in2="BackgroundImageFix" result="effect1_dropShadow_363_4520"/>
<feBlend mode="normal" in="SourceGraphic" in2="effect1_dropShadow_363_4520" result="shape"/>
</filter>
<clipPath id="clip0_363_4520">
<rect width="78" height="82" fill="white"/>
</clipPath>
</defs>
</svg>
