<svg width="78" height="55" viewBox="0 0 78 55" fill="none" xmlns="http://www.w3.org/2000/svg">
<g clip-path="url(#clip0_363_4521)">
<path d="M59.7266 36.7556L62.7391 39.7487C63.361 40.3706 63.361 41.4007 62.7391 42.0033C62.1172 42.6252 61.0871 42.664 60.4847 42.0227L57.4527 39.0296C56.8307 38.4076 56.8307 37.3776 57.4527 36.7556C58.0746 36.1531 59.1047 36.1531 59.7266 36.7556ZM58.0746 27.757C58.0746 31.2214 56.205 34.2851 53.4331 35.9763C52.889 30.3218 48.3485 26.065 42.3902 25.4636C41.7688 24.4824 41.057 23.5875 40.2622 22.7956C41.9497 20.003 45.0146 18.117 48.4736 18.117C53.721 18.117 58.0746 22.49 58.0746 27.757ZM68.5893 27.757C68.5893 28.6511 67.8701 29.3702 66.9956 29.3702H62.7781C61.923 29.3702 61.1649 28.6511 61.1649 27.757C61.1649 26.9019 61.923 26.1439 62.7781 26.1439H66.9956C67.8701 26.1439 68.5893 26.9019 68.5893 27.757ZM62.7391 13.5108C63.361 14.1328 63.361 15.1823 62.7391 15.8042L59.7462 18.7778C59.1047 19.4192 58.0746 19.3998 57.4527 18.7778C56.8307 18.1559 56.8307 17.1258 57.4527 16.5233L60.4847 13.5108C61.0871 12.8889 62.1172 12.8889 62.7391 13.5108ZM36.5012 13.5108L39.4943 16.5233C40.0969 17.1064 40.0969 18.1753 39.4749 18.7778C38.853 19.3998 37.8229 19.3998 37.201 18.7778L34.2273 15.7848C33.6054 15.1823 33.6249 14.1328 34.2469 13.5108C34.8688 12.8889 35.8989 12.9083 36.5012 13.5108ZM50.0866 9.19615V13.4331C50.0866 14.2882 49.3481 15.0268 48.4736 15.0268C47.5989 15.0268 46.8604 14.2882 46.8604 13.4331V9.19615C46.8604 8.34099 47.5989 7.58301 48.4736 7.58301C49.3481 7.58301 50.0866 8.34099 50.0866 9.19615Z" fill="#E6D110"/>
<g filter="url(#filter0_d_363_4521)">
<path d="M20.3702 46.7259H41.3995C46.9385 46.7259 51.2337 42.528 51.2337 37.1249C51.2337 31.7607 46.8607 27.6987 41.0495 27.6597C38.8145 23.4034 34.7914 20.7991 29.9907 20.7991C23.6548 20.7991 18.2906 25.7163 17.6881 32.1105C14.4618 33.0824 12.2656 35.8421 12.2656 39.3405C12.2656 43.6552 15.5113 46.7259 20.3702 46.7259Z" fill="white"/>
</g>
</g>
<defs>
<filter id="filter0_d_363_4521" x="4.68811" y="13.2216" width="55.9678" height="42.9268" filterUnits="userSpaceOnUse" color-interpolation-filters="sRGB">
<feFlood flood-opacity="0" result="BackgroundImageFix"/>
<feColorMatrix in="SourceAlpha" type="matrix" values="0 0 0 0 0 0 0 0 0 0 0 0 0 0 0 0 0 0 127 0" result="hardAlpha"/>
<feOffset dx="0.922481" dy="0.922481"/>
<feGaussianBlur stdDeviation="4.25"/>
<feComposite in2="hardAlpha" operator="out"/>
<feColorMatrix type="matrix" values="0 0 0 0 0 0 0 0 0 0 0 0 0 0 0 0 0 0 0.12 0"/>
<feBlend mode="normal" in2="BackgroundImageFix" result="effect1_dropShadow_363_4521"/>
<feBlend mode="normal" in="SourceGraphic" in2="effect1_dropShadow_363_4521" result="shape"/>
</filter>
<clipPath id="clip0_363_4521">
<rect width="78" height="55" fill="white"/>
</clipPath>
</defs>
</svg>
