<svg width="78" height="78" viewBox="0 0 78 78" fill="none" xmlns="http://www.w3.org/2000/svg">
<path d="M38.5127 20.864C39.7078 20.864 40.6994 19.875 40.6994 18.6579V13.2061C40.6994 11.9889 39.7078 11 38.5127 11C37.2922 11 36.3006 11.9889 36.3006 13.2061V18.6579C36.3006 19.875 37.2922 20.864 38.5127 20.864ZM50.9722 26.0622C51.8367 26.899 53.2352 26.9244 54.0998 26.0622L57.9901 22.1826C58.8294 21.3458 58.8294 19.9258 57.9901 19.0636C57.151 18.2268 55.7272 18.2268 54.8881 19.0636L50.9722 22.9686C50.1332 23.8054 50.1332 25.2254 50.9722 26.0622ZM56.134 38.5126C56.134 39.7044 57.151 40.6935 58.3462 40.6935H63.813C65.0082 40.6935 66 39.7044 66 38.5126C66 37.3209 65.0082 36.3065 63.813 36.3065H58.3462C57.151 36.3065 56.134 37.3209 56.134 38.5126ZM50.9722 50.9632C50.1332 51.8252 50.1332 53.2198 50.9722 54.0566L54.8881 57.9869C55.7272 58.8239 57.151 58.7731 57.9901 57.9616C58.8294 57.0996 58.8294 55.705 57.9901 54.868L54.0744 50.9632C53.2352 50.1262 51.8367 50.1517 50.9722 50.9632ZM38.5127 56.1613C37.2922 56.1613 36.3006 57.1502 36.3006 58.342V63.8193C36.3006 65.0109 37.2922 66 38.5127 66C39.7078 66 40.6994 65.0109 40.6994 63.8193V58.342C40.6994 57.1502 39.7078 56.1613 38.5127 56.1613ZM26.0277 50.9632C25.1632 50.1517 23.7392 50.1262 22.9001 50.9632L19.0097 54.8427C18.1706 55.6794 18.1706 57.0742 18.9843 57.9363C19.8234 58.7477 21.2728 58.7984 22.1119 57.9616L26.0023 54.0566C26.8414 53.2198 26.8414 51.8252 26.0277 50.9632ZM20.8659 38.5126C20.8659 37.3209 19.8488 36.3065 18.6537 36.3065H13.1868C11.9917 36.3065 11 37.3209 11 38.5126C11 39.7044 11.9917 40.6935 13.1868 40.6935H18.6537C19.8488 40.6935 20.8659 39.7044 20.8659 38.5126ZM26.0023 26.0622C26.8414 25.2508 26.8414 23.7801 26.0277 22.9686L22.1373 19.0636C21.3236 18.2522 19.8742 18.2268 19.0351 19.0636C18.196 19.9258 18.196 21.3458 19.0097 22.1572L22.9001 26.0622C23.7392 26.899 25.1377 26.899 26.0023 26.0622Z" fill="#E6D110"/>
<path d="M38.4873 51.4195C45.6323 51.4195 51.4299 45.638 51.4299 38.5126C51.4299 31.3873 45.6323 25.5804 38.4873 25.5804C31.3421 25.5804 25.5446 31.3873 25.5446 38.5126C25.5446 45.638 31.3421 51.4195 38.4873 51.4195Z" fill="#E6D110"/>
</svg>
