<svg width="34" height="33" viewBox="0 0 34 33" fill="none" xmlns="http://www.w3.org/2000/svg">
<path d="M18.8471 16.5004C18.8471 19.7251 16.3309 22.3388 13.2271 22.3388C10.1233 22.3388 7.60742 19.725 7.60742 16.5004C7.60742 13.2761 10.1234 10.6621 13.2271 10.6621C16.3309 10.6621 18.8471 13.2762 18.8471 16.5004Z" fill="#D9222A"/>
<path d="M20.7717 10.6616C19.3197 10.6616 17.9965 11.2339 16.9992 12.173C16.796 12.3645 16.6063 12.571 16.4317 12.7908H17.5672C17.7226 12.9872 17.8657 13.1937 17.9956 13.4092H16.0033C15.8835 13.6083 15.7754 13.8148 15.6796 14.0275H18.3192C18.4098 14.2286 18.4892 14.435 18.5572 14.6456H15.4417C15.3762 14.8483 15.3217 15.0547 15.2783 15.2638H18.7203C18.8045 15.6701 18.8469 16.0845 18.8468 16.5001C18.8468 17.1484 18.7449 17.7722 18.5571 18.3547H15.4416C15.5093 18.5654 15.5887 18.7718 15.6794 18.9729H18.3191C18.2232 19.1857 18.115 19.3922 17.9952 19.5913H16.0032C16.1331 19.8067 16.2762 20.0131 16.4317 20.2092H17.5669C17.3925 20.4295 17.2028 20.6362 16.9993 20.8276C17.9966 21.7665 19.3197 22.3385 20.7718 22.3385C23.8756 22.3385 26.3918 19.7248 26.3918 16.5002C26.3918 13.276 23.8756 10.6619 20.7718 10.6619" fill="#EE9F2D"/>
<path d="M25.6427 19.7548C25.6427 19.6507 25.7238 19.5661 25.8241 19.5661C25.9245 19.5661 26.0056 19.6507 26.0056 19.7548C26.0056 19.8588 25.9245 19.9435 25.8241 19.9435C25.7238 19.9435 25.6427 19.8588 25.6427 19.7548ZM25.8241 19.8981C25.9003 19.8981 25.9621 19.8339 25.9621 19.7548C25.9621 19.6757 25.9004 19.6116 25.8243 19.6115H25.8241C25.7481 19.6114 25.6864 19.6754 25.6863 19.7544V19.7548C25.6862 19.8339 25.7479 19.8981 25.824 19.8982C25.824 19.8981 25.8241 19.8981 25.8241 19.8981ZM25.7996 19.8377H25.7625V19.6719H25.8297C25.8438 19.6719 25.8582 19.6719 25.8706 19.6802C25.8835 19.6892 25.8908 19.7052 25.8908 19.7218C25.8908 19.7403 25.8802 19.7577 25.8632 19.7644L25.8925 19.8376H25.8513L25.827 19.772H25.7997L25.7996 19.8377ZM25.7996 19.7437H25.8202C25.8279 19.7437 25.836 19.7443 25.843 19.7404C25.8491 19.7363 25.8522 19.7287 25.8522 19.7214C25.8521 19.7146 25.8487 19.7083 25.8432 19.7046C25.8367 19.7004 25.8264 19.7013 25.8195 19.7013H25.7996V19.7437ZM11.9147 17.1396C11.8507 17.1318 11.8225 17.1298 11.7785 17.1298C11.4327 17.1298 11.2577 17.2529 11.2577 17.4963C11.2577 17.6462 11.3431 17.7417 11.4764 17.7417C11.7249 17.7417 11.904 17.4958 11.9147 17.1396ZM12.3584 18.2128H11.8529L11.8645 17.9631C11.7103 18.1604 11.5046 18.2542 11.225 18.2542C10.8943 18.2542 10.6676 17.9858 10.6676 17.5962C10.6676 17.01 11.062 16.6679 11.7389 16.6679C11.808 16.6679 11.8967 16.6744 11.9875 16.6864C12.0064 16.6071 12.0114 16.573 12.0114 16.5303C12.0114 16.3707 11.9051 16.3112 11.62 16.3112C11.3216 16.3077 11.0754 16.385 10.9743 16.4196C10.9807 16.3796 11.0588 15.8777 11.0588 15.8777C11.3629 15.7852 11.5634 15.7503 11.7891 15.7503C12.3129 15.7503 12.5904 15.9947 12.5899 16.4565C12.5909 16.5803 12.5712 16.733 12.5405 16.9337C12.4875 17.2828 12.3739 18.0305 12.3584 18.2128ZM10.4124 18.2128H9.80229L10.1517 15.9361L9.3714 18.2128H8.95567L8.90426 15.9491L8.53693 18.2128H7.96582L8.44285 15.2511H9.32012L9.37335 16.9089L9.90845 15.2511H10.8842L10.4124 18.2128ZM21.5256 17.1396C21.4618 17.1318 21.4335 17.1298 21.3897 17.1298C21.044 17.1298 20.8689 17.2529 20.8689 17.4963C20.8689 17.6462 20.9543 17.7417 21.0875 17.7417C21.3361 17.7417 21.5153 17.4958 21.5256 17.1396ZM21.9697 18.2128H21.4642L21.4756 17.9631C21.3214 18.1604 21.1156 18.2542 20.8363 18.2542C20.5055 18.2542 20.279 17.9858 20.279 17.5962C20.279 17.01 20.6731 16.6679 21.3501 16.6679C21.4193 16.6679 21.5078 16.6744 21.5985 16.6864C21.6174 16.6071 21.6224 16.573 21.6224 16.5303C21.6224 16.3707 21.5162 16.3112 21.2312 16.3112C20.9327 16.3077 20.6869 16.385 20.5854 16.4196C20.5917 16.3796 20.6702 15.8777 20.6702 15.8777C20.9742 15.7852 21.1746 15.7503 21.4 15.7503C21.9241 15.7503 22.2016 15.9947 22.2011 16.4565C22.2021 16.5803 22.1824 16.733 22.1517 16.9337C22.099 17.2828 21.9851 18.0305 21.9697 18.2128ZM15.0698 18.1762C14.9029 18.2308 14.7727 18.2542 14.6315 18.2542C14.3196 18.2542 14.1494 18.068 14.1494 17.7251C14.145 17.6187 14.1943 17.3387 14.233 17.0831C14.2682 16.8582 14.4975 15.4396 14.4975 15.4396H15.104L15.0332 15.8042H15.3994L15.3167 16.383H14.9491C14.8787 16.8411 14.7783 17.4116 14.7772 17.4873C14.7772 17.6114 14.841 17.6656 14.986 17.6656C15.0556 17.6656 15.1094 17.6582 15.1505 17.6428L15.0698 18.1762ZM16.9292 18.1567C16.7209 18.2228 16.5199 18.2548 16.3069 18.2542C15.628 18.2536 15.2741 17.8852 15.2741 17.1799C15.2741 16.3565 15.7243 15.7505 16.3354 15.7505C16.8354 15.7505 17.1548 16.0898 17.1548 16.622C17.1548 16.7986 17.1329 16.971 17.08 17.2144H15.8724C15.8315 17.5637 16.0467 17.7093 16.3995 17.7093C16.6166 17.7093 16.8124 17.6628 17.0301 17.5576L16.9292 18.1567ZM16.5884 16.7288C16.5917 16.6786 16.6527 16.2989 16.3062 16.2989C16.113 16.2989 15.9749 16.4519 15.9186 16.7288H16.5884ZM12.7244 16.5656C12.7244 16.8703 12.8666 17.0804 13.189 17.2381C13.4361 17.3588 13.4743 17.3946 13.4743 17.5038C13.4743 17.654 13.3654 17.7218 13.124 17.7218C12.942 17.7218 12.7727 17.6923 12.5774 17.6268C12.5774 17.6268 12.4971 18.1576 12.4935 18.183C12.6322 18.2145 12.7558 18.2435 13.1284 18.2542C13.7721 18.2542 14.0694 17.9996 14.0694 17.4492C14.0694 17.1183 13.945 16.9241 13.6394 16.7781C13.3836 16.6561 13.3542 16.6289 13.3542 16.5164C13.3542 16.3862 13.4556 16.3198 13.6528 16.3198C13.7726 16.3198 13.9361 16.3331 14.0911 16.356L14.178 15.7973C14.02 15.7713 13.7805 15.7504 13.6411 15.7504C12.9585 15.7505 12.7223 16.1208 12.7244 16.5656ZM19.8966 15.8138C20.0661 15.8138 20.224 15.86 20.4418 15.9738L20.5416 15.331C20.4522 15.2946 20.1376 15.0806 19.871 15.0806C19.4628 15.0806 19.1176 15.291 18.8748 15.6384C18.5208 15.5165 18.3752 15.7628 18.1968 16.0081L18.0383 16.0464C18.0503 15.9657 18.0611 15.8854 18.0575 15.8043H17.4972C17.4206 16.5496 17.285 17.3046 17.1788 18.051L17.1511 18.2128H17.7614C17.8633 17.5251 17.9191 17.0848 17.9531 16.7868L18.1829 16.654C18.2173 16.5213 18.3247 16.4765 18.5403 16.4819C18.5114 16.6448 18.4969 16.8101 18.4971 16.9758C18.4971 17.7637 18.9062 18.2543 19.5631 18.2543C19.7323 18.2543 19.8774 18.2311 20.1022 18.1678L20.2096 17.4926C20.0074 17.5961 19.8415 17.6447 19.6912 17.6447C19.3365 17.6447 19.1219 17.3727 19.1219 16.9232C19.1219 16.271 19.4411 15.8138 19.8966 15.8138Z" fill="black"/>
<path d="M10.5881 18.0364H9.97791L10.3277 15.76L9.54728 18.0364H9.13142L9.08001 15.773L8.71268 18.0364H8.1416L8.61863 15.0752H9.4959L9.52057 16.9084L10.1124 15.0752H11.06L10.5881 18.0364Z" fill="white"/>
<path d="M25.0624 15.251L24.9271 16.1067C24.7603 15.8786 24.581 15.7135 24.3444 15.7135C24.0366 15.7135 23.7564 15.956 23.5729 16.3128C23.3175 16.2578 23.0533 16.1644 23.0533 16.1644L23.0532 16.1666C23.0738 15.9671 23.082 15.8454 23.0802 15.804H22.5198C22.4435 16.5494 22.3078 17.3044 22.2018 18.0507L22.1738 18.2126H22.7841C22.8665 17.6565 22.9296 17.1948 22.9761 16.8286C23.1845 16.6329 23.2889 16.4622 23.4996 16.4735C23.4063 16.7079 23.3516 16.9778 23.3516 17.2547C23.3516 17.8569 23.6449 18.2541 24.0884 18.2541C24.312 18.2541 24.4835 18.174 24.6509 17.9883L24.6223 18.2122H25.1995L25.6642 15.251L25.0624 15.251ZM24.2994 17.6559C24.0917 17.6559 23.9868 17.4963 23.9868 17.1812C23.9868 16.7078 24.1832 16.3721 24.46 16.3721C24.6696 16.3721 24.7831 16.5381 24.7831 16.844C24.7831 17.3215 24.5836 17.6559 24.2994 17.6559Z" fill="black"/>
<path d="M12.0906 16.964C12.0267 16.9563 11.9984 16.9543 11.9546 16.9543C11.6087 16.9543 11.4338 17.0774 11.4338 17.3207C11.4338 17.4704 11.5192 17.5662 11.6523 17.5662C11.9011 17.5661 12.0802 17.3203 12.0906 16.964ZM12.5345 18.0368H12.029L12.0405 17.7876C11.8864 17.9845 11.6805 18.0787 11.4012 18.0787C11.0704 18.0787 10.8438 17.8103 10.8438 17.4207C10.8438 16.8342 11.238 16.4924 11.915 16.4924C11.9841 16.4924 12.0729 16.4989 12.1635 16.5109C12.1824 16.4315 12.1874 16.3975 12.1874 16.3546C12.1874 16.1949 12.0812 16.1357 11.7962 16.1357C11.4976 16.1322 11.2516 16.2096 11.1503 16.2437C11.1567 16.2039 11.2349 15.7026 11.2349 15.7026C11.5388 15.6096 11.7396 15.5748 11.965 15.5748C12.489 15.5748 12.7666 15.8193 12.7661 16.2807C12.767 16.405 12.7472 16.5576 12.7165 16.758C12.6637 17.1068 12.5499 17.8549 12.5345 18.0368ZM20.7177 15.1553L20.6178 15.7982C20.4002 15.6845 20.2421 15.6382 20.0728 15.6382C19.6172 15.6382 19.2979 16.0955 19.2979 16.7475C19.2979 17.1971 19.5126 17.469 19.8672 17.469C20.0175 17.469 20.1833 17.4205 20.3855 17.3169L20.2784 17.9918C20.0535 18.0555 19.9085 18.0787 19.7391 18.0787C19.0824 18.0787 18.6731 17.5881 18.6731 16.8001C18.6731 15.7414 19.2385 15.0015 20.0471 15.0015C20.3134 15.0015 20.6282 15.1188 20.7177 15.1553ZM21.7021 16.964C21.6382 16.9563 21.61 16.9543 21.566 16.9543C21.2203 16.9543 21.0452 17.0774 21.0452 17.3207C21.0452 17.4704 21.1307 17.5662 21.2639 17.5662C21.5124 17.5661 21.6916 17.3203 21.7021 16.964ZM22.146 18.0368H21.6403L21.652 17.7876C21.4978 17.9845 21.2919 18.0787 21.0126 18.0787C20.6819 18.0787 20.4552 17.8103 20.4552 17.4207C20.4552 16.8342 20.8496 16.4924 21.5263 16.4924C21.5956 16.4924 21.6842 16.4989 21.7749 16.5109C21.7937 16.4315 21.7988 16.3975 21.7988 16.3546C21.7988 16.1949 21.6926 16.1357 21.4076 16.1357C21.1092 16.1322 20.863 16.2096 20.7618 16.2437C20.7681 16.2039 20.8464 15.7026 20.8464 15.7026C21.1504 15.6096 21.351 15.5748 21.5764 15.5748C22.1005 15.5748 22.378 15.8193 22.3773 16.2807C22.3784 16.405 22.3587 16.5576 22.3279 16.758C22.2752 17.1068 22.1612 17.8549 22.146 18.0368ZM15.2461 18.0004C15.079 18.055 14.9488 18.0787 14.8078 18.0787C14.4959 18.0787 14.3257 17.8924 14.3257 17.5495C14.3214 17.4429 14.3707 17.1631 14.4094 16.9076C14.4445 16.6824 14.6738 15.264 14.6738 15.264H15.2802L15.2094 15.6287H15.5207L15.4378 16.2072H15.1255C15.0551 16.6656 14.9545 17.2357 14.9535 17.3115C14.9535 17.436 15.0174 17.4898 15.1623 17.4898C15.2318 17.4898 15.2856 17.4827 15.3268 17.4673L15.2461 18.0004ZM17.1055 17.9811C16.8973 18.0472 16.696 18.0791 16.4831 18.0787C15.8042 18.078 15.4504 17.7096 15.4504 17.0043C15.4504 16.1807 15.9005 15.5748 16.5117 15.5748C17.0117 15.5748 17.331 15.914 17.331 16.4464C17.331 16.6232 17.3091 16.7955 17.2564 17.0388H16.0487C16.0078 17.3882 16.2231 17.5339 16.5758 17.5339C16.7928 17.5339 16.9887 17.4872 17.2063 17.3818L17.1055 17.9811ZM16.7645 16.5528C16.7681 16.5028 16.829 16.1229 16.4823 16.1229C16.2893 16.1229 16.1511 16.2764 16.0949 16.5528H16.7645ZM12.9005 16.39C12.9005 16.6947 13.0427 16.9045 13.3652 17.0625C13.6123 17.1831 13.6505 17.219 13.6505 17.3283C13.6505 17.4784 13.5414 17.5462 13.3002 17.5462C13.1181 17.5462 12.9488 17.5167 12.7534 17.4512C12.7534 17.4512 12.6734 17.982 12.6697 18.0074C12.8081 18.0389 12.9319 18.0676 13.3045 18.0787C13.9484 18.0787 14.2456 17.824 14.2456 17.2738C14.2456 16.9427 14.1212 16.7485 13.8155 16.6026C13.5598 16.4803 13.5302 16.4535 13.5302 16.3409C13.5302 16.2108 13.6318 16.1438 13.8289 16.1438C13.9485 16.1438 14.1121 16.1575 14.2674 16.1804L14.3541 15.6216C14.1963 15.5956 13.9568 15.5748 13.8173 15.5748C13.1347 15.5748 12.8986 15.9449 12.9005 16.39ZM25.375 18.0368H24.7978L24.8265 17.8126C24.6591 17.9986 24.4876 18.0787 24.2639 18.0787C23.8204 18.0787 23.5273 17.6814 23.5273 17.0793C23.5273 16.2782 23.982 15.6029 24.52 15.6029C24.7567 15.6029 24.9358 15.7033 25.1025 15.9313L25.2379 15.0756H25.8397L25.375 18.0368ZM24.475 17.4803C24.7592 17.4803 24.9588 17.1459 24.9588 16.6687C24.9588 16.3628 24.8451 16.1968 24.6355 16.1968C24.3588 16.1968 24.1623 16.5323 24.1623 17.0059C24.1623 17.3209 24.2674 17.4803 24.475 17.4803ZM22.6955 15.6287C22.619 16.3741 22.4834 17.1291 22.3773 17.875L22.3494 18.0368H22.9596C23.1779 16.5643 23.2307 16.2767 23.5729 16.3127C23.6274 16.0113 23.7288 15.7473 23.8045 15.6141C23.5489 15.5588 23.4062 15.7088 23.2194 15.9938C23.2342 15.8706 23.2612 15.751 23.2558 15.6287L22.6955 15.6287ZM17.6731 15.6287C17.5965 16.3741 17.4609 17.1291 17.3548 17.875L17.327 18.0368H17.9375C18.1555 16.5643 18.2082 16.2767 18.5502 16.3127C18.605 16.0113 18.7064 15.7473 18.7818 15.6141C18.5266 15.5588 18.3837 15.7088 18.197 15.9938C18.2118 15.8706 18.2385 15.751 18.2334 15.6287L17.6731 15.6287ZM25.6431 17.8483C25.6429 17.7442 25.724 17.6598 25.8242 17.6596H25.8245C25.9246 17.6595 26.0059 17.7438 26.006 17.8477V17.8483C26.006 17.9524 25.9247 18.0367 25.8245 18.0368C25.7243 18.0367 25.6431 17.9524 25.6431 17.8483ZM25.8245 17.9915C25.9006 17.9916 25.9623 17.9275 25.9624 17.8485V17.8483C25.9625 17.7692 25.9008 17.705 25.8247 17.705H25.8245C25.7483 17.705 25.6866 17.7692 25.6865 17.8483C25.6866 17.9274 25.7484 17.9915 25.8245 17.9915ZM25.8 17.9307H25.7628V17.7654H25.8302C25.8442 17.7654 25.8587 17.7657 25.8708 17.7736C25.8838 17.7829 25.8912 17.7986 25.8912 17.8151C25.8912 17.8338 25.8807 17.8513 25.8634 17.8579L25.8929 17.9306H25.8516L25.8272 17.8653H25.8L25.8 17.9307ZM25.8 17.837H25.8204C25.8281 17.837 25.8365 17.8377 25.8433 17.8338C25.8494 17.8297 25.8525 17.822 25.8525 17.8147C25.8522 17.8078 25.8489 17.8015 25.8435 17.7977C25.8371 17.7938 25.8266 17.7949 25.8196 17.7949H25.8L25.8 17.837Z" fill="white"/>
</svg>
