<svg width="57" height="33" viewBox="0 0 57 33" fill="none" xmlns="http://www.w3.org/2000/svg">
<g clip-path="url(#clip0_2002_4018)">
<g clip-path="url(#clip1_2002_4018)">
<path fill-rule="evenodd" clip-rule="evenodd" d="M20.3546 12.8533C19.0931 12.8533 18.0352 13.2775 17.3434 13.9912V11.4297C17.3434 10.6582 16.7533 10.0986 15.9801 10.0986C15.1866 10.0986 14.5967 10.6774 14.5967 11.4297V21.5151C14.5967 22.2675 15.1867 22.8463 15.9598 22.8463C16.672 22.8463 17.2213 22.3447 17.2823 21.6309C17.9741 22.4026 19.0524 22.8463 20.3546 22.8463C23.1826 22.8463 25.2375 20.7436 25.2375 17.8498C25.2375 14.9561 23.1826 12.8533 20.3546 12.8533ZM19.846 20.4733C18.32 20.4733 17.3027 19.4123 17.3027 17.8498C17.3027 16.2871 18.3403 15.2067 19.846 15.2067C21.3515 15.2067 22.4503 16.3257 22.4503 17.8304C22.4503 19.3737 21.3718 20.4733 19.846 20.4733Z" fill="url(#paint0_linear_2002_4018)"/>
<path fill-rule="evenodd" clip-rule="evenodd" d="M56.2234 20.8398L53.3343 17.4057L55.8979 14.9364C56.203 14.647 56.3455 14.3383 56.3455 14.0104C56.3455 13.3545 55.7961 12.853 55.0839 12.853C54.7381 12.853 54.3921 12.988 54.1277 13.2581L50.9131 16.4412C50.5671 16.8078 50.4248 17.0778 50.4248 17.4057C50.4248 17.6951 50.5468 17.9652 50.852 18.351L54.2904 22.3636C54.5549 22.6917 54.8805 22.846 55.3077 22.846C55.9996 22.846 56.5488 22.325 56.5488 21.6498C56.5488 21.3604 56.4472 21.1098 56.2234 20.8398Z" fill="url(#paint1_linear_2002_4018)"/>
<path fill-rule="evenodd" clip-rule="evenodd" d="M47.2305 11.4385V21.5153C47.2305 22.2677 47.8206 22.8465 48.6141 22.8465C49.3871 22.8465 49.9772 22.2871 49.9772 21.5153V11.4385C49.9772 10.667 49.4076 10.1074 48.6141 10.1074C47.8205 10.1074 47.2305 10.6861 47.2305 11.4385Z" fill="url(#paint2_linear_2002_4018)"/>
<path fill-rule="evenodd" clip-rule="evenodd" d="M36.5625 14.1652V21.5153C36.5625 22.2677 37.1525 22.8465 37.9459 22.8465C38.7191 22.8465 39.3092 22.2871 39.3092 21.5153V17.0397C39.3092 15.9593 40.1027 15.1877 41.2217 15.1877C42.3406 15.1877 43.0935 15.9401 43.0935 17.0397V21.5153C43.0935 22.2677 43.6836 22.8465 44.4567 22.8465C45.2502 22.8465 45.8199 22.2871 45.8199 21.5153V16.6924C45.8199 14.3583 44.3347 12.8535 42.0356 12.8535C40.9166 12.8535 39.9196 13.22 39.2075 13.8373C39.065 13.2586 38.5565 12.8535 37.9257 12.8535C37.1526 12.8535 36.5625 13.4129 36.5625 14.1652Z" fill="url(#paint3_linear_2002_4018)"/>
<path fill-rule="evenodd" clip-rule="evenodd" d="M30.7982 12.853C29.3333 12.853 28.0109 13.2772 27.1564 14.0299C26.7902 14.3577 26.5868 14.705 26.5868 15.0715C26.5868 15.6501 27.0953 16.1324 27.7667 16.1324C28.0313 16.1324 28.255 16.0554 28.5806 15.8238C29.1707 15.3414 29.8012 15.1101 30.5134 15.1101C31.7341 15.1101 32.4056 15.7274 32.4056 16.7885V17.2128H29.8826C27.5227 17.2128 26.0781 18.2738 26.0781 19.9907C26.0781 21.6885 27.482 22.846 29.5572 22.846C30.7576 22.846 31.775 22.4794 32.5074 21.8236C32.6295 22.4023 33.1583 22.8268 33.8298 22.8268C34.5826 22.8268 35.1523 22.2866 35.1523 21.5342V16.9428C35.1523 14.3383 33.5653 12.853 30.7982 12.853ZM30.2896 20.9361C29.3944 20.9361 28.845 20.531 28.845 19.8944C28.845 19.2578 29.3334 18.9297 30.2489 18.9297H32.4056V19.0456C32.4056 20.1259 31.49 20.9361 30.2896 20.9361Z" fill="url(#paint4_linear_2002_4018)"/>
<path fill-rule="evenodd" clip-rule="evenodd" d="M10.9778 22.8463C11.7104 22.8463 12.3102 22.2781 12.3102 21.5833V14.118C12.3106 13.7936 12.181 13.4692 11.9214 13.223C11.4032 12.7316 10.5551 12.7317 10.037 13.223L7.2139 15.8999C6.69567 16.3912 6.69558 17.1952 7.2139 17.6866C7.73209 18.1779 8.58019 18.178 9.09842 17.6866L9.64523 17.1681V21.5834C9.64523 22.2782 10.2449 22.8463 10.9778 22.8463Z" fill="url(#paint5_linear_2002_4018)"/>
<path fill-rule="evenodd" clip-rule="evenodd" d="M0.500046 14.118C0.499676 13.7936 0.629211 13.4692 0.888743 13.223C1.40697 12.7316 2.25503 12.7317 2.77326 13.223L5.59634 15.8999C6.11457 16.3912 6.11466 17.1952 5.59634 17.6866C5.0782 18.1779 4.22996 18.178 3.71182 17.6866L3.16492 17.1681V21.5834C3.16492 22.2782 2.56525 22.8463 1.83253 22.8463C1.09976 22.8463 0.5 22.2782 0.5 21.5834L0.500046 14.118Z" fill="#FABF00"/>
</g>
</g>
<defs>
<linearGradient id="paint0_linear_2002_4018" x1="26.7442" y1="19.6809" x2="25.8654" y2="12.6778" gradientUnits="userSpaceOnUse">
<stop offset="1e-05" stop-color="#007E8B"/>
<stop offset="1" stop-color="#009C4D"/>
</linearGradient>
<linearGradient id="paint1_linear_2002_4018" x1="26.7442" y1="19.6807" x2="25.8655" y2="12.6776" gradientUnits="userSpaceOnUse">
<stop offset="1e-05" stop-color="#007E8B"/>
<stop offset="1" stop-color="#009C4D"/>
</linearGradient>
<linearGradient id="paint2_linear_2002_4018" x1="26.7443" y1="19.6812" x2="25.8655" y2="12.678" gradientUnits="userSpaceOnUse">
<stop offset="1e-05" stop-color="#007E8B"/>
<stop offset="1" stop-color="#009C4D"/>
</linearGradient>
<linearGradient id="paint3_linear_2002_4018" x1="26.7441" y1="19.6811" x2="25.8654" y2="12.678" gradientUnits="userSpaceOnUse">
<stop offset="1e-05" stop-color="#007E8B"/>
<stop offset="1" stop-color="#009C4D"/>
</linearGradient>
<linearGradient id="paint4_linear_2002_4018" x1="26.7445" y1="19.6807" x2="25.8658" y2="12.6776" gradientUnits="userSpaceOnUse">
<stop offset="1e-05" stop-color="#007E8B"/>
<stop offset="1" stop-color="#009C4D"/>
</linearGradient>
<linearGradient id="paint5_linear_2002_4018" x1="26.4107" y1="19.7196" x2="25.5523" y2="12.8017" gradientUnits="userSpaceOnUse">
<stop offset="1e-05" stop-color="#007E8B"/>
<stop offset="1" stop-color="#009C4D"/>
</linearGradient>
<clipPath id="clip0_2002_4018">
<rect width="56" height="33" fill="white" transform="translate(0.5)"/>
</clipPath>
<clipPath id="clip1_2002_4018">
<rect width="56.049" height="12.7476" fill="white" transform="translate(0.5 10.0986)"/>
</clipPath>
</defs>
</svg>
