<svg width="34" height="33" viewBox="0 0 34 33" fill="none" xmlns="http://www.w3.org/2000/svg">
<g clip-path="url(#clip0_2002_4006)">
<path d="M14.983 21.2572H12.5076L14.0547 11.7495H16.5303L14.983 21.2572ZM10.4252 11.7495L8.06531 18.289L7.78606 16.8808L7.78632 16.8813L6.9534 12.6055C6.9534 12.6055 6.85268 11.7495 5.77917 11.7495H1.87781L1.83203 11.9105C1.83203 11.9105 3.02508 12.1587 4.42133 12.9972L6.57191 21.2575H9.15103L13.0893 11.7495H10.4252ZM29.8951 21.2572H32.1681L30.1863 11.7492H28.1965C27.2776 11.7492 27.0538 12.4578 27.0538 12.4578L23.362 21.2572H25.9424L26.4584 19.8449H29.6052L29.8951 21.2572ZM27.1713 17.894L28.4719 14.336L29.2036 17.894H27.1713ZM23.5556 14.0359L23.9088 11.9941C23.9088 11.9941 22.8188 11.5796 21.6824 11.5796C20.454 11.5796 17.5369 12.1165 17.5369 14.7271C17.5369 17.1834 20.9607 17.2139 20.9607 18.5041C20.9607 19.7943 17.8897 19.5631 16.8762 18.7496L16.5082 20.8844C16.5082 20.8844 17.6135 21.4212 19.3022 21.4212C20.9914 21.4212 23.5398 20.5466 23.5398 18.1661C23.5398 15.6941 20.0853 15.4639 20.0853 14.3891C20.0855 13.3141 22.4963 13.4522 23.5556 14.0359Z" fill="#2566AF"/>
<path d="M7.78632 16.8808L6.9534 12.6051C6.9534 12.6051 6.85268 11.749 5.77917 11.749H1.87781L1.83203 11.91C1.83203 11.91 3.70718 12.2986 5.50577 13.7546C7.22553 15.1463 7.78632 16.8808 7.78632 16.8808Z" fill="#E6A540"/>
</g>
<defs>
<clipPath id="clip0_2002_4006">
<rect width="30.336" height="9.84166" fill="white" transform="translate(1.83203 11.5796)"/>
</clipPath>
</defs>
</svg>
