<svg width="45" height="45" viewBox="0 0 45 45" fill="none" xmlns="http://www.w3.org/2000/svg">
<g clip-path="url(#clip0_363_4571)">
<path d="M34.7901 30.5173C22.6238 30.5173 14.8426 22.8937 14.8426 10.7047C14.8426 7.91612 15.4498 4.52032 16.2594 2.65374C16.4618 2.1365 16.5068 1.79917 16.5068 1.59677C16.5068 1.01207 16.057 0.337402 15.1574 0.337402C14.9101 0.337402 14.3703 0.382381 13.8531 0.58478C5.57722 3.89062 0 12.6163 0 21.7467C0 34.5877 10.4123 45.0001 23.2534 45.0001C32.9461 45.0001 41.0644 39.1305 43.9205 31.8443C44.123 31.3044 44.1679 30.7422 44.1679 30.5399C44.1679 29.6853 43.4934 29.1455 42.8635 29.1455C42.5713 29.1455 42.3239 29.2131 41.8965 29.348C40.1425 29.9101 37.5562 30.5173 34.7901 30.5173Z" fill="#E6D110"/>
</g>
<defs>
<clipPath id="clip0_363_4571">
<rect width="44.8426" height="45" fill="white"/>
</clipPath>
</defs>
</svg>
