<svg width="55" height="50" viewBox="0 0 55 50" fill="none" xmlns="http://www.w3.org/2000/svg">
<g clip-path="url(#clip0_363_4568)">
<path d="M34.7166 43.2223C35.3124 43.5797 35.511 44.2747 35.1536 44.8706L32.5717 49.3591C32.234 49.955 31.5191 50.1536 30.9232 49.816C30.3075 49.4584 30.1487 48.7634 30.4863 48.2073L33.088 43.679C33.4456 43.0831 34.1208 42.8845 34.7166 43.2223Z" fill="#84D9FD"/>
<path d="M28.5197 37.6415C29.0957 37.9791 29.2944 38.6743 28.9368 39.2898L26.3549 43.7586C26.0173 44.3544 25.3023 44.553 24.7064 44.2352C24.0907 43.8778 23.9319 43.1826 24.2695 42.6067L26.8713 38.0982C27.2288 37.4825 27.904 37.2839 28.5197 37.6415Z" fill="#84D9FD"/>
<path d="M18.9275 43.2422C19.5232 43.5996 19.7219 44.2948 19.3446 44.8906L16.7626 49.3792C16.425 49.9749 15.71 50.1736 15.134 49.8359C14.5184 49.4785 14.3396 48.7833 14.6772 48.2273L17.279 43.6989C17.6564 43.1031 18.3316 42.9046 18.9275 43.2422Z" fill="#84D9FD"/>
<path d="M12.7107 37.6614C13.3065 37.999 13.5051 38.6942 13.1476 39.3099L10.5458 43.7785C10.2082 44.3743 9.4932 44.5729 8.91725 44.2551C8.30156 43.8977 8.12281 43.2025 8.46045 42.6266L11.0622 38.1181C11.4396 37.5026 12.1148 37.3039 12.7107 37.6614Z" fill="#84D9FD"/>
<path d="M42.2043 1.71324C42.2043 2.76585 40.7942 4.69235 40.7942 7.31399C40.7942 11.882 43.7337 14.6823 48.6591 14.6823C51.4595 14.6823 52.8894 13.4112 53.8626 13.4112C54.4981 13.4112 54.8359 13.9872 54.8359 14.7618C54.8359 17.7353 51.658 23.1086 45.0793 24.0074C44.8346 17.8292 40.0772 13.1542 33.7237 12.4977C33.1319 11.5687 32.4652 10.7198 31.7295 9.96254C32.8372 4.55662 37.4375 0.858938 40.9929 0.720194C41.7674 0.700333 42.2043 1.09755 42.2043 1.71324Z" fill="#E6D110"/>
<g filter="url(#filter0_d_363_4568)">
<path d="M11.1423 34.285H32.6515C38.2721 34.285 42.6416 30.0348 42.6416 24.5333C42.6416 19.0517 38.1928 14.9207 32.2542 14.881C29.9307 10.452 25.7996 7.87012 20.9932 7.87012C14.5385 7.87012 9.0569 12.8949 8.46108 19.4093C5.08474 20.4221 2.91992 23.2821 2.91992 26.7776C2.91992 31.2264 6.27638 34.285 11.1423 34.285Z" fill="white"/>
</g>
</g>
<defs>
<filter id="filter0_d_363_4568" x="-4.6576" y="0.292598" width="56.7217" height="43.4148" filterUnits="userSpaceOnUse" color-interpolation-filters="sRGB">
<feFlood flood-opacity="0" result="BackgroundImageFix"/>
<feColorMatrix in="SourceAlpha" type="matrix" values="0 0 0 0 0 0 0 0 0 0 0 0 0 0 0 0 0 0 127 0" result="hardAlpha"/>
<feOffset dx="0.922481" dy="0.922481"/>
<feGaussianBlur stdDeviation="4.25"/>
<feComposite in2="hardAlpha" operator="out"/>
<feColorMatrix type="matrix" values="0 0 0 0 0 0 0 0 0 0 0 0 0 0 0 0 0 0 0.12 0"/>
<feBlend mode="normal" in2="BackgroundImageFix" result="effect1_dropShadow_363_4568"/>
<feBlend mode="normal" in="SourceGraphic" in2="effect1_dropShadow_363_4568" result="shape"/>
</filter>
<clipPath id="clip0_363_4568">
<rect width="54.8357" height="50" fill="white"/>
</clipPath>
</defs>
</svg>
