<svg width="55" height="58" viewBox="0 0 55 58" fill="none" xmlns="http://www.w3.org/2000/svg">
<g clip-path="url(#clip0_363_4564)">
<path d="M34.721 57.9999C35.1406 57.9999 35.4434 57.5804 35.4201 57.161L35.2571 54.9472L37.1213 56.2055C37.4474 56.4153 37.9835 56.3221 38.2165 55.9725C38.4261 55.6231 38.3096 55.087 37.8435 54.8774L35.8395 53.922L37.867 52.92C38.3096 52.7102 38.4029 52.1976 38.2398 51.848C38.03 51.4751 37.4474 51.4053 37.1213 51.6149L35.2571 52.92L35.4434 50.6597C35.4901 50.2168 35.1406 49.844 34.721 49.844C34.2316 49.844 33.952 50.2168 33.9753 50.6597L34.1151 52.92L32.2276 51.6149C31.9015 51.4053 31.4122 51.4519 31.1791 51.848C30.9693 52.1976 31.0626 52.6869 31.5054 52.92L33.5094 53.922L31.5054 54.9007C31.0626 55.1103 30.9461 55.5996 31.1558 55.9725C31.3654 56.3688 31.9015 56.4386 32.2276 56.2055L34.1151 54.9472L33.9988 57.161C33.9753 57.5804 34.2316 57.9999 34.721 57.9999Z" fill="#ADE6E9"/>
<path d="M21.811 57.9999C22.2304 57.9999 22.5332 57.5804 22.51 57.161L22.3702 54.9472L24.2111 56.2055C24.5372 56.4153 25.0733 56.3221 25.3064 55.9725C25.516 55.6231 25.3994 55.087 24.9335 54.8774L22.9294 53.922L24.9568 52.92C25.3994 52.7102 25.4927 52.1976 25.3296 51.848C25.1199 51.4751 24.5372 51.4053 24.2111 51.6149L22.3702 52.92L22.5332 50.6597C22.58 50.2168 22.2304 49.844 21.811 49.844C21.3217 49.844 21.0419 50.2168 21.0654 50.6597L21.2051 52.92L19.3176 51.6149C18.9913 51.4053 18.502 51.4519 18.269 51.848C18.0592 52.1976 18.1524 52.6869 18.5952 52.92L20.5993 53.922L18.5952 54.9007C18.1524 55.1103 18.0359 55.5996 18.2456 55.9725C18.4554 56.3688 18.9913 56.4386 19.3176 56.2055L21.2051 54.9472L21.0886 57.161C21.0654 57.5804 21.3217 57.9999 21.811 57.9999Z" fill="#ADE6E9"/>
<path d="M8.90175 57.9999C9.3212 57.9999 9.62413 57.5804 9.60082 57.161L9.46101 54.9472L11.3019 56.2055C11.6515 56.4153 12.1641 56.3221 12.3971 55.9725C12.6068 55.6231 12.4903 55.087 12.0243 54.8774L10.0436 53.922L12.0476 52.92C12.4903 52.7102 12.5835 52.1976 12.4204 51.848C12.2107 51.4751 11.6515 51.4053 11.3019 51.6149L9.46101 52.92L9.62413 50.6597C9.67074 50.2168 9.3212 49.844 8.90175 49.844C8.41241 49.844 8.13277 50.2168 8.15607 50.6597L8.2959 52.92L6.4317 51.6149C6.08215 51.4053 5.5928 51.4519 5.35977 51.848C5.15005 52.1976 5.24327 52.6869 5.68602 52.92L7.69003 53.922L5.68602 54.9007C5.24327 55.1103 5.12674 55.5996 5.33647 55.9725C5.54619 56.3688 6.08215 56.4386 6.4317 56.2055L8.2959 54.9472L8.17938 57.161C8.15607 57.5804 8.41241 57.9999 8.90175 57.9999Z" fill="#ADE6E9"/>
<path d="M39.7777 49.2382C40.1971 49.2382 40.5001 48.8421 40.4768 48.4227L40.3136 46.1857L42.1778 47.444C42.5041 47.677 43.04 47.5838 43.273 47.2342C43.4828 46.8846 43.3663 46.3487 42.9002 46.139L40.8962 45.1602L42.9235 44.1582C43.3663 43.9486 43.4596 43.4593 43.2963 43.0864C43.0867 42.7136 42.5041 42.6436 42.1778 42.8767L40.3136 44.1582L40.5001 41.9212C40.5466 41.4786 40.1971 41.1057 39.7777 41.1057C39.2883 41.1057 39.0088 41.4786 39.032 41.9212L39.1718 44.1582L37.2843 42.8767C36.958 42.6436 36.4687 42.6903 36.2358 43.0864C36.026 43.4593 36.1193 43.9486 36.5619 44.1582L38.5659 45.1602L36.5619 46.139C36.1193 46.3487 36.0028 46.8614 36.2124 47.2342C36.4221 47.6071 36.958 47.677 37.2843 47.4673L39.1718 46.209L39.0553 48.4227C39.032 48.8421 39.2883 49.2382 39.7777 49.2382Z" fill="#ADE6E9"/>
<path d="M26.8675 49.2382C27.287 49.2382 27.5899 48.8421 27.5666 48.4227L27.4268 46.1857L29.2678 47.444C29.5939 47.677 30.1298 47.5838 30.3628 47.2342C30.5726 46.8846 30.4561 46.3487 29.99 46.139L27.986 45.1602L30.0135 44.1582C30.4561 43.9486 30.5494 43.4593 30.3861 43.0864C30.1765 42.7136 29.5939 42.6436 29.2678 42.8767L27.4268 44.1582L27.5899 41.9212C27.6364 41.4786 27.287 41.1057 26.8675 41.1057C26.3781 41.1057 26.0985 41.4786 26.1218 41.9212L26.2616 44.1582L24.3741 42.8767C24.048 42.6436 23.5586 42.6903 23.3256 43.0864C23.1158 43.4593 23.2091 43.9486 23.6517 44.1582L25.6557 45.1602L23.6517 46.139C23.2091 46.3487 23.0925 46.8614 23.3023 47.2342C23.5119 47.6071 24.048 47.677 24.3741 47.4673L26.2616 46.209L26.1451 48.4227C26.1218 48.8421 26.3781 49.2382 26.8675 49.2382Z" fill="#ADE6E9"/>
<path d="M13.9584 49.2382C14.3778 49.2382 14.6808 48.8421 14.6575 48.4227L14.5177 46.1857L16.3585 47.444C16.6848 47.677 17.2208 47.5838 17.4538 47.2342C17.6635 46.8846 17.547 46.3487 17.0809 46.139L15.1002 45.1602L17.1042 44.1582C17.547 43.9486 17.6402 43.4593 17.4771 43.0864C17.2673 42.7136 16.6848 42.6436 16.3585 42.8767L14.5177 44.1582L14.6808 41.9212C14.7274 41.4786 14.3778 41.1057 13.9584 41.1057C13.469 41.1057 13.1894 41.4786 13.2127 41.9212L13.3525 44.1582L11.4883 42.8767C11.1388 42.6436 10.6494 42.6903 10.4164 43.0864C10.2067 43.4593 10.2999 43.9486 10.7426 44.1582L12.7467 45.1602L10.7426 46.139C10.2999 46.3487 10.1834 46.8614 10.3931 47.2342C10.6028 47.6071 11.1388 47.677 11.4883 47.4673L13.3525 46.209L13.236 48.4227C13.2127 48.8421 13.469 49.2382 13.9584 49.2382Z" fill="#ADE6E9"/>
<g filter="url(#filter0_d_363_4564)">
<path d="M12.6299 37.6103H41.5483C49.1916 37.6103 54.8774 31.8079 54.8774 24.6306C54.8774 17.1972 48.8187 11.7677 40.9191 11.7677C38.0064 6.01198 32.6001 2.30688 25.8657 2.30688C17.104 2.30688 9.88022 9.18112 9.11123 17.8263C4.89348 19.0614 1.67773 22.7199 1.67773 27.6366C1.67773 33.1594 5.68578 37.6103 12.6299 37.6103Z" fill="white"/>
</g>
</g>
<defs>
<filter id="filter0_d_363_4564" x="-5.89978" y="-5.27063" width="70.1992" height="52.3035" filterUnits="userSpaceOnUse" color-interpolation-filters="sRGB">
<feFlood flood-opacity="0" result="BackgroundImageFix"/>
<feColorMatrix in="SourceAlpha" type="matrix" values="0 0 0 0 0 0 0 0 0 0 0 0 0 0 0 0 0 0 127 0" result="hardAlpha"/>
<feOffset dx="0.922481" dy="0.922481"/>
<feGaussianBlur stdDeviation="4.25"/>
<feComposite in2="hardAlpha" operator="out"/>
<feColorMatrix type="matrix" values="0 0 0 0 0 0 0 0 0 0 0 0 0 0 0 0 0 0 0.12 0"/>
<feBlend mode="normal" in2="BackgroundImageFix" result="effect1_dropShadow_363_4564"/>
<feBlend mode="normal" in="SourceGraphic" in2="effect1_dropShadow_363_4564" result="shape"/>
</filter>
<clipPath id="clip0_363_4564">
<rect width="54.8775" height="58" fill="white"/>
</clipPath>
</defs>
</svg>
