<svg width="55" height="50" viewBox="0 0 55 50" fill="none" xmlns="http://www.w3.org/2000/svg">
<g clip-path="url(#clip0_363_4566)">
<path d="M42.2043 1.71324C42.2043 2.76585 40.7942 4.69235 40.7942 7.31399C40.7942 11.882 43.7337 14.6823 48.6591 14.6823C51.4595 14.6823 52.8894 13.4112 53.8626 13.4112C54.4981 13.4112 54.8359 13.9872 54.8359 14.7618C54.8359 17.7353 51.658 23.1086 45.0793 24.0074C44.8346 17.8292 40.0772 13.1542 33.7237 12.4977C33.1319 11.5687 32.4652 10.7198 31.7295 9.96254C32.8372 4.55662 37.4375 0.858938 40.9929 0.720194C41.7674 0.700333 42.2043 1.09755 42.2043 1.71324Z" fill="#E6D110"/>
<g filter="url(#filter0_d_363_4566)">
<path d="M11.1423 34.285H32.6515C38.2721 34.285 42.6416 30.0348 42.6416 24.5333C42.6416 19.0517 38.1928 14.9207 32.2542 14.881C29.9307 10.452 25.7996 7.87012 20.9932 7.87012C14.5385 7.87012 9.0569 12.8949 8.46108 19.4093C5.08474 20.4221 2.91992 23.2821 2.91992 26.7776C2.91992 31.2264 6.27638 34.285 11.1423 34.285Z" fill="white"/>
</g>
<path d="M30.8836 49.1255L36.7624 38.9568C37.1 38.3611 36.9213 37.646 36.3254 37.3481C35.7495 37.0303 35.0543 37.1693 34.7167 37.785L28.8777 47.9141C28.5201 48.51 28.6989 49.205 29.2748 49.5624C29.831 49.9002 30.5659 49.7016 30.8836 49.1255Z" fill="#84D9FD"/>
<path d="M23.0385 49.1059L28.8576 38.9968C29.2152 38.3613 29.0364 37.6859 28.4405 37.3483C27.8249 36.9909 27.1496 37.1695 26.7921 37.805L20.9531 47.9539C20.6353 48.5102 20.7743 49.2052 21.39 49.5626C21.9859 49.9004 22.7007 49.7018 23.0385 49.1059Z" fill="#84D9FD"/>
<path d="M15.1341 49.1059L20.9534 38.9968C21.3108 38.3613 21.1322 37.6859 20.5363 37.3483C19.9206 36.9909 19.2454 37.1695 18.8878 37.805L13.0488 47.9539C12.731 48.5102 12.87 49.2052 13.4857 49.5626C14.0815 49.9004 14.7965 49.7018 15.1341 49.1059Z" fill="#84D9FD"/>
<path d="M7.20964 49.1059L13.0487 38.9968C13.4062 38.3613 13.2076 37.6859 12.6118 37.3483C12.0159 36.9909 11.3407 37.1695 10.9832 37.805L5.12426 47.9539C4.80648 48.5102 4.96537 49.2052 5.56119 49.5626C6.15701 49.9004 6.87201 49.7018 7.20964 49.1059Z" fill="#84D9FD"/>
</g>
<defs>
<filter id="filter0_d_363_4566" x="-4.6576" y="0.292598" width="56.7217" height="43.4148" filterUnits="userSpaceOnUse" color-interpolation-filters="sRGB">
<feFlood flood-opacity="0" result="BackgroundImageFix"/>
<feColorMatrix in="SourceAlpha" type="matrix" values="0 0 0 0 0 0 0 0 0 0 0 0 0 0 0 0 0 0 127 0" result="hardAlpha"/>
<feOffset dx="0.922481" dy="0.922481"/>
<feGaussianBlur stdDeviation="4.25"/>
<feComposite in2="hardAlpha" operator="out"/>
<feColorMatrix type="matrix" values="0 0 0 0 0 0 0 0 0 0 0 0 0 0 0 0 0 0 0.12 0"/>
<feBlend mode="normal" in2="BackgroundImageFix" result="effect1_dropShadow_363_4566"/>
<feBlend mode="normal" in="SourceGraphic" in2="effect1_dropShadow_363_4566" result="shape"/>
</filter>
<clipPath id="clip0_363_4566">
<rect width="54.8357" height="50" fill="white"/>
</clipPath>
</defs>
</svg>
