<svg width="29" height="21" viewBox="0 0 29 21" fill="none" xmlns="http://www.w3.org/2000/svg">
<g clip-path="url(#clip0_356_4298)">
<path d="M13.9336 2.55102C14.3438 2.45727 14.8125 2.37524 15.2695 2.37524C17.4919 2.3867 19.3448 3.92113 19.839 6.01681C19.5201 5.95612 19.1911 5.92602 18.8555 5.92602C18.5652 5.92602 18.2791 5.94788 17.9995 5.99281C17.5666 4.88073 16.5296 4.14477 15.2695 4.14477C14.8242 4.14477 14.5547 4.21509 14.0742 4.40259C13.4297 4.6604 13.0664 4.54321 12.8086 4.02759C12.1992 2.80883 10.8633 2.01196 9.36328 2.01196C7.23047 2.01196 5.51953 3.75805 5.51953 5.89087C5.51953 6.69946 5.29688 6.96899 4.5 7.05102C2.95312 7.2268 1.76953 8.58618 1.76953 10.1682C1.76953 12.0549 3.17578 13.3205 5.23828 13.3205H5.37859C4.93107 13.8048 4.59438 14.386 4.40249 15.031C1.72106 14.6897 0 12.6803 0 10.1682C0 7.87133 1.55859 5.93774 3.77344 5.3518C4.06641 2.48071 6.46875 0.242432 9.36328 0.242432C11.1914 0.242432 12.8555 1.10962 13.9336 2.55102Z" fill="#6C6C6C"/>
<path d="M8.84766 20.7737H22.9805C26.1328 20.7737 28.2188 18.6057 28.2188 15.8518C28.2188 13.5549 26.6602 11.6213 24.4453 11.0354C24.1523 8.16431 21.75 5.92603 18.8555 5.92603C17.0273 5.92603 15.3633 6.79322 14.2852 8.23463C13.875 8.14088 13.4062 8.05884 12.9492 8.05884C10.6758 8.05884 8.78906 9.66431 8.34375 11.844C6 12.1018 4.21875 13.9651 4.21875 16.2971C4.21875 18.8752 6.17578 20.7737 8.84766 20.7737ZM8.84766 19.0041C7.14844 19.0041 5.98828 17.9026 5.98828 16.2971C5.98828 14.7737 7.23047 13.5784 8.80078 13.5549C9.62109 13.5315 9.94922 13.2854 10.0078 12.594C10.1367 10.9885 11.3672 9.82838 12.9492 9.82838C13.3945 9.82838 13.6641 9.89868 14.1445 10.0862C14.7891 10.3323 15.1523 10.2268 15.4102 9.71118C16.0195 8.49243 17.3555 7.70728 18.8555 7.69556C20.9883 7.69556 22.6992 9.44165 22.6992 11.5745C22.6992 12.383 22.9219 12.6409 23.7188 12.7346C25.2656 12.9104 26.4492 14.2698 26.4492 15.8518C26.4492 17.7385 25.043 19.0041 22.9805 19.0041H8.84766Z" fill="#6C6C6C"/>
</g>
<defs>
<clipPath id="clip0_356_4298">
<rect width="28.6172" height="20.543" fill="white" transform="translate(0 0.230713)"/>
</clipPath>
</defs>
</svg>
