<svg width="24" height="24" viewBox="0 0 24 24" fill="none" xmlns="http://www.w3.org/2000/svg">
<g clip-path="url(#clip0_356_4295)">
<path d="M18.3633 15.9141C11.9062 15.9141 7.94531 12.0234 7.94531 5.77734C7.94531 3.99609 8.29688 2.42578 8.73047 1.58203C8.90625 1.24219 8.94141 1.07812 8.94141 0.84375C8.94141 0.457031 8.57812 0 8.08594 0C7.99219 0 7.76953 0.0351562 7.44141 0.164062C3.10547 1.92188 0 6.38672 0 11.4141C0 18.1992 5.50781 23.6953 12.2812 23.6953C17.0156 23.6953 21.293 21.0352 23.3672 16.6523C23.5195 16.3477 23.5312 16.0898 23.5312 15.9609C23.5312 15.4805 23.1211 15.1523 22.7578 15.1523C22.5703 15.1523 22.4297 15.1641 22.1484 15.2695C21.1992 15.6562 19.7695 15.9141 18.3633 15.9141ZM1.83984 11.332C1.83984 7.6875 3.73828 4.24219 6.77344 2.30859C6.39844 3.39844 6.19922 4.60547 6.19922 5.94141C6.19922 13.2656 10.6172 17.625 18.0938 17.625C19.3008 17.625 20.3203 17.4844 21.293 17.1445C19.5117 20.0859 16.125 21.8789 12.3633 21.8789C6.33984 21.8789 1.83984 17.3906 1.83984 11.332Z" fill="#6C6C6C"/>
</g>
<defs>
<clipPath id="clip0_356_4295">
<rect width="23.8828" height="23.7539" fill="white"/>
</clipPath>
</defs>
</svg>
