<svg width="32" height="22" viewBox="0 0 32 22" fill="none" xmlns="http://www.w3.org/2000/svg">
<g clip-path="url(#clip0_356_4296)">
<path d="M23.9677 1.95325C23.9677 2.6095 23.5575 3.33606 23.5575 4.66028C23.5575 7.40247 25.1396 9.04309 28.1278 9.04309C29.37 9.04309 29.9442 8.7384 30.6474 8.7384C31.5614 8.7384 32.0653 9.58215 31.6786 10.5314C30.8166 12.7841 28.4216 14.9804 24.678 15.0586C24.6726 14.4439 24.5701 13.8596 24.3828 13.3167C24.4076 13.3203 24.4337 13.3204 24.4599 13.3204C27.0732 13.3204 29.1474 11.9845 29.956 10.4611L29.8739 10.379C29.3349 10.5548 28.5614 10.6954 27.7294 10.6954C24.3192 10.6954 21.87 8.41028 21.87 5.01184C21.87 4.1095 22.0458 3.32434 22.245 2.76184L22.1161 2.66809C20.581 3.51184 19.2216 5.26965 19.2216 7.63684C19.2216 8.27282 19.3008 8.87328 19.4515 9.42777C19.1467 9.37696 18.8304 9.35209 18.5067 9.34778C18.2231 8.81681 17.8933 8.32848 17.5205 7.89067C17.5116 7.81973 17.5107 7.74602 17.5107 7.672C17.5107 4.33215 19.62 1.68371 22.1044 0.875118C23.1357 0.511837 23.9677 0.992306 23.9677 1.95325Z" fill="#6C6C6C"/>
<path d="M5.97852 21.0195H18.6582C22.0449 21.0195 24.6816 18.4531 24.6816 15.1484C24.6816 11.8672 22.0215 9.39453 18.5058 9.34766C17.1348 6.78125 14.6855 5.21094 11.791 5.21094C7.91212 5.21094 4.66602 8.19922 4.2793 12.0547C2.33399 12.6641 1.00977 14.3516 1.00977 16.4844C1.00977 19.1211 3.00196 21.0195 5.97852 21.0195ZM5.93165 19.1445C3.93946 19.1445 2.88477 17.9961 2.88477 16.5313C2.88477 15.2891 3.61133 14.1992 5.33399 13.7305C5.89649 13.5899 6.10743 13.332 6.1543 12.7344C6.42383 9.45313 8.86133 7.08594 11.791 7.08594C14.0644 7.08594 15.834 8.33985 16.9238 10.5195C17.1816 11.0234 17.4629 11.1992 18.0605 11.1992C21.0957 11.1992 22.7949 13.0274 22.7949 15.207C22.7949 17.3867 21.0137 19.1445 18.6933 19.1445H5.93165Z" fill="#6C6C6C"/>
</g>
<defs>
<clipPath id="clip0_356_4296">
<rect width="31.8096" height="20.762" fill="white" transform="translate(0 0.753906)"/>
</clipPath>
</defs>
</svg>
