<svg width="33" height="32" viewBox="0 0 33 32" fill="none" xmlns="http://www.w3.org/2000/svg">
<g clip-path="url(#clip0_356_4300)">
<path d="M14.7332 24.0478L13.657 26.0868H15.9871C16.3152 26.0868 16.3973 26.4032 16.1629 26.6493L11.2059 31.6532C11.0887 31.7821 10.9598 31.8173 10.8543 31.7704C10.7488 31.7353 10.7137 31.6064 10.784 31.454L12.2845 27.8212H10.327C10.0223 27.8212 9.90504 27.6454 10.0223 27.3642L11.5223 23.954C11.6277 23.7314 11.7332 23.6025 12.0496 23.6025H14.4988C14.7566 23.6025 14.8621 23.79 14.7332 24.0478Z" fill="#6C6C6C"/>
<path d="M24.2716 2.88377C24.2716 3.54002 23.8614 4.26658 23.8614 5.5908C23.8614 8.33299 25.4434 9.97362 28.4317 9.97362C29.6739 9.97362 30.2481 9.66893 30.9513 9.66893C31.8653 9.66893 32.3692 10.5127 31.9825 11.4502C31.1205 13.7144 28.7255 15.911 24.9818 15.9892C24.9764 15.37 24.8725 14.7815 24.6822 14.2354C24.7084 14.2391 24.7361 14.2393 24.7638 14.2393C27.377 14.2393 29.4513 12.9151 30.2599 11.3916L30.1778 11.3096C29.6388 11.4854 28.8653 11.626 28.0333 11.626C24.6231 11.626 22.1739 9.3408 22.1739 5.94237C22.1739 5.04002 22.3497 4.25487 22.5489 3.68065L22.42 3.59862C20.8849 4.43065 19.5255 6.20018 19.5255 8.56737C19.5255 9.20381 19.6048 9.80425 19.7557 10.3583C19.4509 10.3075 19.1344 10.2826 18.8106 10.2783C18.527 9.74733 18.1971 9.259 17.8244 8.8212C17.8155 8.75025 17.8145 8.67654 17.8145 8.60252C17.8145 5.26268 19.9239 2.61424 22.4083 1.79393C23.4395 1.44236 24.2716 1.92283 24.2716 2.88377Z" fill="#6C6C6C"/>
<path d="M6.2832 21.9502H18.9629C22.3496 21.9502 24.9863 19.3838 24.9863 16.0791C24.9863 12.7979 22.3262 10.3252 18.8105 10.2783C17.4394 7.71192 14.9902 6.1416 12.0957 6.1416C8.21679 6.1416 4.9707 9.12989 4.58398 12.9854C2.63867 13.5947 1.31445 15.2822 1.31445 17.4151C1.31445 20.0518 3.30664 21.9502 6.2832 21.9502ZM6.23632 20.0752C4.24414 20.0752 3.18945 18.9268 3.18945 17.4619C3.18945 16.2197 3.91601 15.1182 5.63867 14.6612C6.20117 14.5205 6.41211 14.2627 6.45898 13.6651C6.72851 10.3838 9.16601 8.0166 12.0957 8.0166C14.3691 8.0166 16.1387 9.27051 17.2285 11.4502C17.4863 11.9541 17.7676 12.1299 18.3652 12.1299C21.4004 12.1299 23.0996 13.958 23.0996 16.1377C23.0996 18.3174 21.3183 20.0752 18.998 20.0752H6.23632Z" fill="#6C6C6C"/>
</g>
<defs>
<clipPath id="clip0_356_4300">
<rect width="32.1143" height="30.9186" fill="white" transform="translate(0 0.871826)"/>
</clipPath>
</defs>
</svg>
