<svg width="33" height="30" viewBox="0 0 33 30" fill="none" xmlns="http://www.w3.org/2000/svg">
<g clip-path="url(#clip0_356_4301)">
<path d="M24.2716 1.65001C24.2716 2.30626 23.8614 3.02111 23.8614 4.35705C23.8614 7.09923 25.4434 8.72814 28.4317 8.72814C29.6739 8.72814 30.2481 8.42345 30.9513 8.42345C31.8653 8.42345 32.3692 9.27892 31.9825 10.2164C31.1205 12.4692 28.7252 14.6656 24.9813 14.7436C24.9751 14.1281 24.8719 13.5438 24.684 13.0016C24.7096 13.0053 24.7367 13.0054 24.7638 13.0054C27.377 13.0054 29.4513 11.6695 30.2599 10.1461L30.1778 10.0641C29.6388 10.2399 28.8653 10.3922 28.0333 10.3922C24.6231 10.3922 22.1739 8.09533 22.1739 4.70861C22.1739 3.79455 22.3497 3.00939 22.5489 2.44689L22.42 2.35314C20.8849 3.19689 19.5255 4.96642 19.5255 7.32189C19.5255 7.95938 19.6045 8.56058 19.7548 9.11536C19.4502 9.06394 19.1341 9.03822 18.8106 9.03283C18.5268 8.50161 18.1968 8.01306 17.8239 7.5751C17.8154 7.50816 17.8145 7.4386 17.8145 7.36876C17.8145 4.02892 19.9239 1.38048 22.4083 0.560174C23.4395 0.208611 24.2716 0.677361 24.2716 1.65001Z" fill="#6C6C6C"/>
<path d="M6.2832 20.7049H18.9629C22.3496 20.7049 24.9863 18.1502 24.9863 14.8455C24.9863 11.5525 22.3262 9.09155 18.8105 9.03296C17.4394 6.46655 14.9902 4.89624 12.0957 4.89624C8.21679 4.89624 4.9707 7.89624 4.58398 11.74C2.63867 12.3494 1.31445 14.0369 1.31445 16.1697C1.31445 18.8181 3.30664 20.7049 6.2832 20.7049ZM6.23632 18.8299C4.24414 18.8299 3.18945 17.6814 3.18945 16.2166C3.18945 14.9861 3.91601 13.8845 5.63867 13.4275C6.20117 13.2752 6.41211 13.0174 6.45898 12.4314C6.72851 9.13843 9.16601 6.77124 12.0957 6.77124C14.3691 6.77124 16.1387 8.02514 17.2285 10.2165C17.4863 10.7205 17.7676 10.8845 18.3652 10.8845C21.4004 10.8845 23.0996 12.7127 23.0996 14.8924C23.0996 17.0838 21.3183 18.8299 18.998 18.8299H6.23632Z" fill="#6C6C6C"/>
<path d="M18.223 28.9862L21.6917 22.9862C21.8909 22.6347 21.7855 22.2128 21.4339 22.037C21.0941 21.8495 20.6839 21.9315 20.4847 22.2948L17.0394 28.2714C16.8284 28.623 16.9339 29.0331 17.2737 29.244C17.6019 29.4433 18.0355 29.3261 18.223 28.9862Z" fill="#6C6C6C"/>
<path d="M13.5935 28.9747L17.027 23.0099C17.238 22.6349 17.1325 22.2364 16.7809 22.0372C16.4177 21.8263 16.0192 21.9317 15.8083 22.3067L12.363 28.295C12.1755 28.6232 12.2575 29.0333 12.6208 29.2442C12.9724 29.4435 13.3942 29.3263 13.5935 28.9747Z" fill="#6C6C6C"/>
<path d="M8.92937 28.9747L12.363 23.0099C12.5739 22.6349 12.4685 22.2364 12.1169 22.0372C11.7536 21.8263 11.3552 21.9317 11.1442 22.3067L7.6989 28.295C7.5114 28.6232 7.59343 29.0333 7.95671 29.2442C8.30827 29.4435 8.73015 29.3263 8.92937 28.9747Z" fill="#6C6C6C"/>
<path d="M4.25382 28.9747L7.69913 23.0099C7.91007 22.6349 7.79288 22.2364 7.44132 22.0372C7.08975 21.8263 6.69132 21.9317 6.48038 22.3067L3.02335 28.295C2.83585 28.6232 2.9296 29.0333 3.28116 29.2442C3.63272 29.4435 4.0546 29.3263 4.25382 28.9747Z" fill="#6C6C6C"/>
</g>
<defs>
<clipPath id="clip0_356_4301">
<rect width="32.1143" height="29.5491" fill="white" transform="translate(0 0.322754)"/>
</clipPath>
</defs>
</svg>
