<svg width="33" height="31" viewBox="0 0 33 31" fill="none" xmlns="http://www.w3.org/2000/svg">
<g clip-path="url(#clip0_356_4302)">
<path d="M20.3465 26.3236C20.6981 26.5346 20.8152 26.9447 20.6043 27.2963L19.0691 29.9447C18.8816 30.2963 18.4481 30.4135 18.1082 30.2143C17.7449 30.0033 17.6395 29.5932 17.8387 29.265L19.3738 26.5932C19.5965 26.2416 19.9949 26.1244 20.3465 26.3236Z" fill="#6C6C6C"/>
<path d="M16.6777 23.0307C17.0293 23.2299 17.1465 23.64 16.9355 24.0033L15.4121 26.64C15.2129 26.9916 14.791 27.1088 14.4394 26.9213C14.0762 26.7103 13.9824 26.3002 14.1816 25.9603L15.7168 23.3002C15.9277 22.9369 16.3262 22.8197 16.6777 23.0307Z" fill="#6C6C6C"/>
<path d="M11.0296 26.3353C11.3694 26.5463 11.4865 26.9564 11.2756 27.308L9.75219 29.9564C9.55297 30.308 9.1311 30.4252 8.77953 30.226C8.42797 30.015 8.3225 29.6049 8.52172 29.2768L10.0569 26.6049C10.2679 26.2533 10.6663 26.1361 11.0296 26.3353Z" fill="#6C6C6C"/>
<path d="M7.36156 23.0424C7.71313 23.2416 7.8186 23.6518 7.60766 24.015L6.08422 26.6518C5.885 27.0033 5.46313 27.1205 5.11156 26.933C4.76 26.7221 4.65453 26.3119 4.85375 25.9721L6.38891 23.3119C6.59985 22.9486 6.99828 22.8314 7.36156 23.0424Z" fill="#6C6C6C"/>
<path d="M24.2716 2.10094C24.2716 2.75719 23.8614 3.47204 23.8614 4.80798C23.8614 7.55016 25.4434 9.17907 28.4317 9.17907C29.6739 9.17907 30.2481 8.87438 30.9513 8.87438C31.8653 8.87438 32.3692 9.72985 31.9825 10.6674C31.1205 12.9202 28.7252 15.1166 24.9813 15.1946C24.9751 14.5791 24.8719 13.9948 24.684 13.4526C24.7096 13.4563 24.7367 13.4564 24.7638 13.4564C27.377 13.4564 29.4513 12.1205 30.2599 10.597L30.1778 10.515C29.6388 10.6908 28.8653 10.8432 28.0333 10.8432C24.6231 10.8432 22.1739 8.54626 22.1739 5.15954C22.1739 4.24548 22.3497 3.46032 22.5489 2.89782L22.42 2.80407C20.8849 3.64782 19.5255 5.41735 19.5255 7.77282C19.5255 8.41031 19.6045 9.01151 19.7548 9.56629C19.4502 9.51487 19.1341 9.48915 18.8106 9.48376C18.5268 8.95254 18.1968 8.46399 17.8239 8.02603C17.8154 7.95909 17.8145 7.88953 17.8145 7.81969C17.8145 4.47985 19.9239 1.83141 22.4083 1.0111C23.4395 0.659539 24.2716 1.12829 24.2716 2.10094Z" fill="#6C6C6C"/>
<path d="M6.2832 21.1558H18.9629C22.3496 21.1558 24.9863 18.6011 24.9863 15.2964C24.9863 12.0034 22.3262 9.54248 18.8105 9.48389C17.4394 6.91748 14.9902 5.34717 12.0957 5.34717C8.21679 5.34717 4.9707 8.34717 4.58398 12.1909C2.63867 12.8003 1.31445 14.4878 1.31445 16.6206C1.31445 19.269 3.30664 21.1558 6.2832 21.1558ZM6.23632 19.2808C4.24414 19.2808 3.18945 18.1323 3.18945 16.6675C3.18945 15.437 3.91601 14.3354 5.63867 13.8784C6.20117 13.7261 6.41211 13.4683 6.45898 12.8823C6.72851 9.58936 9.16601 7.22217 12.0957 7.22217C14.3691 7.22217 16.1387 8.47607 17.2285 10.6675C17.4863 11.1714 17.7676 11.3354 18.3652 11.3354C21.4004 11.3354 23.0996 13.1636 23.0996 15.3433C23.0996 17.5347 21.3183 19.2808 18.998 19.2808H6.23632Z" fill="#6C6C6C"/>
</g>
<defs>
<clipPath id="clip0_356_4302">
<rect width="32.1143" height="29.5491" fill="white" transform="translate(0 0.773682)"/>
</clipPath>
</defs>
</svg>
