<svg width="28" height="28" viewBox="0 0 28 28" fill="none" xmlns="http://www.w3.org/2000/svg">
<g clip-path="url(#clip0_356_4299)">
<path d="M21.9609 25.4038H6.71484C6.30469 25.4038 5.97656 25.7202 5.97656 26.1421C5.97656 26.564 6.30469 26.8921 6.71484 26.8921H21.9609C22.3711 26.8921 22.6992 26.564 22.6992 26.1421C22.6992 25.7202 22.3711 25.4038 21.9609 25.4038Z" fill="#6C6C6C"/>
<path d="M21.9609 21.4312H6.71484C6.30469 21.4312 5.97656 21.7476 5.97656 22.1694C5.97656 22.5913 6.30469 22.9077 6.71484 22.9077H21.9609C22.3711 22.9077 22.6992 22.5913 22.6992 22.1694C22.6992 21.7476 22.3711 21.4312 21.9609 21.4312Z" fill="#6C6C6C"/>
<path d="M6.35156 18.7124H20.8945C24.7383 18.7124 27.5977 15.7944 27.5977 12.1851C27.5977 8.44678 24.5508 5.71631 20.5781 5.71631C19.1133 2.82178 16.3945 0.958496 13.0078 0.958496C8.60156 0.958496 4.96875 4.41553 4.58203 8.76319C2.46094 9.38428 0.84375 11.2241 0.84375 13.6968C0.84375 16.4741 2.85938 18.7124 6.35156 18.7124ZM6.32812 16.8374C3.92578 16.8374 2.71875 15.4897 2.71875 13.7554C2.71875 12.3491 3.53906 11.0835 5.53125 10.5562C6.17578 10.3804 6.41016 10.0757 6.46875 9.41944C6.73828 5.58741 9.60938 2.8335 13.0078 2.8335C15.6445 2.8335 17.7188 4.28662 18.9844 6.87647C19.2539 7.45069 19.6055 7.64991 20.2969 7.64991C23.7656 7.64991 25.7227 9.73584 25.7227 12.2319C25.7227 14.7866 23.6836 16.8374 21.0117 16.8374H6.32812Z" fill="#6C6C6C"/>
</g>
<defs>
<clipPath id="clip0_356_4299">
<rect width="27.5977" height="26.8477" fill="white" transform="translate(0 0.958496)"/>
</clipPath>
</defs>
</svg>
