<svg width="29" height="20" viewBox="0 0 29 20" fill="none" xmlns="http://www.w3.org/2000/svg">
<g clip-path="url(#clip0_356_4297)">
<path d="M6 19.0667H21.2578C25.207 19.0667 28.2656 16.0784 28.2656 12.2581C28.2656 8.40259 25.1367 5.49634 20.8828 5.49634C19.3242 2.40259 16.4648 0.515869 12.9844 0.515869C8.4375 0.515869 4.59375 4.04321 4.18359 8.71899C1.83984 9.38696 0.257812 11.3557 0.257812 13.8518C0.257812 16.7347 2.35547 19.0667 6 19.0667ZM5.97656 17.18C3.57422 17.18 2.14453 15.8792 2.14453 13.9104C2.14453 12.2229 3.22266 11.0042 5.12109 10.5002C5.77734 10.3362 6.02344 10.0315 6.07031 9.35181C6.35156 5.37915 9.32812 2.40259 12.9844 2.40259C15.8086 2.40259 17.9883 3.9729 19.3008 6.66821C19.582 7.24243 19.9219 7.44165 20.6367 7.44165C24.3047 7.44165 26.3672 9.65649 26.3672 12.305C26.3672 15.0354 24.1875 17.18 21.3867 17.18H5.97656Z" fill="#6C6C6C"/>
</g>
<defs>
<clipPath id="clip0_356_4297">
<rect width="28.2656" height="18.7148" fill="white" transform="translate(0 0.515869)"/>
</clipPath>
</defs>
</svg>
