<svg width="28" height="30" viewBox="0 0 28 30" fill="none" xmlns="http://www.w3.org/2000/svg">
<g clip-path="url(#clip0_356_4303)">
<path d="M17.461 29.9585C17.672 29.9585 17.8243 29.7475 17.8126 29.5366L17.7306 28.4233L18.6681 29.0561C18.8321 29.1616 19.1017 29.1147 19.2189 28.9389C19.3243 28.7632 19.2657 28.4936 19.0313 28.3882L18.0235 27.9077L19.0431 27.4038C19.2657 27.2983 19.3126 27.0405 19.2306 26.8647C19.1251 26.6772 18.8321 26.6421 18.6681 26.7475L17.7306 27.4038L17.8243 26.2671C17.8478 26.0444 17.672 25.8569 17.461 25.8569C17.2149 25.8569 17.0743 26.0444 17.086 26.2671L17.1563 27.4038L16.2071 26.7475C16.0431 26.6421 15.797 26.6655 15.6798 26.8647C15.5743 27.0405 15.6212 27.2866 15.8439 27.4038L16.8517 27.9077L15.8439 28.3999C15.6212 28.5053 15.5626 28.7514 15.6681 28.9389C15.7735 29.1382 16.0431 29.1733 16.2071 29.0561L17.1563 28.4233L17.0978 29.5366C17.086 29.7475 17.2149 29.9585 17.461 29.9585Z" fill="#6C6C6C"/>
<path d="M10.9689 29.9585C11.1798 29.9585 11.3321 29.7475 11.3204 29.5366L11.2501 28.4233L12.1759 29.0561C12.3399 29.1616 12.6095 29.1147 12.7267 28.9389C12.8321 28.7632 12.7735 28.4936 12.5392 28.3882L11.5313 27.9077L12.5509 27.4038C12.7735 27.2983 12.8204 27.0405 12.7384 26.8647C12.6329 26.6772 12.3399 26.6421 12.1759 26.7475L11.2501 27.4038L11.3321 26.2671C11.3556 26.0444 11.1798 25.8569 10.9689 25.8569C10.7228 25.8569 10.5821 26.0444 10.5939 26.2671L10.6642 27.4038L9.71491 26.7475C9.55085 26.6421 9.30476 26.6655 9.18757 26.8647C9.0821 27.0405 9.12898 27.2866 9.35163 27.4038L10.3595 27.9077L9.35163 28.3999C9.12898 28.5053 9.07038 28.7514 9.17585 28.9389C9.28132 29.1382 9.55085 29.1733 9.71491 29.0561L10.6642 28.4233L10.6056 29.5366C10.5939 29.7475 10.7228 29.9585 10.9689 29.9585Z" fill="#6C6C6C"/>
<path d="M4.47663 29.9585C4.68757 29.9585 4.83991 29.7475 4.82819 29.5366L4.75788 28.4233L5.68366 29.0561C5.85945 29.1616 6.11726 29.1147 6.23445 28.9389C6.33991 28.7632 6.28132 28.4936 6.04695 28.3882L5.05085 27.9077L6.05866 27.4038C6.28132 27.2983 6.32819 27.0405 6.24616 26.8647C6.14069 26.6772 5.85945 26.6421 5.68366 26.7475L4.75788 27.4038L4.83991 26.2671C4.86335 26.0444 4.68757 25.8569 4.47663 25.8569C4.23054 25.8569 4.08991 26.0444 4.10163 26.2671L4.17195 27.4038L3.23445 26.7475C3.05866 26.6421 2.81257 26.6655 2.69538 26.8647C2.58991 27.0405 2.63679 27.2866 2.85945 27.4038L3.86726 27.9077L2.85945 28.3999C2.63679 28.5053 2.57819 28.7514 2.68366 28.9389C2.78913 29.1382 3.05866 29.1733 3.23445 29.0561L4.17195 28.4233L4.11335 29.5366C4.10163 29.7475 4.23054 29.9585 4.47663 29.9585Z" fill="#6C6C6C"/>
<path d="M20.004 25.5522C20.2149 25.5522 20.3673 25.353 20.3556 25.1421L20.2735 24.0171L21.211 24.6499C21.3751 24.7671 21.6446 24.7202 21.7618 24.5444C21.8673 24.3686 21.8087 24.0991 21.5743 23.9936L20.5665 23.5014L21.586 22.9975C21.8087 22.8921 21.8556 22.646 21.7735 22.4585C21.6681 22.271 21.3751 22.2358 21.211 22.353L20.2735 22.9975L20.3673 21.8725C20.3907 21.6499 20.2149 21.4624 20.004 21.4624C19.7579 21.4624 19.6173 21.6499 19.629 21.8725L19.6993 22.9975L18.7501 22.353C18.586 22.2358 18.3399 22.2593 18.2228 22.4585C18.1173 22.646 18.1642 22.8921 18.3868 22.9975L19.3946 23.5014L18.3868 23.9936C18.1642 24.0991 18.1056 24.3569 18.211 24.5444C18.3165 24.7319 18.586 24.7671 18.7501 24.6616L19.6993 24.0288L19.6407 25.1421C19.629 25.353 19.7579 25.5522 20.004 25.5522Z" fill="#6C6C6C"/>
<path d="M13.5117 25.5522C13.7227 25.5522 13.875 25.353 13.8633 25.1421L13.793 24.0171L14.7188 24.6499C14.8828 24.7671 15.1523 24.7202 15.2695 24.5444C15.375 24.3686 15.3164 24.0991 15.082 23.9936L14.0742 23.5014L15.0938 22.9975C15.3164 22.8921 15.3633 22.646 15.2812 22.4585C15.1758 22.271 14.8828 22.2358 14.7188 22.353L13.793 22.9975L13.875 21.8725C13.8984 21.6499 13.7227 21.4624 13.5117 21.4624C13.2656 21.4624 13.125 21.6499 13.1367 21.8725L13.207 22.9975L12.2578 22.353C12.0938 22.2358 11.8477 22.2593 11.7305 22.4585C11.625 22.646 11.6719 22.8921 11.8945 22.9975L12.9023 23.5014L11.8945 23.9936C11.6719 24.0991 11.6133 24.3569 11.7188 24.5444C11.8242 24.7319 12.0938 24.7671 12.2578 24.6616L13.207 24.0288L13.1484 25.1421C13.1367 25.353 13.2656 25.5522 13.5117 25.5522Z" fill="#6C6C6C"/>
<path d="M7.0196 25.5522C7.23054 25.5522 7.38288 25.353 7.37116 25.1421L7.30085 24.0171L8.22663 24.6499C8.39069 24.7671 8.66023 24.7202 8.77741 24.5444C8.88288 24.3686 8.82429 24.0991 8.58991 23.9936L7.59382 23.5014L8.60163 22.9975C8.82429 22.8921 8.87116 22.646 8.78913 22.4585C8.68366 22.271 8.39069 22.2358 8.22663 22.353L7.30085 22.9975L7.38288 21.8725C7.40632 21.6499 7.23054 21.4624 7.0196 21.4624C6.77351 21.4624 6.63288 21.6499 6.6446 21.8725L6.71491 22.9975L5.77741 22.353C5.60163 22.2358 5.35554 22.2593 5.23835 22.4585C5.13288 22.646 5.17976 22.8921 5.40241 22.9975L6.41023 23.5014L5.40241 23.9936C5.17976 24.0991 5.12116 24.3569 5.22663 24.5444C5.3321 24.7319 5.60163 24.7671 5.77741 24.6616L6.71491 24.0288L6.65632 25.1421C6.6446 25.353 6.77351 25.5522 7.0196 25.5522Z" fill="#6C6C6C"/>
<path d="M6.35156 19.7046H20.8945C24.7383 19.7046 27.5977 16.7866 27.5977 13.1772C27.5977 9.43896 24.5508 6.70849 20.5781 6.70849C19.1133 3.81396 16.3945 1.95068 13.0078 1.95068C8.60156 1.95068 4.96875 5.40771 4.58203 9.75536C2.46094 10.3765 0.84375 12.2163 0.84375 14.6889C0.84375 17.4663 2.85938 19.7046 6.35156 19.7046ZM6.32812 17.8296C3.92578 17.8296 2.71875 16.4819 2.71875 14.7475C2.71875 13.3413 3.53906 12.0757 5.53125 11.5483C6.17578 11.3725 6.41016 11.0678 6.46875 10.4116C6.73828 6.57958 9.60938 3.82568 13.0078 3.82568C15.6445 3.82568 17.7188 5.2788 18.9844 7.86864C19.2539 8.44286 19.6055 8.64208 20.2969 8.64208C23.7656 8.64208 25.7227 10.728 25.7227 13.2241C25.7227 15.7788 23.6836 17.8296 21.0117 17.8296H6.32812Z" fill="#6C6C6C"/>
</g>
<defs>
<clipPath id="clip0_356_4303">
<rect width="27.5977" height="29.168" fill="white" transform="translate(0 0.790527)"/>
</clipPath>
</defs>
</svg>
