<svg width="28" height="29" viewBox="0 0 28 29" fill="none" xmlns="http://www.w3.org/2000/svg">
<path d="M14.3273 5.10278V7.61034L16.8324 6.16367L17.4546 7.24198L14.3273 9.04705V13.3578L18.0606 11.2024V7.59167H19.3051V10.4838L21.4772 9.23061L22.0995 10.3083L19.9273 11.5621L22.4324 13.0081L21.8101 14.0864L18.6829 12.2801L14.9495 14.4355L18.6835 16.5915L21.8101 14.7858L22.4324 15.8635L19.9273 17.3095L22.0995 18.5639L21.4772 19.6416L19.3051 18.3879V21.2806H18.0606V17.6692L14.3273 15.5132V19.8246L17.4546 21.6303L16.8324 22.7079L14.3273 21.2613V23.7695H13.0829V21.2613L10.5778 22.7079L9.95556 21.6303L13.0829 19.8246V15.5132L9.34952 17.6686V21.2806H8.10507V18.3872L5.93352 19.6416L5.31129 18.5639L7.48223 17.3095L4.97778 15.8635L5.60001 14.7858L8.72667 16.5909L12.46 14.4355L8.72729 12.2801L5.60001 14.0864L4.97778 13.0081L7.48285 11.5621L5.31129 10.3083L5.93352 9.23061L8.10507 10.4838V7.59167H9.34952V11.2024L13.0829 13.3578V9.04705L9.95556 7.24198L10.5778 6.16367L13.0829 7.61034V5.10278H14.3273Z" fill="#3C3C3C"/>
</svg>
