<svg width="28" height="29" viewBox="0 0 28 29" fill="none" xmlns="http://www.w3.org/2000/svg">
<path d="M20.5334 5.69519C21.1893 5.69519 21.7269 6.20292 21.7748 6.84692L21.7779 6.93963V21.873C21.7779 22.5288 21.2701 23.0664 20.6261 23.1137L20.5334 23.1174H6.84454C6.18872 23.1174 5.65112 22.6097 5.60321 21.9657L5.6001 21.873V6.93963C5.6001 6.28381 6.10783 5.74621 6.75183 5.6983L6.84454 5.69519H20.5334ZM20.5334 6.93963H6.84454V21.873H10.5779V13.7841C10.5779 12.0661 11.971 10.673 13.689 10.673C15.3621 10.673 16.7267 11.9933 16.797 13.6491L16.8001 13.7841V21.873H20.5334V6.93963ZM15.5557 20.6285H11.8223V21.873H15.5557V20.6285ZM15.5557 18.1396H11.8223V19.3841H15.5557V18.1396ZM13.689 11.9174C12.6947 11.9174 11.8821 12.6946 11.8254 13.6746L11.8223 13.7841V16.8952H15.5557V13.7841C15.5557 12.7531 14.72 11.9174 13.689 11.9174ZM13.689 8.18408C14.0325 8.18408 14.3112 8.46283 14.3112 8.8063C14.3112 9.14977 14.0325 9.42852 13.689 9.42852C13.3455 9.42852 13.0668 9.14977 13.0668 8.8063C13.0668 8.46283 13.3455 8.18408 13.689 8.18408Z" fill="#3C3C3C"/>
</svg>
