<svg width="28" height="29" viewBox="0 0 28 29" fill="none" xmlns="http://www.w3.org/2000/svg">
<path d="M6.84439 6.31738H21.7777C22.1212 6.31738 22.3999 6.59614 22.3999 6.9396V21.8729C22.3999 22.2164 22.1212 22.4952 21.7777 22.4952H6.84439C6.50092 22.4952 6.22217 22.2164 6.22217 21.8729V6.9396C6.22217 6.59614 6.50092 6.31738 6.84439 6.31738Z" stroke="#3C3C3C"/>
<path d="M22.3999 11.2952H6.22217" stroke="#3C3C3C"/>
<path d="M19.911 8.18408C20.2545 8.18408 20.5333 8.46284 20.5333 8.8063C20.5333 9.14977 20.2545 9.42853 19.911 9.42853C19.5676 9.42853 19.2888 9.14977 19.2888 8.8063C19.2888 8.46284 19.5676 8.18408 19.911 8.18408Z" fill="#3C3C3C"/>
<path d="M16.1776 8.18408C16.5211 8.18408 16.7999 8.46284 16.7999 8.8063C16.7999 9.14977 16.5211 9.42853 16.1776 9.42853C15.8342 9.42853 15.5554 9.14977 15.5554 8.8063C15.5554 8.46284 15.8342 8.18408 16.1776 8.18408Z" fill="#3C3C3C"/>
<path d="M12.4445 8.18408C12.788 8.18408 13.0667 8.46284 13.0667 8.8063C13.0667 9.14977 12.788 9.42853 12.4445 9.42853C12.101 9.42853 11.8223 9.14977 11.8223 8.8063C11.8223 8.46284 12.101 8.18408 12.4445 8.18408Z" fill="#3C3C3C"/>
<path d="M8.71109 8.18408C9.05456 8.18408 9.33331 8.46284 9.33331 8.8063C9.33331 9.14977 9.05456 9.42853 8.71109 9.42853C8.36762 9.42853 8.08887 9.14977 8.08887 8.8063C8.08887 8.46284 8.36762 8.18408 8.71109 8.18408Z" fill="#3C3C3C"/>
<path d="M8.71094 13.7841H19.9109V20.0063H8.71094V13.7841Z" stroke="#3C3C3C"/>
<path d="M22.3999 11.2952H6.22217" stroke="#3C3C3C"/>
</svg>
