<svg width="28" height="29" viewBox="0 0 28 29" fill="none" xmlns="http://www.w3.org/2000/svg">
<path d="M12.6857 19.1645C12.6857 18.4719 13.2475 17.9101 13.9402 17.9101C14.6328 17.9101 15.1946 18.4719 15.1946 19.1645C15.1946 19.8572 14.6328 20.4181 13.9402 20.4181C13.2475 20.4181 12.6857 19.8572 12.6857 19.1645ZM16.4482 19.1645C16.4482 17.7792 15.3255 16.6565 13.9402 16.6565C12.5549 16.6565 11.4321 17.7792 11.4321 19.1645C11.4321 20.5498 12.5549 21.6725 13.9402 21.6725C15.3255 21.6725 16.4482 20.5498 16.4482 19.1645Z" fill="#3C3C3C"/>
<path d="M18.9831 16.6294C18.055 14.7853 16.1454 13.5212 13.9401 13.5212C11.7347 13.5212 9.82516 14.7862 8.89697 16.6294L9.8461 17.5786C10.482 15.9385 12.075 14.7748 13.9401 14.7748C15.8052 14.7748 17.3981 15.9385 18.034 17.5786L18.9831 16.6294Z" fill="#3C3C3C"/>
<path d="M21.274 14.3386C19.7037 11.9571 17.0056 10.386 13.9401 10.386C10.8746 10.386 8.17644 11.958 6.6062 14.3386L7.5152 15.2468C8.83681 13.0842 11.2201 11.6404 13.9401 11.6404C16.661 11.6404 19.0442 13.0842 20.3659 15.2476L21.274 14.3386Z" fill="#3C3C3C"/>
<path d="M23.5246 12.0879C21.3551 9.15421 17.8691 7.25073 13.94 7.25073C10.0109 7.25073 6.52502 9.15421 4.35547 12.0879L5.254 12.9847C7.18626 10.2734 10.3564 8.50518 13.94 8.50518C17.5237 8.50518 20.6947 10.2734 22.627 12.9856L23.5246 12.0879Z" fill="#3C3C3C"/>
</svg>
