<svg width="66" height="44" viewBox="0 0 66 44" fill="none" xmlns="http://www.w3.org/2000/svg">
<path d="M19.2114 42.63C19.0664 42.978 18.7619 43.268 18.2979 43.5C18.0949 43.384 17.9064 43.239 17.7324 43.065C17.5874 42.92 17.3989 42.804 17.1669 42.717C16.9929 42.369 16.8624 42.166 16.7754 42.108C16.6884 42.021 16.5869 41.963 16.4709 41.934C16.2969 41.789 16.1519 41.615 16.0359 41.412C15.9199 41.209 15.7894 41.035 15.6444 40.89C15.5864 40.861 15.4704 40.774 15.2964 40.629C15.1514 40.455 14.9919 40.281 14.8179 40.107C14.6439 39.933 14.4844 39.7735 14.3394 39.6285C14.1944 39.4545 14.1074 39.3675 14.0784 39.3675C13.8174 39.1935 13.5854 39.005 13.3824 38.802C13.3244 38.715 13.2519 38.628 13.1649 38.541C13.1069 38.425 13.0489 38.338 12.9909 38.28C12.7589 38.193 12.5704 38.077 12.4254 37.932C12.2804 37.758 12.1354 37.5695 11.9904 37.3666C11.8744 37.1636 11.7294 36.9896 11.5554 36.8446C11.4104 36.6706 11.2364 36.5401 11.0334 36.4531C10.8304 36.1631 10.5839 35.9311 10.2939 35.7571C10.0039 35.5541 9.75739 35.3221 9.55439 35.0611C9.38039 34.8581 9.19189 34.6696 8.98889 34.4956C8.78589 34.2926 8.56839 34.1041 8.33639 33.9301C8.2204 33.7561 8.0319 33.5096 7.7709 33.1906C7.5099 32.8426 7.2779 32.6541 7.0749 32.6251C7.0459 33.2921 7.0169 33.9591 6.9879 34.6261C6.9879 35.2931 6.9734 35.9601 6.9444 36.6271C6.9444 36.9751 6.9444 37.3376 6.9444 37.7146C6.9734 38.0915 6.9734 38.4685 6.9444 38.8455C6.9154 38.9905 6.8719 39.15 6.8139 39.324C6.7849 39.469 6.7704 39.6285 6.7704 39.8025C6.7704 40.1505 6.7414 40.3825 6.6834 40.4985C6.6544 40.5855 6.6254 40.6725 6.5964 40.7595C6.5094 41.0495 6.4224 41.412 6.3354 41.847C6.2774 42.253 6.1324 42.572 5.9004 42.804C5.58141 42.833 5.33491 42.804 5.16091 42.717C5.10291 42.775 5.04491 42.833 4.98691 42.891C4.92891 42.949 4.84191 42.978 4.72591 42.978C4.66791 42.92 4.56641 42.862 4.42141 42.804C4.30541 42.775 4.21841 42.7605 4.16041 42.7605C4.01541 42.7605 3.85591 42.7895 3.68191 42.8475C3.53691 42.9055 3.39191 42.9345 3.24692 42.9345C3.10192 42.9345 2.97142 42.891 2.85542 42.804C2.76842 42.746 2.65242 42.717 2.50742 42.717C2.42042 42.717 2.31892 42.7605 2.20292 42.8475C2.08692 42.9345 1.97092 42.978 1.85492 42.978C1.70992 42.978 1.57942 42.949 1.46342 42.891C1.37642 42.862 1.27492 42.833 1.15892 42.804C1.15892 42.717 1.15892 42.63 1.15892 42.543C1.18792 42.456 1.18792 42.369 1.15892 42.282L0.984924 41.1945C1.01392 40.9915 1.04292 40.7885 1.07192 40.5855C1.12992 40.3825 1.17342 40.194 1.20242 40.02C1.23142 39.556 1.24592 39.121 1.24592 38.715C1.27492 38.28 1.28942 37.8451 1.28942 37.41C1.28942 36.6561 1.27492 35.9166 1.24592 35.1916C1.24592 34.4666 1.26042 33.7271 1.28942 32.9731C1.31842 32.7121 1.34742 32.4511 1.37642 32.1901C1.43442 31.9001 1.46342 31.6246 1.46342 31.3636C1.46342 30.6096 1.50692 29.8701 1.59392 29.1451C1.68092 28.4201 1.75342 27.6806 1.81142 26.9266C1.86942 26.3466 1.89842 25.7811 1.89842 25.2301C1.89842 24.6791 1.89842 24.1281 1.89842 23.5771C1.89842 22.5041 1.88392 21.4456 1.85492 20.4016C1.82592 19.3286 1.81142 18.2701 1.81142 17.2261C1.81142 16.8781 1.82592 16.4141 1.85492 15.8341C1.88392 15.2251 1.85492 14.7611 1.76792 14.4421C1.79692 13.6011 1.79692 12.7747 1.76792 11.9627C1.88392 11.9047 1.94192 11.8177 1.94192 11.7017C1.97092 11.5857 1.98542 11.4697 1.98542 11.3537V10.7447C2.24642 10.4547 2.46392 10.3097 2.63792 10.3097C2.78292 10.3097 2.92792 10.3242 3.07292 10.3532C3.21792 10.3822 3.36291 10.4402 3.50791 10.5272C3.88491 10.4402 4.13141 10.4257 4.24741 10.4837C4.36341 10.5417 4.49391 10.5997 4.63891 10.6577C4.87091 10.6287 5.03041 10.5272 5.11741 10.3532C5.43641 10.4112 5.59591 10.4837 5.59591 10.5707C5.59591 10.6577 5.62491 10.7447 5.68291 10.8317C5.9729 10.8607 6.1614 10.8462 6.2484 10.7882C6.3644 10.7012 6.4949 10.6432 6.6399 10.6142C6.9009 10.6722 7.0749 10.7447 7.1619 10.8317C7.1619 11.0057 7.2054 11.2087 7.2924 11.4407C7.3794 11.6437 7.4229 11.9192 7.4229 12.2672C7.4229 12.5282 7.4084 12.7892 7.3794 13.0502C7.3504 13.2822 7.3359 13.5141 7.3359 13.7461C7.3359 14.1521 7.3504 14.5436 7.3794 14.9206C7.4084 15.2976 7.4229 15.6891 7.4229 16.0951C7.4229 16.2111 7.4084 16.3271 7.3794 16.4431C7.3794 16.5301 7.3794 16.6316 7.3794 16.7476C7.3794 17.8496 7.4084 18.9661 7.4664 20.0971C7.5244 21.2281 7.5534 22.3591 7.5534 23.4901C7.5534 23.5481 7.5389 23.6351 7.5099 23.7511C7.4809 23.8381 7.4954 23.9106 7.5534 23.9686C8.0464 23.4466 8.46689 22.8956 8.81489 22.3156C9.16289 21.7066 9.53989 21.1121 9.94589 20.5321C10.2939 20.0971 10.6419 19.5751 10.9899 18.9661C11.3669 18.3571 11.6859 17.8061 11.9469 17.3131C12.0629 17.1391 12.1644 16.9651 12.2514 16.7911C12.3384 16.6171 12.4399 16.4431 12.5559 16.2691C12.6139 16.1241 12.6864 15.9936 12.7734 15.8776C12.8894 15.7326 12.9764 15.5731 13.0344 15.3991C13.1794 15.1671 13.3099 14.9496 13.4259 14.7466C13.5419 14.5146 13.6724 14.2826 13.8174 14.0506C13.9624 13.8186 14.1074 13.6157 14.2524 13.4417C14.4264 13.2387 14.5859 13.0357 14.7309 12.8327C14.9629 12.4557 15.2094 12.0787 15.4704 11.7017C15.7314 11.2957 15.9634 10.8897 16.1664 10.4837C16.4564 10.3387 16.7174 10.1792 16.9494 10.0052C17.1814 9.80217 17.4279 9.62817 17.6889 9.48317C17.9789 9.86016 18.1819 10.1212 18.2979 10.2662C18.4429 10.4112 18.6314 10.4982 18.8634 10.5272C18.9214 10.6142 18.9504 10.7157 18.9504 10.8317C18.9794 10.9477 19.0374 11.0347 19.1244 11.0927C19.4723 11.1217 19.6754 11.1217 19.7333 11.0927C19.8203 11.2377 19.9363 11.3537 20.0813 11.4407C20.2553 11.4987 20.4148 11.5567 20.5598 11.6147C20.5598 11.7017 20.5598 11.8032 20.5598 11.9192C20.5598 12.0062 20.5743 12.0787 20.6033 12.1367C20.9513 12.2817 21.1253 12.5572 21.1253 12.9632C20.5743 13.9491 19.9653 14.8916 19.2984 15.7906C18.6604 16.6606 18.0949 17.6031 17.6019 18.6181C17.4569 18.9371 17.2829 19.2416 17.0799 19.5316C16.9059 19.8216 16.7609 20.1261 16.6449 20.4451C16.4419 20.6481 16.2824 20.8656 16.1664 21.0976C16.0504 21.3006 15.9054 21.5036 15.7314 21.7066C15.6154 21.8516 15.4994 22.0111 15.3834 22.1851C15.2674 22.3301 15.1514 22.4751 15.0354 22.6201C14.8034 22.9391 14.5859 23.2726 14.3829 23.6206C14.2089 23.9396 13.9914 24.2586 13.7304 24.5776C13.5564 24.8676 13.3534 25.1576 13.1214 25.4476C12.8894 25.7666 12.6864 26.1291 12.5124 26.5351C12.3674 26.9121 12.1789 27.2601 11.9469 27.5791C11.7149 27.9271 11.5844 28.1881 11.5554 28.3621C11.5554 28.5071 11.4829 28.7681 11.3379 29.1451C11.5409 29.4641 11.7729 29.7541 12.0339 30.0151C12.2949 30.2761 12.5704 30.5226 12.8604 30.7546C13.0924 31.0736 13.3534 31.3636 13.6434 31.6246C13.9624 31.8566 14.2814 32.1176 14.6004 32.4076C14.7164 32.5236 14.8179 32.6396 14.9049 32.7556C14.9919 32.8426 15.0934 32.9296 15.2094 33.0166C15.5284 33.3646 15.9054 33.6981 16.3404 34.0171C16.8044 34.3361 17.2394 34.6406 17.6454 34.9306C17.9644 35.2206 18.3559 35.5831 18.8199 36.0181C19.3128 36.4241 19.8203 36.8736 20.3423 37.3666C20.8643 37.8305 21.3283 38.28 21.7343 38.715C22.1403 39.121 22.3433 39.382 22.3433 39.498C22.1983 39.933 22.0243 40.2085 21.8213 40.3245C21.6473 40.4115 21.5168 40.5565 21.4298 40.7595C21.2558 40.8175 21.1688 40.8755 21.1688 40.9335C21.1688 40.9915 21.1253 41.093 21.0383 41.238C20.8353 41.383 20.6613 41.557 20.5163 41.76C20.3713 41.934 20.2263 42.108 20.0813 42.282C19.9653 42.34 19.8493 42.398 19.7333 42.456C19.6463 42.485 19.5738 42.5575 19.5159 42.6735L19.2114 42.63Z" fill="#00B2A9"/>
<path d="M45.7027 25.2736C45.6447 25.3896 45.5867 25.5056 45.5287 25.6216C45.4707 25.7086 45.4272 25.8101 45.3982 25.9261C45.5142 26.0421 45.6157 26.1726 45.7027 26.3176C45.8187 26.4336 45.8767 26.5641 45.8767 26.7091C45.8767 26.8251 45.8477 26.9411 45.7897 27.0571C45.7607 27.1441 45.7607 27.2311 45.7897 27.3181C45.6737 27.5211 45.5432 27.7096 45.3982 27.8836C45.2822 28.0576 45.1952 28.2461 45.1372 28.4491C45.0212 28.5651 44.9197 28.6811 44.8327 28.7971C44.7747 28.9131 44.7168 29.0291 44.6587 29.1451C44.5137 29.2031 44.4123 29.3046 44.3542 29.4496C44.3253 29.5656 44.2528 29.6671 44.1367 29.7541C44.1077 29.8701 43.9627 30.1456 43.7018 30.5806C43.4408 31.0156 43.1508 31.4796 42.8318 31.9726C42.5128 32.4656 42.2083 32.9441 41.9183 33.4081C41.6283 33.8721 41.4253 34.1766 41.3093 34.3216C41.2513 34.4666 41.1788 34.5826 41.0918 34.6696C41.0338 34.7566 40.9613 34.8581 40.8743 34.9741C40.8163 35.0611 40.7728 35.1626 40.7438 35.2786C40.7148 35.3656 40.6713 35.4381 40.6133 35.4961C40.5553 35.6121 40.4828 35.7136 40.3958 35.8006C40.3378 35.8876 40.2798 36.0036 40.2218 36.1486C39.9318 36.5256 39.6418 36.9751 39.3518 37.4971C39.0618 38.019 38.7863 38.483 38.5253 38.889C38.3803 39.121 38.2353 39.353 38.0903 39.585C37.9743 39.817 37.8438 40.049 37.6988 40.281C37.5538 40.513 37.4088 40.7305 37.2638 40.9335C37.1188 41.1365 36.9738 41.354 36.8288 41.586C36.5968 41.76 36.3938 41.9775 36.2198 42.2385C36.0458 42.4705 35.8428 42.6735 35.6108 42.8475C35.2338 42.8475 35.0018 42.6735 34.9148 42.3255C34.5378 42.2385 34.3493 42.2385 34.3493 42.3255C34.3493 42.4125 34.3493 42.485 34.3493 42.543C34.2333 42.601 34.1463 42.688 34.0883 42.804C34.0593 42.92 33.9868 43.007 33.8708 43.065C33.6388 43.007 33.4358 42.9055 33.2618 42.7605C33.1168 42.6445 32.8993 42.601 32.6093 42.63C32.4933 42.456 32.3628 42.311 32.2178 42.195C32.0728 42.05 31.9423 41.905 31.8263 41.76C31.7683 41.586 31.6813 41.441 31.5653 41.325C31.4783 41.209 31.3913 41.093 31.3043 40.977C31.2173 40.832 31.1303 40.7015 31.0433 40.5855C30.9563 40.4695 30.8693 40.3535 30.7823 40.2375C30.5793 39.9765 30.3763 39.73 30.1733 39.498C29.9993 39.237 29.8398 38.976 29.6948 38.715C29.4628 38.367 29.2308 38.019 28.9988 37.6711C28.7958 37.2941 28.5783 36.9316 28.3463 36.5836C28.2303 36.4096 28.1143 36.2356 27.9983 36.0616C27.8823 35.8876 27.7808 35.7136 27.6938 35.5396C27.6358 35.3946 27.5488 35.2206 27.4328 35.0176C27.3458 34.8146 27.2298 34.6841 27.0848 34.6261C27.0268 34.3941 26.9253 34.2201 26.7803 34.1041C26.6353 33.9881 26.4903 33.8431 26.3453 33.6691C26.1423 33.4371 25.9538 33.1906 25.7798 32.9296C25.6058 32.6396 25.4318 32.3496 25.2578 32.0596C24.6778 31.2476 24.1268 30.4501 23.6048 29.6671C23.1118 28.8841 22.6188 28.0721 22.1258 27.2311C22.2708 26.7671 22.3433 26.4191 22.3433 26.1871C22.3433 25.9551 22.4158 25.7666 22.5608 25.6216C22.5608 25.5056 22.5898 25.3316 22.6478 25.0996C23.0248 24.4616 23.3873 23.8816 23.7353 23.3596C24.0543 22.8666 24.2718 22.4606 24.3878 22.1416C24.5328 21.8226 24.6778 21.4891 24.8228 21.1411C24.9678 21.0541 25.0838 20.9526 25.1708 20.8366C25.2578 20.6916 25.3738 20.5611 25.5188 20.4451C25.5768 20.1261 25.7073 19.8651 25.9103 19.6621C26.1133 19.4301 26.2438 19.1546 26.3018 18.8356C26.5628 18.6326 26.7078 18.4006 26.7368 18.1396C27.1138 17.8786 27.3458 17.5306 27.4328 17.0956C27.6648 16.8636 27.8533 16.6026 27.9983 16.3126C28.1723 16.0226 28.3318 15.7181 28.4768 15.3991C28.8248 15.1091 29.1003 14.7321 29.3033 14.2681C29.4773 14.1521 29.6078 13.9926 29.6948 13.7896C29.7818 13.5866 29.8978 13.4127 30.0428 13.2677C30.2748 12.8907 30.4488 12.5862 30.5648 12.3542C30.7098 12.0932 30.8548 11.8322 30.9998 11.5712C31.2028 11.5712 31.3333 11.4987 31.3913 11.3537C31.4493 11.2087 31.5653 11.1507 31.7393 11.1797C31.7393 10.9187 31.8118 10.6867 31.9568 10.4837C32.0148 10.4547 32.1018 10.4257 32.2178 10.3967C32.3338 10.3387 32.3918 10.2807 32.3918 10.2227C32.3338 9.87467 32.3483 9.67167 32.4353 9.61367C32.5223 9.55567 32.5948 9.49767 32.6528 9.43967C32.9718 9.49767 33.1893 9.54117 33.3053 9.57017C33.4213 9.59917 33.6098 9.70067 33.8708 9.87467C34.1608 9.87467 34.3638 9.93266 34.4798 10.0487C34.5958 10.1647 34.7263 10.2517 34.8713 10.3097C34.9873 10.4257 35.0743 10.5417 35.1323 10.6577C35.2193 10.7737 35.3353 10.8607 35.4803 10.9187C35.7123 11.2377 35.9588 11.5857 36.2198 11.9627C36.4808 12.3397 36.7273 12.6877 36.9593 13.0067C37.2783 13.4417 37.5973 13.8621 37.9163 14.2681C38.2643 14.6451 38.5833 15.0656 38.8733 15.5296C38.9603 15.6746 39.1198 15.9356 39.3518 16.3126C39.5838 16.6606 39.8448 17.0376 40.1348 17.4436C40.4248 17.8496 40.6858 18.2266 40.9178 18.5746C41.1498 18.8936 41.3093 19.0821 41.3963 19.1401C41.4833 19.2851 41.6718 19.5606 41.9618 19.9666C42.2518 20.3726 42.5563 20.8076 42.8753 21.2716C43.2233 21.7066 43.5568 22.1271 43.8758 22.5331C44.1948 22.9391 44.4123 23.2001 44.5282 23.3161C44.8472 23.7511 45.0792 24.1136 45.2242 24.4036C45.3982 24.6646 45.5577 24.9546 45.7027 25.2736ZM35.7413 33.4516C36.0603 33.0166 36.3068 32.6251 36.4808 32.2771C36.6548 31.9291 36.8288 31.5811 37.0028 31.2331C37.2928 30.8851 37.4668 30.6386 37.5248 30.4936C37.5828 30.3486 37.6553 30.2036 37.7423 30.0586C37.9743 29.7106 38.2063 29.3626 38.4383 29.0146C38.6993 28.6666 38.9023 28.2896 39.0473 27.8836C39.2213 27.7676 39.3518 27.6226 39.4388 27.4486C39.5258 27.2746 39.6563 27.1151 39.8303 26.9701C39.6563 26.3611 39.4533 25.8971 39.2213 25.5781C38.9893 25.2301 38.7573 24.8966 38.5253 24.5776C38.4383 24.4326 38.3513 24.2876 38.2643 24.1426C38.1773 23.9976 38.0903 23.8526 38.0033 23.7076C37.8873 23.6206 37.7858 23.5336 37.6988 23.4466C37.6408 23.3596 37.5683 23.2726 37.4813 23.1856C37.4233 23.0406 37.3363 22.8521 37.2203 22.6201C37.1043 22.4751 36.9883 22.3446 36.8723 22.2286C36.7563 22.1126 36.6548 21.9676 36.5678 21.7936C36.4518 21.6776 36.3068 21.5181 36.1328 21.3151C35.9588 21.1121 35.7703 20.8946 35.5673 20.6626C35.3933 20.4016 35.2338 20.1696 35.0888 19.9666C34.9438 19.7346 34.8278 19.5461 34.7408 19.4011C34.6828 19.2561 34.6248 19.1401 34.5668 19.0531C34.5378 18.9371 34.4943 18.8211 34.4363 18.7051C34.2913 18.5021 34.1463 18.3281 34.0013 18.1831C33.8563 18.0091 33.7113 17.8206 33.5663 17.6176C33.4793 17.6756 33.3923 17.7191 33.3053 17.7481C33.2473 17.7481 33.1893 17.7771 33.1313 17.8351C32.9283 18.2121 32.6963 18.5601 32.4353 18.8791C32.2033 19.1981 31.9713 19.5461 31.7393 19.9231C31.5363 20.2711 31.3333 20.6336 31.1303 21.0106C30.9273 21.3586 30.7243 21.7066 30.5213 22.0546C30.3763 22.2576 30.2313 22.4606 30.0863 22.6636C29.9703 22.8376 29.8398 23.0406 29.6948 23.2726C29.5498 23.4756 29.4193 23.6931 29.3033 23.9251C29.2163 24.1281 29.1003 24.3311 28.9553 24.5341C28.7233 24.8241 28.5348 25.0851 28.3898 25.3171C28.2448 25.5491 28.0998 25.8246 27.9548 26.1436C28.0418 26.3176 28.1723 26.5641 28.3463 26.8831C28.5493 27.1731 28.7523 27.4776 28.9553 27.7966C29.1583 28.0866 29.3323 28.3621 29.4773 28.6231C29.6513 28.8841 29.7528 29.0581 29.7818 29.1451C30.0138 29.3481 30.2023 29.5801 30.3473 29.8411C30.4923 30.0731 30.6808 30.3051 30.9128 30.5371C31.0288 30.7691 31.1593 30.9721 31.3043 31.1461C31.4493 31.3201 31.5943 31.5086 31.7393 31.7116C31.8843 31.9146 32.0728 32.2191 32.3048 32.6251C32.5368 33.0021 32.7688 33.3936 33.0008 33.7996C33.2328 34.2056 33.4648 34.5826 33.6968 34.9306C33.9288 35.2786 34.1173 35.4961 34.2623 35.5831C34.5523 35.2641 34.7843 34.9161 34.9583 34.5391C35.1613 34.1331 35.4223 33.7706 35.7413 33.4516ZM30.1733 1.7837C30.3473 2.0737 30.4633 2.2477 30.5213 2.3057C30.6083 2.3347 30.6808 2.3782 30.7388 2.4362C30.9418 2.5232 31.1303 2.6247 31.3043 2.74069C31.4783 2.94369 31.5508 3.07419 31.5218 3.13219C31.5218 3.16119 31.5218 3.20469 31.5218 3.26269C31.8408 3.40769 31.9858 3.49469 31.9568 3.52369C31.9568 3.55269 31.9713 3.58169 32.0003 3.61069C32.1163 3.87169 32.1453 4.10369 32.0873 4.30669C32.0583 4.50969 32.0148 4.64019 31.9568 4.69819C31.9278 4.72719 31.7828 4.87219 31.5218 5.13318C31.2608 5.36518 30.9563 5.62618 30.6083 5.91618C30.2893 6.17718 29.9993 6.42368 29.7383 6.65568C29.4773 6.88768 29.3323 7.00368 29.3033 7.00368C29.1003 7.03268 28.9118 7.01818 28.7378 6.96018C28.6798 6.87318 28.6363 6.75718 28.6073 6.61218C28.6073 6.46718 28.5348 6.39468 28.3898 6.39468C28.3318 6.30768 28.2883 6.22068 28.2593 6.13368C28.2303 6.01768 28.1868 5.93068 28.1288 5.87268C27.9548 5.75668 27.8243 5.65518 27.7373 5.56818C27.5633 5.22018 27.4618 5.01719 27.4328 4.95919C27.4038 4.90119 27.3603 4.84319 27.3023 4.78519C27.7373 4.26319 28.0853 3.87169 28.3463 3.61069C28.6363 3.34969 28.9553 3.10319 29.3033 2.87119C29.3613 2.75519 29.4193 2.6682 29.4773 2.6102C29.5643 2.5232 29.6223 2.4072 29.6513 2.2622C29.7673 2.2042 29.8398 2.1317 29.8688 2.0447C29.9268 1.9287 30.0283 1.8417 30.1733 1.7837ZM37.3073 1.7837C37.4813 2.0737 37.5973 2.2477 37.6553 2.3057C37.7133 2.3347 37.7713 2.3782 37.8293 2.4362C38.0613 2.5232 38.2643 2.6247 38.4383 2.74069C38.6123 2.94369 38.6848 3.07419 38.6558 3.13219C38.6558 3.16119 38.6558 3.20469 38.6558 3.26269C38.9748 3.40769 39.1198 3.49469 39.0908 3.52369C39.0908 3.55269 39.1053 3.58169 39.1343 3.61069C39.2503 3.87169 39.2793 4.10369 39.2213 4.30669C39.1923 4.50969 39.1488 4.64019 39.0908 4.69819C39.0618 4.72719 38.9168 4.87219 38.6558 5.13318C38.3948 5.36518 38.0903 5.62618 37.7423 5.91618C37.4233 6.17718 37.1333 6.42368 36.8723 6.65568C36.6113 6.88768 36.4663 7.00368 36.4373 7.00368C36.1763 7.03268 35.9878 7.01818 35.8718 6.96018C35.8138 6.87318 35.7703 6.75718 35.7413 6.61218C35.7413 6.46718 35.6688 6.39468 35.5238 6.39468C35.4658 6.30768 35.4223 6.22068 35.3933 6.13368C35.3643 6.01768 35.3208 5.93068 35.2628 5.87268C35.0888 5.75668 34.9583 5.65518 34.8713 5.56818C34.6973 5.22018 34.5958 5.01719 34.5668 4.95919C34.5378 4.90119 34.4943 4.84319 34.4363 4.78519C34.8713 4.26319 35.2193 3.87169 35.4803 3.61069C35.7703 3.34969 36.0893 3.10319 36.4373 2.87119C36.4953 2.75519 36.5533 2.6682 36.6113 2.6102C36.6983 2.5232 36.7563 2.4072 36.7853 2.2622C36.9013 2.2042 36.9738 2.1317 37.0028 2.0447C37.0608 1.9287 37.1623 1.8417 37.3073 1.7837Z" fill="#00B2A9"/>
<path d="M65.1037 35.1046C65.3067 35.3656 65.4227 35.5831 65.4517 35.7571C65.5097 35.9021 65.5677 36.0616 65.6257 36.2356C65.6837 36.3806 65.7272 36.5256 65.7562 36.6706C65.8142 36.8156 65.8432 36.9026 65.8432 36.9316C65.8432 37.1346 65.7997 37.3086 65.7127 37.4536C65.6547 37.5695 65.5532 37.729 65.4082 37.932C64.2482 38.367 63.1027 38.802 61.9717 39.237C60.8407 39.643 59.6807 40.049 58.4917 40.455C58.1727 40.542 57.8827 40.6435 57.6217 40.7595C57.3607 40.8465 57.0707 40.919 56.7517 40.977C56.6937 41.035 56.5922 41.093 56.4472 41.151C56.3312 41.18 56.1862 41.2235 56.0122 41.2815C55.8382 41.3395 55.6642 41.3975 55.4902 41.4555C55.3452 41.4845 55.2437 41.499 55.1857 41.499C54.9537 41.557 54.6927 41.586 54.4027 41.586C54.1417 41.557 53.8807 41.557 53.6197 41.586C53.4747 41.615 53.3732 41.6875 53.3152 41.8035C53.2572 41.9195 53.1847 42.05 53.0977 42.195C53.0397 42.311 52.9382 42.427 52.7932 42.543C52.6482 42.63 52.4452 42.6735 52.1842 42.6735C51.9232 42.6735 51.6622 42.659 51.4012 42.63C51.1402 42.601 50.8647 42.5285 50.5747 42.4125C50.5167 42.3255 50.4877 42.224 50.4877 42.108C50.5167 41.963 50.5022 41.847 50.4442 41.76C50.1832 41.731 49.9802 41.76 49.8352 41.847C49.6902 41.905 49.5452 41.9485 49.4002 41.9775C49.3132 41.8615 49.2407 41.731 49.1827 41.586C49.1537 41.412 49.0812 41.267 48.9652 41.151C48.9362 41.006 48.9217 40.861 48.9217 40.716C48.9217 40.571 48.9217 40.426 48.9217 40.281C48.9217 40.078 48.9217 39.846 48.9217 39.585C48.9507 39.295 49.0087 39.0775 49.0957 38.9325C49.1827 37.2796 49.2262 35.6266 49.2262 33.9736C49.2262 32.2916 49.2262 30.6241 49.2262 28.9711C49.2262 28.8261 49.2262 28.6231 49.2262 28.3621C49.2262 28.0721 49.2117 27.7821 49.1827 27.4921C49.1827 27.2021 49.1682 26.9411 49.1392 26.7091C49.1392 26.4481 49.1247 26.2596 49.0957 26.1436C49.1247 25.9406 49.1392 25.7521 49.1392 25.5781C49.1392 25.3751 49.1392 25.1721 49.1392 24.9691C49.1392 24.7951 49.1392 24.6356 49.1392 24.4906C49.1392 24.3456 49.1102 24.2006 49.0522 24.0556C49.0812 23.9396 49.0957 23.7801 49.0957 23.5771C49.0957 23.4321 49.0812 23.2871 49.0522 23.1421C49.0232 22.9971 49.0087 22.8521 49.0087 22.7071C49.0087 22.4751 49.0087 22.2576 49.0087 22.0546C49.0377 21.8226 49.0522 21.5906 49.0522 21.3586C49.0522 20.6046 49.0087 19.8651 48.9217 19.1401C48.8637 18.3861 48.8347 17.6321 48.8347 16.8781C48.8347 15.8921 48.8202 14.9061 48.7912 13.9201C48.7912 12.9342 48.7767 11.9482 48.7477 10.9622C48.8637 10.6722 48.9217 10.4257 48.9217 10.2227C49.3277 10.0197 49.6467 9.94716 49.8787 10.0052C50.1107 10.0632 50.3427 10.0922 50.5747 10.0922C50.7197 10.0922 50.8502 10.0777 50.9662 10.0487C51.0822 10.0197 51.1982 9.97616 51.3142 9.91817C51.4592 9.94716 51.5752 9.99066 51.6622 10.0487C51.7782 10.0777 51.9087 10.0922 52.0537 10.0922C52.4887 10.0052 52.7207 9.99066 52.7497 10.0487C52.8077 10.1067 52.8802 10.1647 52.9672 10.2227C53.0832 10.1937 53.1702 10.1502 53.2282 10.0922C53.3152 10.0052 53.4167 9.96167 53.5327 9.96167C53.7067 9.96167 53.8372 10.0777 53.9242 10.3097C54.0112 10.5127 54.1127 10.6867 54.2287 10.8317C54.2287 11.1507 54.2867 11.4407 54.4027 11.7017C54.4607 12.8907 54.4752 14.0651 54.4462 15.2251C54.4462 16.3851 54.4897 17.5451 54.5767 18.7051C54.6057 19.2271 54.6347 19.7781 54.6637 20.3581C54.7217 20.9091 54.7507 21.4456 54.7507 21.9676C54.7507 22.8376 54.7507 23.7221 54.7507 24.6211C54.7797 25.4911 54.7942 26.3756 54.7942 27.2746C54.7942 27.4196 54.7942 27.5501 54.7942 27.6661C54.8232 27.7821 54.8377 27.9126 54.8377 28.0576C54.8377 28.4056 54.8232 28.7391 54.7942 29.0581C54.7652 29.3771 54.7507 29.6961 54.7507 30.0151V33.4081C54.7507 33.6981 54.7362 34.0026 54.7072 34.3216C54.7072 34.6116 54.7217 34.9016 54.7507 35.1916L54.9247 35.7136C55.2437 35.5976 55.5627 35.4816 55.8817 35.3656C56.2297 35.2206 56.5922 35.1191 56.9692 35.0611C57.2012 35.0031 57.4187 34.9451 57.6217 34.8871C57.8247 34.8291 58.0422 34.7711 58.2742 34.7131C58.6802 34.4811 58.9992 34.3216 59.2312 34.2346C59.4632 34.1476 59.6952 34.0606 59.9272 33.9736C60.4202 33.7996 60.8987 33.6256 61.3627 33.4516C61.8267 33.2486 62.3052 33.0601 62.7982 32.8861C63.0302 32.9441 63.2187 32.9151 63.3637 32.7991C63.6537 32.8571 63.9147 32.8861 64.1467 32.8861C64.4657 33.2051 64.6542 33.4516 64.7122 33.6256C64.7992 33.7996 64.9152 33.9591 65.0602 34.1041C65.0022 34.2491 65.0022 34.3361 65.0602 34.3651C65.1472 34.3941 65.2052 34.4666 65.2342 34.5826C65.3502 34.6406 65.3647 34.7276 65.2777 34.8436C65.1907 34.9306 65.1327 35.0176 65.1037 35.1046Z" fill="#00B2A9"/>
<path d="M30.5213 2.3057C30.4633 2.2477 30.3473 2.0737 30.1733 1.7837C30.0283 1.8417 29.9268 1.9287 29.8688 2.0447C29.8398 2.1317 29.7673 2.2042 29.6513 2.2622C29.6223 2.4072 29.5643 2.5232 29.4773 2.6102C29.4193 2.6682 29.3613 2.75519 29.3033 2.87119C28.9553 3.10319 28.6363 3.34969 28.3463 3.61069C28.0853 3.87169 27.7373 4.26319 27.3023 4.78519C27.3603 4.84319 27.4038 4.90119 27.4328 4.95919L27.7373 5.56818C27.8243 5.65518 27.9548 5.75668 28.1288 5.87268C28.1868 5.93068 28.2303 6.01768 28.2593 6.13368C28.2883 6.22068 28.3318 6.30768 28.3898 6.39468C28.5348 6.39468 28.6073 6.46718 28.6073 6.61218C28.6363 6.75718 28.6798 6.87318 28.7378 6.96018C28.9118 7.01818 29.1003 7.03268 29.3033 7.00368C29.3323 7.00368 29.4773 6.88768 29.7383 6.65568C29.9993 6.42368 30.2893 6.17718 30.6083 5.91618C30.9563 5.62618 31.2608 5.36518 31.5218 5.13318L31.9568 4.69819C32.0148 4.64019 32.0583 4.50969 32.0873 4.30669C32.1453 4.10369 32.1163 3.87169 32.0003 3.61069C31.9713 3.58169 31.9568 3.55269 31.9568 3.52369C31.9858 3.49469 31.8408 3.40769 31.5218 3.26269V3.13219C31.5508 3.07419 31.4783 2.94369 31.3043 2.74069C31.1303 2.6247 30.9418 2.5232 30.7388 2.4362C30.6808 2.3782 30.6083 2.3347 30.5213 2.3057Z" fill="#FF6B35"/>
<path d="M37.6553 2.3057C37.5973 2.2477 37.4813 2.0737 37.3073 1.7837C37.1623 1.8417 37.0608 1.9287 37.0028 2.0447C36.9738 2.1317 36.9013 2.2042 36.7853 2.2622C36.7563 2.4072 36.6983 2.5232 36.6113 2.6102C36.5533 2.6682 36.4953 2.75519 36.4373 2.87119C36.0893 3.10319 35.7703 3.34969 35.4803 3.61069C35.2193 3.87169 34.8713 4.26319 34.4363 4.78519C34.4943 4.84319 34.5378 4.90119 34.5668 4.95919L34.8713 5.56818C34.9583 5.65518 35.0888 5.75668 35.2628 5.87268C35.3208 5.93068 35.3643 6.01768 35.3933 6.13368C35.4223 6.22068 35.4658 6.30768 35.5238 6.39468C35.6688 6.39468 35.7413 6.46718 35.7413 6.61218C35.7703 6.75718 35.8138 6.87318 35.8718 6.96018C35.9878 7.01818 36.1763 7.03268 36.4373 7.00368C36.4663 7.00368 36.6113 6.88768 36.8723 6.65568C37.1333 6.42368 37.4233 6.17718 37.7423 5.91618C38.0903 5.62618 38.3948 5.36518 38.6558 5.13318L39.0908 4.69819C39.1488 4.64019 39.1923 4.50969 39.2213 4.30669C39.2793 4.10369 39.2503 3.87169 39.1343 3.61069C39.1053 3.58169 39.0908 3.55269 39.0908 3.52369C39.1198 3.49469 38.9748 3.40769 38.6558 3.26269V3.13219C38.6848 3.07419 38.6123 2.94369 38.4383 2.74069C38.2643 2.6247 38.0613 2.5232 37.8293 2.4362C37.7713 2.3782 37.7133 2.3347 37.6553 2.3057Z" fill="#FF6B35"/>
<path d="M29.378 1.48282C29.3002 1.40509 29.1445 1.17188 28.911 0.783203C28.7164 0.860939 28.5801 0.977542 28.5023 1.13301C28.4634 1.24962 28.3661 1.34679 28.2104 1.42452C28.1715 1.61886 28.0936 1.77433 27.9769 1.89094C27.899 1.96867 27.8212 2.08528 27.7433 2.24075C27.2763 2.55169 26.8481 2.88207 26.4589 3.23188C26.1086 3.58169 25.6416 4.10641 25.0577 4.80603C25.1356 4.88376 25.194 4.9615 25.2329 5.03923L25.6416 5.85546C25.7583 5.97206 25.9335 6.1081 26.167 6.26357C26.2448 6.34131 26.3032 6.45791 26.3421 6.61338C26.3811 6.72999 26.4395 6.84659 26.5173 6.96319C26.7119 6.96319 26.8092 7.06036 26.8092 7.2547C26.8481 7.44904 26.9065 7.60451 26.9844 7.72112C27.2179 7.79885 27.4709 7.81829 27.7433 7.77942C27.7823 7.77942 27.9769 7.62395 28.3272 7.313C28.6775 7.00206 29.0667 6.67169 29.4948 6.32188C29.9619 5.9332 30.3706 5.58338 30.7208 5.27244L31.3047 4.68942C31.3825 4.61169 31.4409 4.43678 31.4798 4.16471C31.5577 3.89263 31.5187 3.58169 31.3631 3.23188C31.3241 3.19301 31.3047 3.15414 31.3047 3.11528C31.3436 3.07641 31.149 2.9598 30.7208 2.76546V2.59056C30.7598 2.51282 30.6625 2.33792 30.4289 2.06584C30.1954 1.91037 29.9424 1.77433 29.67 1.65773C29.5921 1.57999 29.4948 1.52169 29.378 1.48282Z" fill="#FF6B35"/>
<path d="M38.9528 1.48282C38.875 1.40509 38.7193 1.17188 38.4857 0.783203C38.2911 0.860939 38.1549 0.977542 38.0771 1.13301C38.0381 1.24962 37.9408 1.34679 37.7852 1.42452C37.7462 1.61886 37.6684 1.77433 37.5516 1.89094C37.4738 1.96867 37.3959 2.08528 37.3181 2.24075C36.851 2.55169 36.4229 2.88207 36.0337 3.23188C35.6834 3.58169 35.2163 4.10641 34.6325 4.80603C34.7103 4.88376 34.7687 4.9615 34.8076 5.03923L35.2163 5.85546C35.3331 5.97206 35.5082 6.1081 35.7418 6.26357C35.8196 6.34131 35.878 6.45791 35.9169 6.61338C35.9558 6.72999 36.0142 6.84659 36.0921 6.96319C36.2867 6.96319 36.384 7.06036 36.384 7.2547C36.4229 7.44904 36.4813 7.60451 36.5591 7.72112C36.7148 7.79885 36.9678 7.81829 37.3181 7.77942C37.357 7.77942 37.5516 7.62395 37.9019 7.313C38.2522 7.00206 38.6414 6.67169 39.0696 6.32188C39.5366 5.9332 39.9453 5.58338 40.2956 5.27244L40.8794 4.68942C40.9573 4.61169 41.0157 4.43678 41.0546 4.16471C41.1324 3.89263 41.0935 3.58169 40.9378 3.23188C40.8989 3.19301 40.8794 3.15414 40.8794 3.11528C40.9184 3.07641 40.7237 2.9598 40.2956 2.76546V2.59056C40.3345 2.51282 40.2372 2.33792 40.0037 2.06584C39.7702 1.91037 39.4977 1.77433 39.1863 1.65773C39.1085 1.57999 39.0306 1.52169 38.9528 1.48282Z" fill="#FF6B35"/>
</svg>
