<svg width="28" height="28" viewBox="0 0 28 28" fill="none" xmlns="http://www.w3.org/2000/svg">
<g clip-path="url(#clip0_356_4167)">
<path d="M18.7028 26.6949L22.1716 20.6949C22.3708 20.3434 22.2653 19.9449 21.9255 19.7457C21.5974 19.5348 21.1755 19.6402 20.9645 20.0035L17.5192 25.9801C17.32 26.3316 17.4255 26.7418 17.7653 26.9527C18.1052 27.1519 18.5036 27.0465 18.7028 26.6949Z" fill="#6C6C6C"/>
<path d="M15.9844 23.355L17.5078 20.7065C17.7188 20.355 17.6016 19.9448 17.25 19.7339C16.8984 19.5347 16.5 19.6401 16.2891 20.0034L14.7539 22.6753C14.5547 23.0034 14.6484 23.4136 15.0117 23.6245C15.3633 23.8237 15.7852 23.6948 15.9844 23.355Z" fill="#6C6C6C"/>
<path d="M9.38623 26.7066L12.8433 20.7066C13.0425 20.3551 12.9487 19.9566 12.6089 19.7574C12.269 19.5465 11.8354 19.6519 11.6362 20.0152L8.20263 25.9918C8.00342 26.3434 8.09717 26.7535 8.44873 26.9644C8.78857 27.1637 9.18701 27.0465 9.38623 26.7066Z" fill="#6C6C6C"/>
<path d="M6.65604 23.3667L8.17948 20.7183C8.40213 20.3667 8.28495 19.9565 7.93338 19.7456C7.58182 19.5464 7.18338 19.6518 6.96073 20.0151L5.42557 22.687C5.22635 23.0151 5.33182 23.4253 5.6951 23.6362C6.03495 23.8354 6.45682 23.7065 6.65604 23.3667Z" fill="#6C6C6C"/>
<path d="M6.35156 17.8823H20.8945C24.7383 17.8823 27.5977 14.9643 27.5977 11.355C27.5977 7.6167 24.5508 4.88623 20.5781 4.88623C19.1133 1.9917 16.3945 0.128418 13.0078 0.128418C8.60156 0.128418 4.96875 3.58545 4.58203 7.93311C2.46094 8.5542 0.84375 10.394 0.84375 12.8667C0.84375 15.644 2.85938 17.8823 6.35156 17.8823ZM6.32812 16.0073C3.92578 16.0073 2.71875 14.6597 2.71875 12.9253C2.71875 11.519 3.53906 10.2534 5.53125 9.72607C6.17578 9.55029 6.41016 9.24561 6.46875 8.58936C6.73828 4.75732 9.60938 2.00342 13.0078 2.00342C15.6445 2.00342 17.7188 3.45654 18.9844 6.04639C19.2539 6.62061 19.6055 6.81982 20.2969 6.81982C23.7656 6.81982 25.7227 8.90576 25.7227 11.4018C25.7227 13.9565 23.6836 16.0073 21.0117 16.0073H6.32812Z" fill="#6C6C6C"/>
</g>
<defs>
<clipPath id="clip0_356_4167">
<rect width="27.5977" height="27.0187" fill="white" transform="translate(0 0.0429688)"/>
</clipPath>
</defs>
</svg>
