<svg width="29" height="20" viewBox="0 0 29 20" fill="none" xmlns="http://www.w3.org/2000/svg">
<g clip-path="url(#clip0_356_4164)">
<path d="M6 19.336H21.2578C25.207 19.336 28.2656 16.3477 28.2656 12.5274C28.2656 8.67188 25.1367 5.76563 20.8828 5.76563C19.3242 2.67188 16.4648 0.785156 12.9844 0.785156C8.4375 0.785156 4.59375 4.3125 4.18359 8.98828C1.83984 9.65625 0.257812 11.625 0.257812 14.1211C0.257812 17.004 2.35547 19.336 6 19.336ZM5.97656 17.4493C3.57422 17.4493 2.14453 16.1485 2.14453 14.1797C2.14453 12.4922 3.22266 11.2735 5.12109 10.7695C5.77734 10.6055 6.02344 10.3008 6.07031 9.6211C6.35156 5.64844 9.32812 2.67188 12.9844 2.67188C15.8086 2.67188 17.9883 4.24219 19.3008 6.9375C19.582 7.51172 19.9219 7.71094 20.6367 7.71094C24.3047 7.71094 26.3672 9.92578 26.3672 12.5743C26.3672 15.3047 24.1875 17.4493 21.3867 17.4493H5.97656Z" fill="#6C6C6C"/>
</g>
<defs>
<clipPath id="clip0_356_4164">
<rect width="28.2656" height="18.7148" fill="white" transform="translate(0 0.785156)"/>
</clipPath>
</defs>
</svg>
