<svg width="28" height="28" viewBox="0 0 28 28" fill="none" xmlns="http://www.w3.org/2000/svg">
<g clip-path="url(#clip0_356_4169)">
<path d="M18.223 26.7253L21.6917 20.7253C21.8909 20.3738 21.7855 19.9519 21.4339 19.7761C21.0941 19.5886 20.6839 19.6706 20.4847 20.0339L17.0394 26.0105C16.8284 26.3621 16.9339 26.7722 17.2737 26.9831C17.6019 27.1824 18.0355 27.0652 18.223 26.7253Z" fill="#6C6C6C"/>
<path d="M13.5935 26.7137L17.027 20.7489C17.238 20.3739 17.1325 19.9754 16.7809 19.7762C16.4177 19.5653 16.0192 19.6707 15.8083 20.0457L12.363 26.034C12.1755 26.3622 12.2575 26.7723 12.6208 26.9832C12.9724 27.1825 13.3942 27.0653 13.5935 26.7137Z" fill="#6C6C6C"/>
<path d="M8.92937 26.7137L12.363 20.7489C12.5739 20.3739 12.4685 19.9754 12.1169 19.7762C11.7536 19.5653 11.3552 19.6707 11.1442 20.0457L7.6989 26.034C7.5114 26.3622 7.59343 26.7723 7.95671 26.9832C8.30827 27.1825 8.73015 27.0653 8.92937 26.7137Z" fill="#6C6C6C"/>
<path d="M4.25382 26.7137L7.69913 20.7489C7.91007 20.3739 7.79288 19.9754 7.44132 19.7762C7.08975 19.5653 6.69132 19.6707 6.48038 20.0457L3.02335 26.034C2.83585 26.3622 2.9296 26.7723 3.28116 26.9832C3.63272 27.1825 4.0546 27.0653 4.25382 26.7137Z" fill="#6C6C6C"/>
<path d="M6.35156 17.9011H20.8945C24.7383 17.9011 27.5977 14.9831 27.5977 11.3738C27.5977 7.6355 24.5508 4.90503 20.5781 4.90503C19.1133 2.0105 16.3945 0.147217 13.0078 0.147217C8.60156 0.147217 4.96875 3.60425 4.58203 7.95191C2.46094 8.573 0.84375 10.4128 0.84375 12.8855C0.84375 15.6628 2.85938 17.9011 6.35156 17.9011ZM6.32812 16.0261C3.92578 16.0261 2.71875 14.6785 2.71875 12.9441C2.71875 11.5378 3.53906 10.2722 5.53125 9.74487C6.17578 9.56909 6.41016 9.26441 6.46875 8.60816C6.73828 4.77612 9.60938 2.02222 13.0078 2.02222C15.6445 2.02222 17.7188 3.47534 18.9844 6.06519C19.2539 6.63941 19.6055 6.83862 20.2969 6.83862C23.7656 6.83862 25.7227 8.92456 25.7227 11.4206C25.7227 13.9753 23.6836 16.0261 21.0117 16.0261H6.32812Z" fill="#6C6C6C"/>
</g>
<defs>
<clipPath id="clip0_356_4169">
<rect width="27.5977" height="27.0187" fill="white" transform="translate(0 0.0617676)"/>
</clipPath>
</defs>
</svg>
