<svg width="28" height="28" viewBox="0 0 28 28" fill="none" xmlns="http://www.w3.org/2000/svg">
<g clip-path="url(#clip0_356_4166)">
<path d="M21.9609 25.1125H6.71484C6.30469 25.1125 5.97656 25.4289 5.97656 25.8508C5.97656 26.2727 6.30469 26.6008 6.71484 26.6008H21.9609C22.3711 26.6008 22.6992 26.2727 22.6992 25.8508C22.6992 25.4289 22.3711 25.1125 21.9609 25.1125Z" fill="#6C6C6C"/>
<path d="M21.9609 21.1399H6.71484C6.30469 21.1399 5.97656 21.4563 5.97656 21.8781C5.97656 22.3 6.30469 22.6164 6.71484 22.6164H21.9609C22.3711 22.6164 22.6992 22.3 22.6992 21.8781C22.6992 21.4563 22.3711 21.1399 21.9609 21.1399Z" fill="#6C6C6C"/>
<path d="M6.35156 18.4211H20.8945C24.7383 18.4211 27.5977 15.5031 27.5977 11.8938C27.5977 8.15552 24.5508 5.42505 20.5781 5.42505C19.1133 2.53052 16.3945 0.667236 13.0078 0.667236C8.60156 0.667236 4.96875 4.12427 4.58203 8.47193C2.46094 9.09302 0.84375 10.9328 0.84375 13.4055C0.84375 16.1828 2.85938 18.4211 6.35156 18.4211ZM6.32812 16.5461C3.92578 16.5461 2.71875 15.1984 2.71875 13.4641C2.71875 12.0578 3.53906 10.7922 5.53125 10.2649C6.17578 10.0891 6.41016 9.78443 6.46875 9.12818C6.73828 5.29615 9.60938 2.54224 13.0078 2.54224C15.6445 2.54224 17.7188 3.99536 18.9844 6.58521C19.2539 7.15943 19.6055 7.35865 20.2969 7.35865C23.7656 7.35865 25.7227 9.44458 25.7227 11.9406C25.7227 14.4953 23.6836 16.5461 21.0117 16.5461H6.32812Z" fill="#6C6C6C"/>
</g>
<defs>
<clipPath id="clip0_356_4166">
<rect width="27.5977" height="26.8477" fill="white" transform="translate(0 0.667236)"/>
</clipPath>
</defs>
</svg>
