<svg width="36" height="25" viewBox="0 0 36 25" fill="none" xmlns="http://www.w3.org/2000/svg">
<g clip-path="url(#clip0_356_4161)">
<path d="M30.5978 17.5898L32.4024 19.3945C32.7774 19.7812 32.7774 20.4023 32.4024 20.7656C32.0274 21.1406 31.4063 21.1641 31.0313 20.7773L29.2149 18.9727C28.8399 18.5977 28.8399 17.9648 29.2149 17.5898C29.5899 17.2266 30.211 17.2266 30.5978 17.5898ZM29.5899 12.1641C29.5899 14.7438 27.8783 16.955 25.5414 17.7033C25.5349 17.0965 25.4329 16.5197 25.2483 15.9833C26.7821 15.4013 27.8673 13.9122 27.8673 12.1641C27.8673 9.91406 26.0509 8.08594 23.8009 8.08594C21.5954 8.08594 19.7953 9.84237 19.7294 12.0321C19.6129 12.0178 19.4925 12.0133 19.3712 12.0117C19.0589 11.4272 18.6907 10.8938 18.2716 10.4215C19.0183 8.07322 21.229 6.35156 23.8009 6.35156C26.9767 6.35156 29.5899 8.97656 29.5899 12.1641ZM35.9298 12.1641C35.9298 12.7031 35.4962 13.1484 34.9689 13.1484H32.4259C31.9103 13.1484 31.4532 12.7031 31.4532 12.1641C31.4532 11.6484 31.9103 11.1914 32.4259 11.1914H34.9689C35.4962 11.1914 35.9298 11.6484 35.9298 12.1641ZM32.4024 3.5625C32.7774 3.94922 32.7774 4.58203 32.4024 4.95703L30.6095 6.76172C30.211 7.14844 29.5899 7.125 29.2149 6.76172C28.8399 6.375 28.8399 5.75391 29.2149 5.39062L31.0313 3.5625C31.4063 3.1875 32.0274 3.19922 32.4024 3.5625ZM16.5704 3.5625L18.3868 5.39062C18.7501 5.74219 18.7501 6.38672 18.3751 6.76172C18.0001 7.125 17.3673 7.13672 16.9923 6.76172L15.1993 4.94531C14.8243 4.58203 14.836 3.94922 15.211 3.5625C15.586 3.19922 16.2071 3.19922 16.5704 3.5625ZM24.7853 0.972656V3.52734C24.7853 4.04297 24.3282 4.48828 23.8009 4.48828C23.2735 4.48828 22.8282 4.04297 22.8282 3.52734V0.972656C22.8282 0.457031 23.2735 0 23.8009 0C24.3282 0 24.7853 0.457031 24.7853 0.972656Z" fill="#6C6C6C"/>
<path d="M6.84375 23.6836H19.5234C22.9219 23.6836 25.5469 21.1289 25.5469 17.8125C25.5469 14.5312 22.8867 12.0586 19.3711 12.0117C18 9.44531 15.5508 7.86328 12.6562 7.86328C8.77734 7.86328 5.53125 10.8633 5.14453 14.7188C3.1875 15.3281 1.875 17.0156 1.875 19.1484C1.875 21.7969 3.85547 23.6836 6.84375 23.6836ZM6.79688 21.7969C4.80469 21.7969 3.76172 20.6602 3.76172 19.1953C3.76172 17.9648 4.47656 16.8633 6.19922 16.4062C6.77344 16.2539 6.97266 15.9961 7.01953 15.3984C7.30078 12.1172 9.73828 9.75 12.6562 9.75C14.9297 9.75 16.6875 11.0039 17.7891 13.1953C18.0352 13.6992 18.3281 13.8633 18.9258 13.8633C21.9492 13.8633 23.6602 15.6914 23.6602 17.8711C23.6602 20.0508 21.8789 21.7969 19.5586 21.7969H6.79688Z" fill="#6C6C6C"/>
</g>
<defs>
<clipPath id="clip0_356_4161">
<rect width="35.9297" height="24.7852" fill="white"/>
</clipPath>
</defs>
</svg>
