<svg width="29" height="22" viewBox="0 0 29 22" fill="none" xmlns="http://www.w3.org/2000/svg">
<g clip-path="url(#clip0_356_4162)">
<path d="M13.9336 2.82031C14.3438 2.72656 14.8125 2.64453 15.2695 2.64453C17.4919 2.65599 19.3448 4.19042 19.839 6.2861C19.5201 6.22541 19.1911 6.19531 18.8555 6.19531C18.5652 6.19531 18.2791 6.21717 17.9995 6.2621C17.5666 5.15002 16.5296 4.41406 15.2695 4.41406C14.8242 4.41406 14.5547 4.48438 14.0742 4.67188C13.4297 4.92969 13.0664 4.8125 12.8086 4.29688C12.1992 3.07812 10.8633 2.28125 9.36328 2.28125C7.23047 2.28125 5.51953 4.02734 5.51953 6.16016C5.51953 6.96875 5.29688 7.23828 4.5 7.32031C2.95312 7.49609 1.76953 8.85547 1.76953 10.4375C1.76953 12.3242 3.17578 13.5898 5.23828 13.5898H5.37859C4.93107 14.0741 4.59438 14.6553 4.40249 15.3003C1.72106 14.959 0 12.9496 0 10.4375C0 8.14062 1.55859 6.20703 3.77344 5.62109C4.06641 2.75 6.46875 0.511719 9.36328 0.511719C11.1914 0.511719 12.8555 1.37891 13.9336 2.82031Z" fill="#6C6C6C"/>
<path d="M8.84766 21.043H22.9805C26.1328 21.043 28.2188 18.875 28.2188 16.1211C28.2188 13.8242 26.6602 11.8906 24.4453 11.3047C24.1523 8.43359 21.75 6.19531 18.8555 6.19531C17.0273 6.19531 15.3633 7.0625 14.2852 8.50391C13.875 8.41016 13.4062 8.32812 12.9492 8.32812C10.6758 8.32812 8.78906 9.93359 8.34375 12.1133C6 12.3711 4.21875 14.2344 4.21875 16.5664C4.21875 19.1445 6.17578 21.043 8.84766 21.043ZM8.84766 19.2734C7.14844 19.2734 5.98828 18.1719 5.98828 16.5664C5.98828 15.043 7.23047 13.8477 8.80078 13.8242C9.62109 13.8008 9.94922 13.5547 10.0078 12.8633C10.1367 11.2578 11.3672 10.0977 12.9492 10.0977C13.3945 10.0977 13.6641 10.168 14.1445 10.3555C14.7891 10.6016 15.1523 10.4961 15.4102 9.98047C16.0195 8.76172 17.3555 7.97656 18.8555 7.96484C20.9883 7.96484 22.6992 9.71094 22.6992 11.8438C22.6992 12.6523 22.9219 12.9102 23.7188 13.0039C25.2656 13.1797 26.4492 14.5391 26.4492 16.1211C26.4492 18.0078 25.043 19.2734 22.9805 19.2734H8.84766Z" fill="#6C6C6C"/>
</g>
<defs>
<clipPath id="clip0_356_4162">
<rect width="28.6172" height="20.543" fill="white" transform="translate(0 0.5)"/>
</clipPath>
</defs>
</svg>
