<svg width="28" height="30" viewBox="0 0 28 30" fill="none" xmlns="http://www.w3.org/2000/svg">
<g clip-path="url(#clip0_356_4165)">
<path d="M17.461 29.6673C17.672 29.6673 17.8243 29.4563 17.8126 29.2454L17.7306 28.1321L18.6681 28.7649C18.8321 28.8704 19.1017 28.8235 19.2189 28.6477C19.3243 28.472 19.2657 28.2024 19.0313 28.097L18.0235 27.6165L19.0431 27.1126C19.2657 27.0071 19.3126 26.7493 19.2306 26.5735C19.1251 26.386 18.8321 26.3509 18.6681 26.4563L17.7306 27.1126L17.8243 25.9759C17.8478 25.7532 17.672 25.5657 17.461 25.5657C17.2149 25.5657 17.0743 25.7532 17.086 25.9759L17.1563 27.1126L16.2071 26.4563C16.0431 26.3509 15.797 26.3743 15.6798 26.5735C15.5743 26.7493 15.6212 26.9954 15.8439 27.1126L16.8517 27.6165L15.8439 28.1087C15.6212 28.2141 15.5626 28.4602 15.6681 28.6477C15.7735 28.847 16.0431 28.8821 16.2071 28.7649L17.1563 28.1321L17.0978 29.2454C17.086 29.4563 17.2149 29.6673 17.461 29.6673Z" fill="#6C6C6C"/>
<path d="M10.9689 29.6673C11.1798 29.6673 11.3321 29.4563 11.3204 29.2454L11.2501 28.1321L12.1759 28.7649C12.3399 28.8704 12.6095 28.8235 12.7267 28.6477C12.8321 28.472 12.7735 28.2024 12.5392 28.097L11.5313 27.6165L12.5509 27.1126C12.7735 27.0071 12.8204 26.7493 12.7384 26.5735C12.6329 26.386 12.3399 26.3509 12.1759 26.4563L11.2501 27.1126L11.3321 25.9759C11.3556 25.7532 11.1798 25.5657 10.9689 25.5657C10.7228 25.5657 10.5821 25.7532 10.5939 25.9759L10.6642 27.1126L9.71491 26.4563C9.55085 26.3509 9.30476 26.3743 9.18757 26.5735C9.0821 26.7493 9.12898 26.9954 9.35163 27.1126L10.3595 27.6165L9.35163 28.1087C9.12898 28.2141 9.07038 28.4602 9.17585 28.6477C9.28132 28.847 9.55085 28.8821 9.71491 28.7649L10.6642 28.1321L10.6056 29.2454C10.5939 29.4563 10.7228 29.6673 10.9689 29.6673Z" fill="#6C6C6C"/>
<path d="M4.47663 29.6673C4.68757 29.6673 4.83991 29.4563 4.82819 29.2454L4.75788 28.1321L5.68366 28.7649C5.85945 28.8704 6.11726 28.8235 6.23445 28.6477C6.33991 28.472 6.28132 28.2024 6.04695 28.097L5.05085 27.6165L6.05866 27.1126C6.28132 27.0071 6.32819 26.7493 6.24616 26.5735C6.14069 26.386 5.85945 26.3509 5.68366 26.4563L4.75788 27.1126L4.83991 25.9759C4.86335 25.7532 4.68757 25.5657 4.47663 25.5657C4.23054 25.5657 4.08991 25.7532 4.10163 25.9759L4.17195 27.1126L3.23445 26.4563C3.05866 26.3509 2.81257 26.3743 2.69538 26.5735C2.58991 26.7493 2.63679 26.9954 2.85945 27.1126L3.86726 27.6165L2.85945 28.1087C2.63679 28.2141 2.57819 28.4602 2.68366 28.6477C2.78913 28.847 3.05866 28.8821 3.23445 28.7649L4.17195 28.1321L4.11335 29.2454C4.10163 29.4563 4.23054 29.6673 4.47663 29.6673Z" fill="#6C6C6C"/>
<path d="M20.004 25.2609C20.2149 25.2609 20.3673 25.0617 20.3556 24.8508L20.2735 23.7258L21.211 24.3586C21.3751 24.4758 21.6446 24.4289 21.7618 24.2531C21.8673 24.0773 21.8087 23.8078 21.5743 23.7023L20.5665 23.2101L21.586 22.7062C21.8087 22.6008 21.8556 22.3547 21.7735 22.1672C21.6681 21.9797 21.3751 21.9445 21.211 22.0617L20.2735 22.7062L20.3673 21.5812C20.3907 21.3586 20.2149 21.1711 20.004 21.1711C19.7579 21.1711 19.6173 21.3586 19.629 21.5812L19.6993 22.7062L18.7501 22.0617C18.586 21.9445 18.3399 21.968 18.2228 22.1672C18.1173 22.3547 18.1642 22.6008 18.3868 22.7062L19.3946 23.2101L18.3868 23.7023C18.1642 23.8078 18.1056 24.0656 18.211 24.2531C18.3165 24.4406 18.586 24.4758 18.7501 24.3703L19.6993 23.7375L19.6407 24.8508C19.629 25.0617 19.7579 25.2609 20.004 25.2609Z" fill="#6C6C6C"/>
<path d="M13.5117 25.2609C13.7227 25.2609 13.875 25.0617 13.8633 24.8508L13.793 23.7258L14.7188 24.3586C14.8828 24.4758 15.1523 24.4289 15.2695 24.2531C15.375 24.0773 15.3164 23.8078 15.082 23.7023L14.0742 23.2101L15.0938 22.7062C15.3164 22.6008 15.3633 22.3547 15.2812 22.1672C15.1758 21.9797 14.8828 21.9445 14.7188 22.0617L13.793 22.7062L13.875 21.5812C13.8984 21.3586 13.7227 21.1711 13.5117 21.1711C13.2656 21.1711 13.125 21.3586 13.1367 21.5812L13.207 22.7062L12.2578 22.0617C12.0938 21.9445 11.8477 21.968 11.7305 22.1672C11.625 22.3547 11.6719 22.6008 11.8945 22.7062L12.9023 23.2101L11.8945 23.7023C11.6719 23.8078 11.6133 24.0656 11.7188 24.2531C11.8242 24.4406 12.0938 24.4758 12.2578 24.3703L13.207 23.7375L13.1484 24.8508C13.1367 25.0617 13.2656 25.2609 13.5117 25.2609Z" fill="#6C6C6C"/>
<path d="M7.0196 25.2609C7.23054 25.2609 7.38288 25.0617 7.37116 24.8508L7.30085 23.7258L8.22663 24.3586C8.39069 24.4758 8.66023 24.4289 8.77741 24.2531C8.88288 24.0773 8.82429 23.8078 8.58991 23.7023L7.59382 23.2101L8.60163 22.7062C8.82429 22.6008 8.87116 22.3547 8.78913 22.1672C8.68366 21.9797 8.39069 21.9445 8.22663 22.0617L7.30085 22.7062L7.38288 21.5812C7.40632 21.3586 7.23054 21.1711 7.0196 21.1711C6.77351 21.1711 6.63288 21.3586 6.6446 21.5812L6.71491 22.7062L5.77741 22.0617C5.60163 21.9445 5.35554 21.968 5.23835 22.1672C5.13288 22.3547 5.17976 22.6008 5.40241 22.7062L6.41023 23.2101L5.40241 23.7023C5.17976 23.8078 5.12116 24.0656 5.22663 24.2531C5.3321 24.4406 5.60163 24.4758 5.77741 24.3703L6.71491 23.7375L6.65632 24.8508C6.6446 25.0617 6.77351 25.2609 7.0196 25.2609Z" fill="#6C6C6C"/>
<path d="M6.35156 19.4134H20.8945C24.7383 19.4134 27.5977 16.4954 27.5977 12.886C27.5977 9.1477 24.5508 6.41723 20.5781 6.41723C19.1133 3.5227 16.3945 1.65942 13.0078 1.65942C8.60156 1.65942 4.96875 5.11645 4.58203 9.4641C2.46094 10.0852 0.84375 11.9251 0.84375 14.3977C0.84375 17.1751 2.85938 19.4134 6.35156 19.4134ZM6.32812 17.5384C3.92578 17.5384 2.71875 16.1907 2.71875 14.4563C2.71875 13.0501 3.53906 11.7845 5.53125 11.2571C6.17578 11.0813 6.41016 10.7766 6.46875 10.1204C6.73828 6.28832 9.60938 3.53442 13.0078 3.53442C15.6445 3.53442 17.7188 4.98754 18.9844 7.57738C19.2539 8.1516 19.6055 8.35082 20.2969 8.35082C23.7656 8.35082 25.7227 10.4368 25.7227 12.9329C25.7227 15.4876 23.6836 17.5384 21.0117 17.5384H6.32812Z" fill="#6C6C6C"/>
</g>
<defs>
<clipPath id="clip0_356_4165">
<rect width="27.5977" height="29.168" fill="white" transform="translate(0 0.499268)"/>
</clipPath>
</defs>
</svg>
