<svg width="24" height="24" viewBox="0 0 24 24" fill="none" xmlns="http://www.w3.org/2000/svg">
<g clip-path="url(#clip0_356_4168)">
<path d="M12.0055 4.30428C12.5256 4.30428 12.9571 3.87275 12.9571 3.34163V0.962653C12.9571 0.431535 12.5256 0 12.0055 0C11.4744 0 11.0429 0.431535 11.0429 0.962653V3.34163C11.0429 3.87275 11.4744 4.30428 12.0055 4.30428ZM17.4274 6.57261C17.8036 6.93775 18.4121 6.94882 18.7884 6.57261L20.4813 4.87966C20.8465 4.51452 20.8465 3.89488 20.4813 3.51867C20.1161 3.15352 19.4965 3.15352 19.1314 3.51867L17.4274 5.22268C17.0623 5.58782 17.0623 6.20746 17.4274 6.57261ZM19.6736 12.0055C19.6736 12.5255 20.1161 12.9571 20.6362 12.9571H23.0152C23.5352 12.9571 23.9668 12.5255 23.9668 12.0055C23.9668 11.4855 23.5352 11.0429 23.0152 11.0429H20.6362C20.1161 11.0429 19.6736 11.4855 19.6736 12.0055ZM17.4274 17.4385C17.0623 17.8147 17.0623 18.4232 17.4274 18.7883L19.1314 20.5034C19.4965 20.8686 20.1161 20.8464 20.4813 20.4923C20.8465 20.1162 20.8465 19.5076 20.4813 19.1424L18.7773 17.4385C18.4121 17.0733 17.8036 17.0844 17.4274 17.4385ZM12.0055 19.7068C11.4744 19.7068 11.0429 20.1383 11.0429 20.6583V23.0484C11.0429 23.5684 11.4744 24 12.0055 24C12.5256 24 12.9571 23.5684 12.9571 23.0484V20.6583C12.9571 20.1383 12.5256 19.7068 12.0055 19.7068ZM6.57261 17.4385C6.1964 17.0844 5.57676 17.0733 5.21162 17.4385L3.51868 19.1314C3.15353 19.4965 3.15353 20.1051 3.50761 20.4813C3.87276 20.8354 4.50347 20.8575 4.8686 20.4923L6.56155 18.7883C6.92669 18.4232 6.92669 17.8147 6.57261 17.4385ZM4.32643 12.0055C4.32643 11.4855 3.88382 11.0429 3.36376 11.0429H0.98479C0.464738 11.0429 0.0332031 11.4855 0.0332031 12.0055C0.0332031 12.5255 0.464738 12.9571 0.98479 12.9571H3.36376C3.88382 12.9571 4.32643 12.5255 4.32643 12.0055ZM6.56155 6.57261C6.92669 6.21853 6.92669 5.57676 6.57261 5.22268L4.87967 3.51867C4.52559 3.16459 3.89488 3.15352 3.52974 3.51867C3.1646 3.89488 3.1646 4.51452 3.51868 4.8686L5.21162 6.57261C5.57676 6.93775 6.18534 6.93775 6.56155 6.57261Z" fill="#E6D110"/>
<path d="M12.0055 17.6376C15.1148 17.6376 17.6376 15.1148 17.6376 12.0055C17.6376 8.89626 15.1148 6.36237 12.0055 6.36237C8.89626 6.36237 6.36237 8.89626 6.36237 12.0055C6.36237 15.1148 8.89626 17.6376 12.0055 17.6376ZM12.0055 15.9557C9.81468 15.9557 8.04426 14.1964 8.04426 12.0055C8.04426 9.81462 9.81468 8.04425 12.0055 8.04425C14.1964 8.04425 15.9557 9.81462 15.9557 12.0055C15.9557 14.1964 14.1964 15.9557 12.0055 15.9557Z" fill="#E6D110"/>
</g>
<defs>
<clipPath id="clip0_356_4168">
<rect width="24" height="24" fill="white"/>
</clipPath>
</defs>
</svg>
