<svg width="28" height="30" viewBox="0 0 28 30" fill="none" xmlns="http://www.w3.org/2000/svg">
<g clip-path="url(#clip0_356_4163)">
<path d="M17.039 23.4676H14.3788L14.3554 23.995L15.7851 21.2528C15.9257 20.995 15.8202 20.7957 15.5624 20.7957H13.0194C12.6796 20.7957 12.5624 20.9129 12.4569 21.159L10.8632 24.7918C10.7343 25.0848 10.8632 25.2606 11.1679 25.2606H13.3358L13.4882 24.5692L11.6015 29.1512C11.5429 29.3035 11.578 29.4325 11.6835 29.4793C11.789 29.5262 11.9179 29.491 12.0468 29.3621L17.2265 24.0535C17.4726 23.7957 17.3788 23.4676 17.039 23.4676Z" fill="#6C6C6C"/>
<path d="M6.35156 19.1199H20.8945C24.7383 19.1199 27.5977 16.2019 27.5977 12.5925C27.5977 8.85425 24.5508 6.12378 20.5781 6.12378C19.1133 3.22925 16.3945 1.36597 13.0078 1.36597C8.60156 1.36597 4.96875 4.823 4.58203 9.17066C2.46094 9.79175 0.84375 11.6316 0.84375 14.1042C0.84375 16.8816 2.85938 19.1199 6.35156 19.1199ZM6.32812 17.2449C3.92578 17.2449 2.71875 15.8972 2.71875 14.1628C2.71875 12.7566 3.53906 11.4909 5.53125 10.9636C6.17578 10.7878 6.41016 10.4831 6.46875 9.82691C6.73828 5.99488 9.60938 3.24097 13.0078 3.24097C15.6445 3.24097 17.7188 4.69409 18.9844 7.28394C19.2539 7.85816 19.6055 8.05738 20.2969 8.05738C23.7656 8.05738 25.7227 10.1433 25.7227 12.6394C25.7227 15.1941 23.6836 17.2449 21.0117 17.2449H6.32812Z" fill="#6C6C6C"/>
</g>
<defs>
<clipPath id="clip0_356_4163">
<rect width="27.5977" height="29.4186" fill="white" transform="translate(0 0.0805664)"/>
</clipPath>
</defs>
</svg>
