<svg width="9" height="16" viewBox="0 0 9 16" fill="none" xmlns="http://www.w3.org/2000/svg">
<g clip-path="url(#clip0_1263_8940)">
<path d="M4.50635 13.6081C6.65186 13.6081 8.49903 12.529 8.49903 10.4724C8.49903 8.56812 7.00733 7.88892 5.23633 7.46363L4.01758 7.16529C2.86231 6.88599 1.90381 6.38452 1.90381 5.28638C1.90381 4.05493 3.21778 3.42652 4.5 3.42652C5.81397 3.42652 6.76612 4.04224 7.11524 5.17212C7.2168 5.47046 7.41358 5.67359 7.74366 5.67359C8.07374 5.67359 8.31495 5.44507 8.31495 5.10864C8.31495 4.60083 7.97852 3.91529 7.54053 3.4773C6.76612 2.70288 5.65528 2.34107 4.5 2.34107C2.51319 2.34107 0.685058 3.39478 0.685058 5.38159C0.685058 7.1399 2.18311 7.93335 3.81446 8.30786L5.03956 8.59351C6.25831 8.87915 7.28663 9.32349 7.28663 10.5676C7.28663 11.9641 6.0044 12.529 4.51905 12.529C3.11622 12.529 1.97999 11.9641 1.64356 10.7009C1.54834 10.3899 1.36426 10.2122 1.04053 10.2122C0.685058 10.2122 0.450195 10.4534 0.450195 10.7707C0.450195 11.3611 0.837402 12.0466 1.27539 12.4656C2.13233 13.2717 3.33838 13.6081 4.50635 13.6081ZM4.47461 15.1506C4.70312 15.1506 4.88721 14.9602 4.88721 14.7317V1.25562C4.88721 1.03345 4.70312 0.843018 4.47461 0.843018C4.2461 0.843018 4.06202 1.03345 4.06202 1.25562V14.7317C4.06202 14.9602 4.2461 15.1506 4.47461 15.1506Z" fill="black" fill-opacity="0.85"/>
</g>
<defs>
<clipPath id="clip0_1263_8940">
<rect width="8.55664" height="14.314" fill="white" transform="translate(0.450195 0.843018)"/>
</clipPath>
</defs>
</svg>
