<svg width="16" height="13" viewBox="0 0 16 13" fill="none" xmlns="http://www.w3.org/2000/svg">
<path d="M1.95226 12.4853H13.9336C15.0904 12.4853 15.7549 11.7757 15.7549 10.4101V2.56382C15.7549 1.19602 15.0858 0.488525 13.8026 0.488525H1.82134C0.666649 0.488525 0 1.19602 0 2.56382V10.4101C0 11.7757 0.671219 12.4853 1.95226 12.4853ZM1.93306 11.6434C1.19733 11.6434 0.783344 11.2046 0.783344 10.3985V2.56331C0.783344 1.76218 1.19733 1.32821 1.93306 1.32821H13.8173C14.553 1.32821 14.9716 1.76218 14.9716 2.56821V10.4035C14.9716 11.2046 14.553 11.6434 13.8173 11.6434H1.93306ZM7.8721 8.23294C8.2693 8.23294 8.64291 8.07141 9.00607 7.71764L15.2628 1.68707L14.7218 1.10232L8.53867 7.0731C8.31487 7.28949 8.10091 7.38838 7.8721 7.38838C7.64531 7.38838 7.43135 7.28949 7.20552 7.0731L1.02243 1.10232L0.481477 1.68707L6.7402 7.71764C7.10332 8.07141 7.47496 8.23294 7.8721 8.23294ZM1.12588 11.7065L5.94302 6.53797L5.40207 5.96472L0.586978 11.1195L1.12588 11.7065ZM14.6336 11.7114L15.1726 11.1222L10.355 5.96472L9.80943 6.53797L14.6336 11.7114Z" fill="black" fill-opacity="0.85"/>
</svg>
