<svg width="33" height="32" viewBox="0 0 33 32" fill="none" xmlns="http://www.w3.org/2000/svg">
<path d="M31.395 15.5525L26.395 5.5525C26.3119 5.38636 26.1841 5.24667 26.026 5.14908C25.8679 5.05149 25.6858 4.99987 25.5 5H7.5C7.31422 4.99987 7.13208 5.05149 6.97399 5.14908C6.81591 5.24667 6.68814 5.38636 6.605 5.5525L1.605 15.5525C1.53607 15.6916 1.50014 15.8447 1.5 16V23C1.5 23.5304 1.71071 24.0391 2.08579 24.4142C2.46086 24.7893 2.96957 25 3.5 25H29.5C30.0304 25 30.5391 24.7893 30.9142 24.4142C31.2893 24.0391 31.5 23.5304 31.5 23V16C31.4999 15.8447 31.4639 15.6916 31.395 15.5525ZM12.8825 7L14.3825 10H10.6175L9.1175 7H12.8825ZM18.8825 7L20.3825 10H16.6175L15.1175 7H18.8825ZM13.1175 15L11.6175 12H15.3825L16.8825 15H13.1175ZM19.1175 15L17.6175 12H21.3825L22.8825 15H19.1175ZM25.1175 15L23.6175 12H27.3825L28.8825 15H25.1175ZM26.3825 10H22.6175L21.1175 7H24.8825L26.3825 10ZM3.5 16.2362L7.5 8.23625L11.5 16.2362V23H3.5V16.2362ZM13.5 23V17H29.5V23H13.5Z" fill="#343330"/>
</svg>
