<svg width="14" height="14" viewBox="0 0 14 14" fill="none" xmlns="http://www.w3.org/2000/svg">
<g clip-path="url(#clip0_1263_8935)">
<path d="M6.46777 13.116C8.23242 13.116 9.67334 10.5071 9.67334 7.00952C9.67334 3.49292 8.23877 0.884033 6.46777 0.884033C4.69677 0.884033 3.2622 3.49292 3.2622 7.00952C3.2622 10.5071 4.70312 13.116 6.46777 13.116ZM6.46777 1.6521C7.71191 1.6521 8.82275 4.12769 8.82275 7.00952C8.82275 9.84058 7.71191 12.3415 6.46777 12.3415C5.22363 12.3415 4.11279 9.84058 4.11279 7.00952C4.11279 4.12769 5.22363 1.6521 6.46777 1.6521ZM6.05517 0.972901V12.9953H6.88671V0.972901H6.05517ZM6.46777 9.38355C4.51269 9.38355 2.77978 9.89771 1.89111 10.7165L2.53222 11.2434C3.37011 10.5769 4.73486 10.2151 6.46777 10.2151C8.20068 10.2151 9.56543 10.5769 10.4034 11.2434L11.0445 10.7165C10.1558 9.89771 8.42285 9.38355 6.46777 9.38355ZM12.3267 6.57788H0.608887V7.40943H12.3267V6.57788ZM6.46777 4.64185C8.42285 4.64185 10.1558 4.12769 11.0445 3.30884L10.4034 2.78199C9.56543 3.44214 8.20068 3.81031 6.46777 3.81031C4.73486 3.81031 3.37011 3.44214 2.53222 2.78199L1.89111 3.30884C2.77978 4.12769 4.51269 4.64185 6.46777 4.64185ZM6.46777 13.4714C10.0415 13.4714 12.9424 10.5705 12.9424 6.99683C12.9424 3.4231 10.0415 0.522217 6.46777 0.522217C2.89404 0.522217 -0.00683594 3.4231 -0.00683594 6.99683C-0.00683594 10.5705 2.89404 13.4714 6.46777 13.4714ZM6.46777 12.6081C3.37011 12.6081 0.856445 10.0945 0.856445 6.99683C0.856445 3.89917 3.37011 1.3855 6.46777 1.3855C9.56543 1.3855 12.0791 3.89917 12.0791 6.99683C12.0791 10.0945 9.56543 12.6081 6.46777 12.6081Z" fill="black"/>
</g>
<defs>
<clipPath id="clip0_1263_8935">
<rect width="13.457" height="12.9556" fill="white" transform="translate(-0.00683594 0.522217)"/>
</clipPath>
</defs>
</svg>
