<svg width="33" height="32" viewBox="0 0 33 32" fill="none" xmlns="http://www.w3.org/2000/svg">
<path d="M31.5 26H29.5V12C29.7652 12 30.0196 11.8946 30.2071 11.7071C30.3946 11.5196 30.5 11.2652 30.5 11C30.5 10.7348 30.3946 10.4804 30.2071 10.2929C30.0196 10.1054 29.7652 10 29.5 10H23.5V6C23.7652 6 24.0196 5.89464 24.2071 5.70711C24.3946 5.51957 24.5 5.26522 24.5 5C24.5 4.73478 24.3946 4.48043 24.2071 4.29289C24.0196 4.10536 23.7652 4 23.5 4H5.5C5.23478 4 4.98043 4.10536 4.79289 4.29289C4.60536 4.48043 4.5 4.73478 4.5 5C4.5 5.26522 4.60536 5.51957 4.79289 5.70711C4.98043 5.89464 5.23478 6 5.5 6V26H3.5C3.23478 26 2.98043 26.1054 2.79289 26.2929C2.60536 26.4804 2.5 26.7348 2.5 27C2.5 27.2652 2.60536 27.5196 2.79289 27.7071C2.98043 27.8946 3.23478 28 3.5 28H31.5C31.7652 28 32.0196 27.8946 32.2071 27.7071C32.3946 27.5196 32.5 27.2652 32.5 27C32.5 26.7348 32.3946 26.4804 32.2071 26.2929C32.0196 26.1054 31.7652 26 31.5 26ZM27.5 12V26H23.5V12H27.5ZM7.5 6H21.5V26H18.5V20C18.5 19.7348 18.3946 19.4804 18.2071 19.2929C18.0196 19.1054 17.7652 19 17.5 19H11.5C11.2348 19 10.9804 19.1054 10.7929 19.2929C10.6054 19.4804 10.5 19.7348 10.5 20V26H7.5V6ZM16.5 26H12.5V21H16.5V26ZM9.5 10C9.5 9.73478 9.60536 9.48043 9.79289 9.29289C9.98043 9.10536 10.2348 9 10.5 9H12.5C12.7652 9 13.0196 9.10536 13.2071 9.29289C13.3946 9.48043 13.5 9.73478 13.5 10C13.5 10.2652 13.3946 10.5196 13.2071 10.7071C13.0196 10.8946 12.7652 11 12.5 11H10.5C10.2348 11 9.98043 10.8946 9.79289 10.7071C9.60536 10.5196 9.5 10.2652 9.5 10ZM15.5 10C15.5 9.73478 15.6054 9.48043 15.7929 9.29289C15.9804 9.10536 16.2348 9 16.5 9H18.5C18.7652 9 19.0196 9.10536 19.2071 9.29289C19.3946 9.48043 19.5 9.73478 19.5 10C19.5 10.2652 19.3946 10.5196 19.2071 10.7071C19.0196 10.8946 18.7652 11 18.5 11H16.5C16.2348 11 15.9804 10.8946 15.7929 10.7071C15.6054 10.5196 15.5 10.2652 15.5 10ZM9.5 15C9.5 14.7348 9.60536 14.4804 9.79289 14.2929C9.98043 14.1054 10.2348 14 10.5 14H12.5C12.7652 14 13.0196 14.1054 13.2071 14.2929C13.3946 14.4804 13.5 14.7348 13.5 15C13.5 15.2652 13.3946 15.5196 13.2071 15.7071C13.0196 15.8946 12.7652 16 12.5 16H10.5C10.2348 16 9.98043 15.8946 9.79289 15.7071C9.60536 15.5196 9.5 15.2652 9.5 15ZM15.5 15C15.5 14.7348 15.6054 14.4804 15.7929 14.2929C15.9804 14.1054 16.2348 14 16.5 14H18.5C18.7652 14 19.0196 14.1054 19.2071 14.2929C19.3946 14.4804 19.5 14.7348 19.5 15C19.5 15.2652 19.3946 15.5196 19.2071 15.7071C19.0196 15.8946 18.7652 16 18.5 16H16.5C16.2348 16 15.9804 15.8946 15.7929 15.7071C15.6054 15.5196 15.5 15.2652 15.5 15Z" fill="#343330"/>
</svg>
