<svg width="15" height="16" viewBox="0 0 15 16" fill="none" xmlns="http://www.w3.org/2000/svg">
<path d="M10.9737 15.4884C12.2036 15.4884 13.1122 15.1331 13.8903 14.277C13.9381 14.2229 13.978 14.1791 14.0257 14.125C14.4922 13.6216 14.7123 13.1188 14.7123 12.6447C14.7123 12.1356 14.4393 11.6423 13.8366 11.2252L11.9284 9.89417C11.3779 9.51652 10.8774 9.47554 10.196 9.81059L8.97642 10.4128C8.71663 10.5385 8.50007 10.5385 8.23845 10.3787C7.88908 10.1592 7.10559 9.53997 6.42122 8.8241C5.72908 8.10641 5.16578 7.38774 4.93571 6.96799C4.82258 6.75625 4.83332 6.5934 4.96549 6.37699L5.68453 5.22771C5.98535 4.73885 6.03767 4.14143 5.69713 3.6372L4.17453 1.38912C3.75755 0.774741 3.28723 0.49897 2.7925 0.493503C2.32973 0.488035 1.83399 0.720299 1.33475 1.19085C1.28701 1.23404 1.23391 1.2827 1.18617 1.3338C0.353378 2.11397 0 3.03755 0 4.28074C0 6.51273 1.41717 9.20524 3.79728 11.6182C6.15943 14.0233 8.78374 15.4884 10.9737 15.4884ZM10.979 14.5566C8.99879 14.5814 6.5244 13.0553 4.48654 10.9838C2.43073 8.89397 0.889863 6.30147 0.914274 4.27527C0.925006 3.3913 1.22287 2.61693 1.85398 2.02593C1.89098 1.99122 1.92799 1.95897 1.965 1.92671C2.25128 1.65681 2.54883 1.5213 2.79787 1.5213C3.04558 1.5213 3.25201 1.63058 3.42198 1.88797L4.85042 4.05949C4.99464 4.2748 4.9941 4.48353 4.82172 4.78299L4.03457 6.05826C3.74791 6.5251 3.79324 6.91862 4.07508 7.34495C4.45132 7.89863 5.08919 8.74141 5.79393 9.46402C6.4957 10.1842 7.37709 10.9147 7.88465 11.2558C8.30533 11.5504 8.72037 11.615 9.30372 11.3271L10.634 10.6809C10.9728 10.5241 11.2398 10.5637 11.5248 10.7516L13.3466 12.0032C13.5943 12.166 13.7039 12.3843 13.7039 12.6393C13.7039 12.8955 13.5733 13.1939 13.3038 13.4881C13.2721 13.5283 13.2429 13.5611 13.2112 13.6012C12.6265 14.2469 11.8589 14.5456 10.979 14.5566Z" fill="black"/>
</svg>
