<svg width="17" height="16" viewBox="0 0 17 16" fill="none" xmlns="http://www.w3.org/2000/svg">
<path d="M3.94995 8H1.94995M3.94995 8C3.94995 8.53043 4.16066 9.03914 4.53574 9.41421C4.91081 9.78929 5.41952 10 5.94995 10C6.48038 10 6.98909 9.78929 7.36416 9.41421C7.73924 9.03914 7.94995 8.53043 7.94995 8M3.94995 8C3.94995 7.46957 4.16066 6.96086 4.53574 6.58579C4.91081 6.21071 5.41952 6 5.94995 6C6.48038 6 6.98909 6.21071 7.36416 6.58579C7.73924 6.96086 7.94995 7.46957 7.94995 8M14.95 8H7.94995M14.95 3H12.95M12.95 3C12.95 3.53043 12.7392 4.03914 12.3642 4.41421C11.9891 4.78929 11.4804 5 10.95 5C10.4195 5 9.91081 4.78929 9.53574 4.41421C9.16067 4.03914 8.94995 3.53043 8.94995 3M12.95 3C12.95 2.46957 12.7392 1.96086 12.3642 1.58579C11.9891 1.21071 11.4804 1 10.95 1C10.4195 1 9.91081 1.21071 9.53574 1.58579C9.16067 1.96086 8.94995 2.46957 8.94995 3M8.94995 3H1.94995M14.95 13H12.95M12.95 13C12.95 13.5304 12.7392 14.0391 12.3642 14.4142C11.9891 14.7893 11.4804 15 10.95 15C10.4195 15 9.91081 14.7893 9.53574 14.4142C9.16067 14.0391 8.94995 13.5304 8.94995 13M12.95 13C12.95 12.4696 12.7392 11.9609 12.3642 11.5858C11.9891 11.2107 11.4804 11 10.95 11C10.4195 11 9.91081 11.2107 9.53574 11.5858C9.16067 11.9609 8.94995 12.4696 8.94995 13M8.94995 13H1.94995" stroke="#1A1A1A" stroke-width="1.5"/>
</svg>
