<svg width="33" height="33" viewBox="0 0 33 33" fill="none" xmlns="http://www.w3.org/2000/svg">
<path d="M30.2803 29.3089C30.1982 29.4115 30.0968 29.497 29.9817 29.5604C29.8666 29.6238 29.7401 29.6639 29.6095 29.6784C29.4789 29.6929 29.3468 29.6816 29.2206 29.645C29.0943 29.6084 28.9766 29.5473 28.874 29.4651C28.8278 29.4276 24.0215 25.6839 16.499 25.6839C8.97653 25.6839 4.16903 29.4339 4.12403 29.4664C4.02135 29.5484 3.90351 29.6095 3.77724 29.646C3.65097 29.6826 3.51874 29.6939 3.3881 29.6793C3.12426 29.6499 2.88291 29.5169 2.71715 29.3095C2.55139 29.1021 2.4748 28.8374 2.50422 28.5736C2.53364 28.3097 2.66666 28.0684 2.87403 27.9026C3.07778 27.7401 7.68903 24.1201 15.1603 23.7214C14.7716 22.1729 14.6328 20.5723 14.749 18.9801C14.9665 16.2664 16.114 12.6514 20.124 9.92011C19.4398 9.75044 18.7363 9.67101 18.0315 9.68386C15.6565 9.76136 14.164 11.1476 13.469 13.9239C13.4154 14.1407 13.2908 14.3333 13.115 14.471C12.9392 14.6088 12.7224 14.6837 12.499 14.6839C12.4172 14.6843 12.3357 14.6742 12.2565 14.6539C11.9993 14.5895 11.7781 14.4256 11.6417 14.1983C11.5053 13.9709 11.4648 13.6986 11.529 13.4414C12.6853 8.82261 15.6678 7.76386 17.9665 7.69136C18.8795 7.6715 19.791 7.7745 20.6765 7.99761C20.1978 7.20636 19.4978 6.38136 18.5253 5.96636C17.2753 5.43636 15.754 5.66761 13.9865 6.65511C13.7545 6.78441 13.4805 6.81622 13.225 6.74355C12.9695 6.67088 12.7533 6.49968 12.624 6.26761C12.4947 6.03555 12.4629 5.76163 12.5356 5.50611C12.6083 5.25059 12.7795 5.03441 13.0115 4.90511C15.354 3.59886 17.4765 3.33761 19.3215 4.13011C20.8828 4.80011 21.9128 6.10261 22.5553 7.25511C23.3278 6.05011 24.2903 5.23386 25.354 4.88761C26.8365 4.40386 28.434 4.79761 30.104 6.05886C30.3063 6.22189 30.4371 6.45723 30.4689 6.71505C30.5007 6.97287 30.4309 7.23295 30.2743 7.44022C30.1178 7.64749 29.8867 7.78569 29.63 7.82557C29.3733 7.86545 29.1111 7.80386 28.899 7.65386C27.7853 6.81261 26.8028 6.52136 25.9803 6.78761C25.069 7.08136 24.3715 8.03761 23.934 8.86386C24.8335 9.0462 25.6989 9.368 26.499 9.81761C28.3253 10.8614 30.499 13.0739 30.499 17.6851C30.499 17.9503 30.3937 18.2047 30.2061 18.3922C30.0186 18.5798 29.7642 18.6851 29.499 18.6851C29.2338 18.6851 28.9795 18.5798 28.7919 18.3922C28.6044 18.2047 28.499 17.9503 28.499 17.6851C28.499 14.7526 27.4903 12.6851 25.499 11.5601C25.2671 11.4284 25.027 11.3115 24.7803 11.2101C25.4099 12.4902 25.6307 13.9328 25.4128 15.3426C25.2556 16.3856 24.8781 17.3832 24.3053 18.2689C24.152 18.4838 23.9199 18.6295 23.6596 18.674C23.3994 18.7185 23.1321 18.6583 22.9161 18.5064C22.7 18.3546 22.5528 18.1235 22.5066 17.8636C22.4603 17.6036 22.5187 17.3359 22.669 17.1189C22.7615 16.9826 24.7103 14.0714 22.2615 10.9476C18.8865 12.8489 17.0253 15.6039 16.7415 19.1464C16.631 20.6811 16.7931 22.2232 17.2203 23.7014C25.0515 23.9276 29.9103 27.7426 30.1203 27.9089C30.3263 28.0739 30.4588 28.3136 30.4888 28.5759C30.5187 28.8382 30.4438 29.1016 30.2803 29.3089ZM3.49903 18.1839C3.49903 17.4916 3.7043 16.8149 4.08888 16.2394C4.47347 15.6638 5.02009 15.2152 5.65963 14.9503C6.29918 14.6854 7.00291 14.6161 7.68184 14.7511C8.36078 14.8862 8.98442 15.2195 9.4739 15.709C9.96338 16.1985 10.2967 16.8221 10.4318 17.501C10.5668 18.18 10.4975 18.8837 10.2326 19.5233C9.9677 20.1628 9.51909 20.7094 8.94352 21.094C8.36795 21.4786 7.69126 21.6839 6.99903 21.6839C6.07077 21.6839 5.18053 21.3151 4.52415 20.6587C3.86778 20.0024 3.49903 19.1121 3.49903 18.1839ZM5.49903 18.1839C5.49903 18.4805 5.587 18.7705 5.75182 19.0172C5.91664 19.2639 6.15091 19.4562 6.425 19.5697C6.69909 19.6832 7.00069 19.7129 7.29166 19.655C7.58263 19.5972 7.84991 19.4543 8.05969 19.2445C8.26947 19.0347 8.41233 18.7675 8.4702 18.4765C8.52808 18.1855 8.49838 17.8839 8.38485 17.6098C8.27131 17.3358 8.07906 17.1015 7.83238 16.9367C7.58571 16.7718 7.2957 16.6839 6.99903 16.6839C6.6012 16.6839 6.21967 16.8419 5.93837 17.1232C5.65706 17.4045 5.49903 17.786 5.49903 18.1839Z" fill="#343330"/>
</svg>
