<svg width="33" height="32" viewBox="0 0 33 32" fill="none" xmlns="http://www.w3.org/2000/svg">
<path d="M17.6038 27.5537C17.4569 27.7745 17.2283 27.9279 16.9683 27.9802C16.7084 28.0324 16.4383 27.9793 16.2175 27.8325C12.4502 25.3263 8.02475 23.9927 3.5 24C3.23478 24 2.98043 23.8946 2.79289 23.7071C2.60536 23.5196 2.5 23.2652 2.5 23C2.5 22.7348 2.60536 22.4804 2.79289 22.2929C2.98043 22.1054 3.23478 22 3.5 22C8.41891 21.9925 13.2297 23.4427 17.325 26.1675C17.5458 26.3144 17.6991 26.5429 17.7514 26.8029C17.8037 27.0629 17.7506 27.3329 17.6038 27.5537ZM3.5 18C3.23478 18 2.98043 18.1054 2.79289 18.2929C2.60536 18.4804 2.5 18.7348 2.5 19C2.5 19.2652 2.60536 19.5196 2.79289 19.7071C2.98043 19.8946 3.23478 20 3.5 20C10.5685 19.9838 17.3583 22.7555 22.3962 27.7138C22.4892 27.8093 22.6003 27.8854 22.7231 27.9374C22.8458 27.9894 22.9777 28.0163 23.111 28.0166C23.2444 28.0169 23.3764 27.9905 23.4994 27.939C23.6223 27.8875 23.7338 27.812 23.8271 27.7168C23.9205 27.6216 23.9938 27.5087 24.0429 27.3848C24.092 27.2608 24.1158 27.1283 24.1129 26.995C24.1101 26.8617 24.0806 26.7304 24.0262 26.6087C23.9718 26.4869 23.8936 26.3773 23.7962 26.2862C18.3855 20.9599 11.0925 17.9824 3.5 18ZM29.5 20C27.456 19.9987 25.4184 20.2289 23.4263 20.6863C24.1129 21.2071 24.7796 21.7554 25.4263 22.3312C26.773 22.1107 28.1354 21.9999 29.5 22C29.7652 22 30.0196 22.1054 30.2071 22.2929C30.3946 22.4804 30.5 22.7348 30.5 23C30.5 23.2652 30.3946 23.5196 30.2071 23.7071C30.0196 23.8946 29.7652 24 29.5 24C28.75 24 28.0087 24.0362 27.2687 24.1075C27.9621 24.83 28.6262 25.5858 29.2612 26.375C29.3482 26.4769 29.4139 26.5952 29.4542 26.7229C29.4946 26.8506 29.5089 26.9851 29.4963 27.1185C29.4837 27.2518 29.4445 27.3813 29.3809 27.4992C29.3173 27.6171 29.2306 27.721 29.1261 27.8047C29.0215 27.8885 28.9013 27.9504 28.7723 27.9868C28.6434 28.0232 28.5085 28.0333 28.3756 28.0165C28.2427 27.9997 28.1145 27.9564 27.9987 27.8892C27.8829 27.8219 27.7817 27.7321 27.7013 27.625C24.8028 23.9903 21.1209 21.0571 16.9304 19.0442C12.7399 17.0313 8.14888 15.9907 3.5 16C3.23478 16 2.98043 15.8946 2.79289 15.7071C2.60536 15.5196 2.5 15.2652 2.5 15C2.5 14.7348 2.60536 14.4804 2.79289 14.2929C2.98043 14.1054 3.23478 14 3.5 14C5.5124 14.0004 7.52062 14.1832 9.5 14.5463V10C9.5 9.84475 9.53615 9.69164 9.60557 9.55279C9.675 9.41393 9.7758 9.29315 9.9 9.2L17.9 3.2C18.0731 3.07018 18.2836 3 18.5 3C18.7164 3 18.9269 3.07018 19.1 3.2L27.1 9.2C27.2242 9.29315 27.325 9.41393 27.3944 9.55279C27.4639 9.69164 27.5 9.84475 27.5 10V14.0612C28.1637 14.0225 28.83 14 29.5 14C29.7652 14 30.0196 14.1054 30.2071 14.2929C30.3946 14.4804 30.5 14.7348 30.5 15C30.5 15.2652 30.3946 15.5196 30.2071 15.7071C30.0196 15.8946 29.7652 16 29.5 16C25.9089 15.9931 22.3444 16.6146 18.9675 17.8363C19.7542 18.2529 20.5233 18.7021 21.275 19.1838C23.9457 18.3967 26.7157 17.998 29.5 18C29.7652 18 30.0196 18.1054 30.2071 18.2929C30.3946 18.4804 30.5 18.7348 30.5 19C30.5 19.2652 30.3946 19.5196 30.2071 19.7071C30.0196 19.8946 29.7652 20 29.5 20ZM15.5 11H21.5C21.7652 11 22.0196 11.1054 22.2071 11.2929C22.3946 11.4804 22.5 11.7348 22.5 12V14.7425C23.49 14.5292 24.49 14.3625 25.5 14.2425V10.5L18.5 5.25L11.5 10.5V14.9762C12.5158 15.2262 13.5158 15.5254 14.5 15.8737V12C14.5 11.7348 14.6054 11.4804 14.7929 11.2929C14.9804 11.1054 15.2348 11 15.5 11ZM16.5088 16.6588C17.8073 16.1012 19.1405 15.6281 20.5 15.2425V13H16.5V16.655L16.5088 16.6588Z" fill="#343330"/>
</svg>
